<!-- Generated by IcoMoon.io -->
<svg version="1.1" xmlns="http://www.w3.org/2000/svg" width="32" height="32" viewBox="0 0 32 32">
<title>icn-sport-ice-skating</title>
<path d="M15.004 7.966v-1.724c-0.002-0.335-0.274-0.606-0.609-0.606 0 0 0 0 0 0h-0.968c-0.006-0-0.013-0-0.021-0-1.397 0-2.61 0.789-3.217 1.945l-0.010 0.020h3.43c0.003 0 0.007-0 0.011-0 0.509 0 0.986 0.135 1.398 0.372l-0.014-0.007z"></path>
<path d="M10.905 21.027c0 0.039 0 0.079 0 0.118h12.66c1.039 0 1.881-0.842 1.881-1.881v0-0.079c0-2.224-1.802-4.026-4.025-4.028h-0.348l-0.045 0.053-1.847 1.844c-0.101 0.077-0.228 0.123-0.366 0.123-0.335 0-0.606-0.271-0.606-0.606 0-0.142 0.049-0.273 0.131-0.377l-0.001 0.001 1.182-1.182c-0.438-0.095-0.823-0.225-1.187-0.391l0.036 0.015-2.102 1.235c-0.087 0.051-0.192 0.081-0.304 0.081-0.001 0-0.001 0-0.002 0h0c-0.331-0.005-0.598-0.274-0.598-0.606 0-0.217 0.114-0.408 0.286-0.515l1.546-0.905c-0.192-0.159-0.366-0.321-0.528-0.494l-0.003-0.003-2.465 0.643c-0.044 0.012-0.095 0.020-0.147 0.020-0.002 0-0.003 0-0.005-0h0c-0.325-0.012-0.585-0.279-0.585-0.606 0-0.267 0.173-0.494 0.412-0.575l0.004-0.001 2.035-0.531c-0.084-0.162-0.171-0.359-0.244-0.562l-0.011-0.036c-0.020 0.002-0.043 0.003-0.066 0.003s-0.046-0.001-0.069-0.003l0.003 0h-2.762c-0.335 0-0.606-0.271-0.606-0.606s0.271-0.606 0.606-0.606v0h2.507l-0.253-0.794c-0.205-0.568-0.739-0.966-1.366-0.966-0.013 0-0.027 0-0.040 0.001l0.002-0h-5.544c-0.837 0.002-1.514 0.679-1.516 1.516v6.274c2.41 0.047 4.345 2.010 4.348 4.426v0z"></path>
<path d="M9.286 21.145h0.404c0-0.039 0-0.079 0-0.118-0.003-1.745-1.394-3.164-3.128-3.211l-0.004-0v0.601c0.002 1.506 1.222 2.727 2.728 2.728h0z"></path>
<path d="M25.319 21.811c-0.49 0.348-1.099 0.557-1.756 0.561h-1.155c0 0.017 0 0.037 0 0.056v0.727c0 0 0 0 0 0 0 0.098-0.079 0.178-0.177 0.18h-2.976v-0.974h-3.034v0.963h-2.709v-0.963h-3.034v0.963h-2.406c-0.812 0.036-1.456 0.703-1.456 1.52s0.644 1.484 1.453 1.52l0.003 0h14.156c1.777-0.002 3.217-1.442 3.217-3.22 0 0 0 0 0 0v0-0.727c0-0.001 0-0.002 0-0.003 0-0.218-0.047-0.425-0.13-0.612l0.004 0.010z"></path>
</svg>
