<!-- Generated by IcoMoon.io -->
<svg version="1.1" xmlns="http://www.w3.org/2000/svg" width="32" height="32" viewBox="0 0 32 32">
<title>icn-sport-wind-surfing</title>
<path d="M10.894 25.302l12.755-1.364c0.001-0 0.001-0 0.002-0 0.020 0 0.037 0.016 0.037 0.037 0 0.010-0.004 0.019-0.010 0.025-2.843 2.386-8.385 3.472-12.794 1.37-0.011-0.006-0.018-0.018-0.018-0.032 0-0.018 0.013-0.032 0.029-0.036zM18.964 9.053c-0.438-0.312-0.948-0.635-1.475-0.93l-5.958 3.246c0.873 1.471 1.699 3.188 2.379 4.977l8.17-4.3c-0.877-1.165-1.907-2.155-3.072-2.963zM24.182 18.035c0-0.138 0-0.486-0.028-0.623-0.182-1.667-0.706-3.179-1.502-4.511l-8.314 4.724c0.149 0.48 0.281 0.963 0.401 1.457 0.247 1.033 0.334 2.105 0.5 3.175 2.445-2.481 5.123-4.525 8.943-4.171zM8.477 5.923h-0.272l2.779 4.514 5.252-2.947c-2.762-1.336-6.925-1.538-7.759-1.566z"></path>
</svg>
