<!-- Generated by IcoMoon.io -->
<svg version="1.1" xmlns="http://www.w3.org/2000/svg" width="32" height="32" viewBox="0 0 32 32">
<title>icn-sport-frisbee</title>
<path d="M6.287 20.111c-0.106-0.288-0.397-0.716-0.28-1.316 0.375-1.574 3.751-3.807 8.968-5.676l0.008 0.028c5.134-1.712 8.419-2.362 9.697-1.386 0.475 0.393 0.523 0.906 0.624 1.196 0.43 1.232-3.16 4.132-8.409 5.913-5.217 1.869-10.156 2.464-10.608 1.24zM16.179 17.731c4.988-1.815 8.512-3.919 8.015-5.284-0.102-0.28-0.412-0.425-0.693-0.323s-0.425 0.412-0.323 0.693c-0.018-0.049-0.015-0.071-0.026-0.049-0.042 0.082-0.132 0.196-0.27 0.331-0.312 0.305-0.82 0.672-1.488 1.070-1.401 0.837-3.393 1.75-5.585 2.548-3.367 1.225-6.446 1.934-7.623 1.834-0.297-0.025-0.559 0.195-0.584 0.493s0.195 0.559 0.493 0.584c1.379 0.117 4.579-0.619 8.085-1.895z"></path>
</svg>
