<svg width="24" height="24" viewBox="0 0 24 24" xmlns="http://www.w3.org/2000/svg">
<path d="M10.6 11H15.4C15.7324 11 16 11.3058 16 11.6857V22.3143C16 22.6942 15.7324 23 15.4 23H10.6C10.2676 23 10 22.6942 10 22.3143V11.6857C10 11.3058 10.2676 11 10.6 11Z" />
<path d="M14.9989 8.14363C14.9989 9.38175 13.9952 10.3854 12.7571 10.3854C11.519 10.3854 10.5153 9.38175 10.5153 8.14363C10.5153 6.90551 11.519 5.90181 12.7571 5.90181C13.9952 5.90181 14.9989 6.90551 14.9989 8.14363Z" />
<path d="M10.4437 11.8256C10.2227 11.7121 9.95449 11.7984 9.84103 12.0193L8.03482 15.5369L8.02548 15.555C7.85089 15.9182 7.99706 16.3562 8.35767 16.5414C8.71828 16.7265 9.15945 16.5901 9.35286 16.2366C9.35606 16.2308 9.35911 16.2244 9.36211 16.2185L11.1683 12.7009C11.2818 12.48 11.1955 12.2117 10.9746 12.0982L10.4437 11.8256Z" />
<path d="M8.9185 15.4493C8.56022 15.2653 8.12174 15.3996 7.92642 15.7481C7.92217 15.7562 7.91832 15.7639 7.91405 15.7722L6.15432 19.1992C6.04086 19.4202 6.12711 19.6885 6.34806 19.8019L6.87901 20.0746C7.09997 20.188 7.36823 20.1018 7.4817 19.8808L9.24142 16.4538C9.24567 16.4455 9.2499 16.438 9.25385 16.4297C9.42321 16.0679 9.27681 15.6333 8.9185 15.4493Z" />
<path d="M17.1492 3.35763C16.941 3.34325 16.7386 3.47992 16.6808 3.68943L15.6561 7.39778C15.6535 7.40674 15.6581 7.4181 15.6561 7.42706C15.6461 7.46941 15.6294 7.51178 15.6269 7.55392C15.6265 7.56012 15.6271 7.56725 15.6269 7.57344C15.6186 7.59355 15.6042 7.61086 15.5976 7.63199C15.5955 7.63832 15.5898 7.6451 15.5878 7.65151L14.5046 11.4574C14.4367 11.6964 14.5779 11.936 14.8169 12.0039L15.3926 12.1698C15.6316 12.2377 15.881 12.1062 15.9489 11.8673L17.0224 8.06138L17.0321 8.04186C17.0422 8.00265 17.0481 7.96387 17.0516 7.92475C17.0665 7.89371 17.08 7.86083 17.0907 7.82717C17.0933 7.8184 17.0979 7.80684 17.1004 7.79789L18.1251 4.08954C18.1912 3.8501 18.0523 3.59938 17.8128 3.53329L17.2371 3.37715C17.2071 3.36889 17.179 3.35969 17.1492 3.35763Z" />
<path d="M19.2456 5.4751L19.3347 5.99906L18.8407 5.86171L18.8036 6.39208L18.3563 6.13881L18.1952 6.64477L17.8206 6.29029L17.5448 6.74242L17.2648 6.30735L16.8903 6.67938L16.7211 6.18899L16.2696 6.4593L16.2211 5.9421L15.719 6.09498L15.7938 5.58101L15.2703 5.60758L15.4642 5.12673L14.9496 5.02544L15.2514 4.60564L14.7756 4.38238L15.1677 4.04803L14.7584 3.71578L15.218 3.48632L14.899 3.06438L15.3994 2.95313L15.1892 2.46603L15.7013 2.47947L15.6122 1.95551L16.1062 2.09285L16.1433 1.56248L16.5906 1.81575L16.7518 1.3098L17.1263 1.66427L17.4022 1.21214L17.6821 1.64722L18.0567 1.27518L18.2259 1.76558L18.6773 1.49526L18.7259 2.01247L19.228 1.85959L19.1531 2.37355L19.6767 2.34698L19.4827 2.82784L19.9973 2.92913L19.6955 3.34893L20.1713 3.57219L19.7792 3.90653L20.1885 4.23879L19.7289 4.46825L20.0479 4.89019L19.5475 5.00143L19.7577 5.48854L19.2456 5.4751Z" />
<path d="M8.47547 21.1821L8.56459 21.7061L8.07056 21.5687L8.03345 22.0991L7.58619 21.8458L7.42502 22.3518L7.0505 21.9973L6.77463 22.4494L6.49465 22.0144L6.12011 22.3864L5.95092 21.896L5.49948 22.1663L5.45091 21.6491L4.94881 21.802L5.0237 21.288L4.50011 21.3146L4.69409 20.8337L4.17945 20.7324L4.48126 20.3126L4.00547 20.0894L4.39756 19.755L3.98828 19.4228L4.44787 19.1933L4.12888 18.7714L4.62926 18.6601L4.41909 18.173L4.93118 18.1865L4.84206 17.6625L5.33609 17.7999L5.3732 17.2695L5.82047 17.5228L5.98164 17.0168L6.35615 17.3713L6.63202 16.9191L6.91201 17.3542L7.28654 16.9822L7.45574 17.4726L7.90717 17.2023L7.95574 17.7195L8.45784 17.5666L8.38296 18.0806L8.90654 18.054L8.71256 18.5348L9.2272 18.6361L8.92539 19.0559L9.40118 19.2792L9.00909 19.6135L9.41837 19.9458L8.95878 20.1753L9.27777 20.5972L8.7774 20.7084L8.98756 21.1955L8.47547 21.1821Z" />
</svg>
