<!-- Generated by IcoMoon.io -->
<svg version="1.1" xmlns="http://www.w3.org/2000/svg" width="32" height="32" viewBox="0 0 32 32">
<title>icn-sport-triathlon</title>
<path d="M5.583 17.569l0.359-0.424c0.253-0.281 0.516-0.542 0.772-0.786 0.609-3.315 3.34-5.838 6.709-6.123l0.027 0.992c-1.388 0.121-2.628 0.672-3.607 1.517l2.815 2.82c0.233-0.153 0.506-0.269 0.798-0.331l0.016-3.933 0.994-0.062v-4.556c0-0.001 0-0.002 0-0.003 0-0.104-0.014-0.204-0.041-0.3-0.179-0.777-0.872-1.354-1.699-1.354-0.001 0-0.002 0-0.003 0h-1.038c-0.011-0.001-0.024-0.001-0.037-0.001-0.276 0-0.5 0.224-0.5 0.5s0.224 0.5 0.5 0.5c0.013 0 0.026-0 0.039-0.002l1.034 0c0.005-0 0.011-0 0.017-0 0.403 0 0.731 0.325 0.735 0.727v0c-0.003 0.404-0.331 0.73-0.735 0.73-0.001 0-0.002 0-0.003 0h-1.050c-0.011-0.001-0.024-0.001-0.037-0.001-0.276 0-0.5 0.224-0.5 0.5s0.224 0.5 0.5 0.5c0.013 0 0.026-0.001 0.039-0.002l1.034 0c0.267-0 0.52-0.060 0.746-0.167l-0.011 0.917c-4.32 0.272-7.767 3.891-7.874 8.342zM26.4 22.771c-0.171-0.236-0.441-0.255-0.733-0.062s-0.561 0.379-0.87 0.539c-0.313 0.18-0.688 0.286-1.087 0.286-0.429 0-0.829-0.122-1.168-0.333-0.327-0.185-0.659-0.388-0.99-0.59-0.633-0.429-1.414-0.685-2.254-0.685-0.826 0-1.595 0.247-2.235 0.672q-0.33 0.196-0.678 0.395c0.199 0.273 0.416 0.512 0.655 0.726q0.392-0.232 0.793-0.448c0.422-0.245 0.929-0.39 1.469-0.39 0.56 0 1.084 0.155 1.531 0.425 0.439 0.24 0.874 0.523 1.326 0.77 0.439 0.262 0.967 0.416 1.532 0.416 0.488 0 0.949-0.115 1.357-0.321 0.446-0.224 0.836-0.455 1.207-0.711 0.126-0.058 0.235-0.222 0.235-0.411 0-0.105-0.034-0.202-0.090-0.281zM26.386 20.373c-0.174-0.239-0.444-0.255-0.741-0.062s-0.561 0.379-0.879 0.539c-0.238 0.135-0.516 0.233-0.811 0.279l-0.014-12.708c0-0.31-0.251-0.561-0.561-0.561s-0.561 0.251-0.561 0.561v1.869h-4.94v-1.869c0-0.31-0.251-0.561-0.561-0.561s-0.561 0.251-0.561 0.561v11.902l-0.486 0.281-0.985-0.988c-0.13 0.083-0.278 0.159-0.435 0.219q0.168 0.458 0.337 0.848l0.146 0.34c0.264 0.519 0.281 0.595 0.401 0.842v0.022c0.386-0.12 0.722-0.279 1.029-0.478 0.307-0.192 0.638-0.381 0.975-0.552 0.426-0.244 0.936-0.389 1.481-0.389 0.566 0 1.095 0.156 1.548 0.427 0.444 0.239 0.882 0.523 1.339 0.77 0.443 0.261 0.977 0.415 1.546 0.415 0.492 0 0.956-0.115 1.369-0.319 0.45-0.224 0.844-0.455 1.219-0.711 0.123-0.058 0.23-0.22 0.23-0.406 0-0.101-0.031-0.194-0.084-0.271zM22.81 19.138h-4.932v-1.123h4.932zM22.81 16.303h-4.932v-1.145h4.932zM22.81 13.297h-4.932v-1.123h4.932zM15.483 15.352v-3.955c-0.285-0.076-0.625-0.135-0.972-0.167l-0.024 3.984c0.305 0.065 0.575 0.18 0.815 0.337zM8.039 15.304c0.168-0.081 0.364-0.134 0.571-0.146l0.105-0c0.002 0 0.004 0 0.005 0 0.625 0 1.165 0.364 1.419 0.892 0.089 0.188 0.139 0.398 0.139 0.619 0 0.149-0.023 0.293-0.064 0.428l1.406-0.010c0.066-0.305 0.182-0.575 0.34-0.815l-2.829-2.815c-0.448 0.526-0.817 1.138-1.077 1.804zM9.895 18.091c0.345 0.599 0.851 1.071 1.459 1.364l0.601-0.572c-0.149-0.227-0.262-0.492-0.325-0.776zM13.962 18.091v0c0 0 0 0 0 0-0.281 0-0.508-0.227-0.508-0.508 0-0.001 0-0.002 0-0.003v-1.299c-0.512 0.216-0.865 0.712-0.867 1.291 0.001 0.348 0.131 0.666 0.344 0.909l0.431-0.221c0.090-0.045 0.195-0.071 0.307-0.071 0.291 0 0.541 0.178 0.646 0.431l0.111 0.285c0.561-0.187 0.959-0.708 0.959-1.321 0-0.595-0.374-1.102-0.899-1.3l-0.010 1.302c-0.002 0.279-0.228 0.505-0.508 0.505-0.002 0-0.004 0-0.006-0zM9.109 16.517c0.076 0.163 0 0.362-0.182 0.561s-0.466 0.643-0.101 1.432c0.525 1.123 2.058 2.338 3.321 2.246 0.285-0.015 0.547-0.1 0.774-0.237 0.089-0.055 0.153-0.158 0.158-0.276-0.002-0.022-0.003-0.047-0.003-0.072 0-0.285 0.15-0.534 0.376-0.674 0.25 0.607 0.472 1.149 0.68 1.635l-0.561 0.037c-0.181 0.013-0.322 0.163-0.322 0.345 0 0.191 0.155 0.346 0.346 0.346 0.008 0 0.017-0 0.025-0.001l0.802-0.053q0.129 0.281 0.258 0.542l-0.5 0.034c-0.181 0.013-0.322 0.163-0.322 0.345 0 0.191 0.155 0.346 0.346 0.346 0.008 0 0.017-0 0.025-0.001l0.816-0.053c0.738 1.263 1.578 2.001 3.2 2.807 0.145 0.069 0.26 0.182 0.329 0.322l-0.172 0.004c-2.279-0.123-4.623-0.441-6.316-1.906l-0.893-0.778c-3.893-3.36-4.676-4.042-4.971-4.909 0.667-0.826 1.404-1.55 2.216-2.184 0.094-0.066 0.174-0.093 0.26-0.093 0.002 0 0.004 0 0.006 0 0.005-0 0.011-0 0.016-0 0.169 0 0.315 0.095 0.389 0.234zM7.121 21.569c-1.123-1.019-1.465-1.426-1.636-1.965 0.067-0.123 0.152-0.258 0.25-0.401 0.455 0.865 1.544 1.805 4.997 4.789l0.895 0.772c1.85 1.6 4.331 1.942 6.737 2.074h0.065c-0.166 0.134-0.379 0.217-0.611 0.222-0.034 0.002-0.073 0.003-0.112 0.003s-0.078-0.001-0.116-0.004q-0.357-0.019-0.722-0.047h-0.025c-0.545-0.042-1.086-0.101-1.62-0.191v0c-1.46-0.244-2.838-0.71-3.93-1.665l-2.9-2.498c-0.497-0.429-0.907-0.786-1.246-1.089v0zM10.226 25.746h-0.876c-0.29 0-0.525 0.235-0.525 0.525s0.235 0.525 0.525 0.525h2.305c-0.425-0.244-0.793-0.504-1.132-0.797zM6.375 22.411h-0.241c-0.29 0-0.525 0.235-0.525 0.525s0.235 0.525 0.525 0.525h1.446l-0.115-0.098c-0.429-0.368-0.789-0.682-1.089-0.952z"></path>
</svg>
