<!-- Generated by IcoMoon.io -->
<svg version="1.1" xmlns="http://www.w3.org/2000/svg" width="32" height="32" viewBox="0 0 32 32">
<title>icn-sport-kickboxing</title>
<path d="M25.3 19.281c-0.466 0.275-1.004 0.498-1.575 0.64-0.581 0.11-0.99 0.059-1.26-0.21l-1.3-1.294c-0.084-0.077-0.197-0.124-0.321-0.124-0.089 0-0.172 0.024-0.243 0.066l-1.449 0.928 0.764 1.081c0.059 0.097 0.093 0.214 0.093 0.34 0 0.226-0.113 0.426-0.285 0.546-0.108 0.097-0.249 0.155-0.404 0.155-0.187 0-0.355-0.086-0.465-0.22l-0.902-1.275-0.634 0.185 0.775 1.168c0.039 0.082 0.061 0.178 0.061 0.28 0 0.235-0.12 0.441-0.303 0.561-0.283 0.232-0.648 0.235-0.8 0.002l-0.82-1.235c-0.090-0.111-0.173-0.236-0.241-0.37l-4.314 0.92c-0.744 0.219-1.238 1.3-1.274 2.072l-0.056 1.14c-0.001 0.022-0.002 0.047-0.002 0.073 0 0.74 0.594 1.341 1.331 1.353l6.614 0.132 7.155 0.062c0.131-0.001 0.249-0.058 0.331-0.148 0.085-0.083 0.139-0.196 0.146-0.322l0.056-6.115c0-0.003 0-0.006 0-0.009 0-0.126-0.052-0.24-0.135-0.322-0.079-0.078-0.188-0.126-0.307-0.126-0.088 0-0.17 0.026-0.239 0.071zM24.488 25.263h-12.699c-0.31 0-0.561-0.251-0.561-0.561s0.251-0.561 0.561-0.561h12.699c0.31 0 0.561 0.251 0.561 0.561s-0.251 0.561-0.561 0.561zM8.999 23.439v0.281q-1.491-1.496-2.975-2.998c-0.191-0.171-0.311-0.418-0.311-0.694 0-0.258 0.105-0.491 0.274-0.659 0.561-0.584 0.938-0.946 1.488-1.493l2.79 2.79c-0.729 0.705-1.202 1.671-1.265 2.748zM19.832 17.173l-0.764 0.488c-0.206-0.16-0.389-0.324-0.56-0.499l-0.2-0.203c-0.32-0.323-0.648-0.651-0.98-0.977 0.139-0.107 0.263-0.216 0.378-0.334 1.297-1.325 1.238-3.369-0.134-4.758q-1.123-1.123-2.229-2.229c-0.273-0.272-0.585-0.506-0.928-0.691 1.601-2.077 4.282-2.166 6.208-0.364 1.359 1.272 2.675 2.596 3.952 3.952 1.578 1.684 1.707 4.065 0.109 5.752-0.435 0.455-0.969 0.811-1.568 1.035l-0.961-0.922c-0.339-0.335-0.805-0.542-1.32-0.542-0.001 0-0.002 0-0.003 0-0.002 0-0.005 0-0.007 0-0.37 0-0.714 0.109-1.002 0.296zM15.638 19.121l-4.109 0.898-3.742-3.739c-0.887-0.887-0.89-2.018 0-2.9l3.739-3.747c0.214-0.218 0.463-0.4 0.739-0.537 0.712-0.26 1.442-0.072 2.088 0.554q1.123 1.1 2.218 2.218c0.842 0.842 0.898 2.001 0.126 2.79-0.256 0.271-0.589 0.466-0.964 0.551-0.083 0.010-0.165 0.014-0.248 0.014-0.622 0-1.188-0.238-1.613-0.628-0.223-0.203-0.436-0.419-0.661-0.65l-0.34-0.359c-0.126-0.121-0.298-0.196-0.487-0.196-0.388 0-0.702 0.314-0.702 0.702 0 0.19 0.075 0.362 0.198 0.488l0.036 0.036 0.281 0.298 0.303 0.309c0.135 0.135 0.281 0.281 0.421 0.404 0.671 0.623 1.574 1.006 2.566 1.006 0.147 0 0.293-0.008 0.436-0.025l0.019 0.002c0.46 0.435 0.915 0.895 1.356 1.342l0.199 0.202c0.107 0.107 0.216 0.211 0.328 0.309l-0.062 0.039z"></path>
</svg>
