<!-- Generated by IcoMoon.io -->
<svg version="1.1" xmlns="http://www.w3.org/2000/svg" width="32" height="32" viewBox="0 0 32 32">
<title>icn-sport-rugby</title>
<path d="M22.876 7.261c0 0-4.954 0.642-10.081 5.769s-5.771 10.086-5.771 10.086c-0.296 1.201 0.449 1.963 1.645 1.637 0 0 4.954-0.642 10.081-5.769s5.771-10.086 5.771-10.086c0.296-1.201-0.449-1.963-1.645-1.637zM11.803 12.038c2.374-2.374 4.896-4.036 7.405-5.106 0.759-0.323 1.47-0.57 2.127-0.755-3.189-0.035-7.748 1.017-10.948 4.217-3.027 3.027-4.131 7.27-4.213 10.419 0.147-0.437 0.319-0.892 0.521-1.366 1.071-2.511 2.733-5.034 5.107-7.408zM25.707 10.074c-0.003 0.010-0.005 0.019-0.007 0.029-0.193 0.748-0.471 1.576-0.85 2.466-1.071 2.511-2.733 5.034-5.107 7.408s-4.896 4.036-7.405 5.106c-0.614 0.262-1.196 0.472-1.745 0.643 3.187 0.026 7.723-1.030 10.911-4.217 3.366-3.366 4.356-8.238 4.203-11.435z"></path>
</svg>
