<!-- Generated by IcoMoon.io -->
<svg version="1.1" xmlns="http://www.w3.org/2000/svg" width="32" height="32" viewBox="0 0 32 32">
<title>icn-sport-running</title>
<path d="M13.389 6.762c0.070 0.281-0.095 0.589-0.466 0.842s-0.949 0.898-0.606 2.293c0.491 2.004 2.58 4.418 4.64 4.682 0.101 0.014 0.219 0.021 0.338 0.021 0.341 0 0.668-0.063 0.969-0.179 0.161-0.056 0.298-0.201 0.346-0.383 0.178-0.751 0.545-1.014 0.843-1.099 0.208 1.064 0.396 2.010 0.578 2.863l-0.898-0.109c-0.021-0.003-0.045-0.004-0.069-0.004-0.312 0-0.566 0.253-0.566 0.566 0 0.288 0.215 0.526 0.494 0.561l1.308 0.16q0.121 0.502 0.247 0.96l-0.814-0.098c-0.021-0.003-0.045-0.004-0.069-0.004-0.312 0-0.566 0.253-0.566 0.566 0 0.288 0.215 0.526 0.494 0.561l1.322 0.16c0.792 2.274 1.914 3.733 4.275 5.533 0.208 0.153 0.361 0.371 0.43 0.624-0.088 0.008-0.181-0.023-0.279-0.048-3.627-0.904-7.298-2.139-9.561-5.033l-1.199-1.53c-5.207-6.65-6.262-7.997-6.456-9.493 1.387-1.168 3.183-2.375 4.314-2.886 0.084-0.040 0.182-0.063 0.285-0.063 0.027 0 0.054 0.002 0.080 0.005 0.283 0.046 0.511 0.255 0.582 0.528zM8.618 14.341c-1.51-2.001-1.912-2.765-2.021-3.68 0.149-0.18 0.326-0.373 0.528-0.561 0.463 1.544 1.92 3.402 6.546 9.311l1.207 1.502c2.479 3.166 6.358 4.491 10.184 5.44l0.101 0.022c-0.226 0.124-0.495 0.197-0.781 0.197-0.096 0-0.19-0.008-0.282-0.024-0.128-0.016-0.249-0.040-0.367-0.071q-0.558-0.139-1.133-0.296h-0.028c-0.862-0.236-1.718-0.5-2.546-0.808v0c-2.268-0.842-4.342-2.027-5.819-3.913-0.957-1.221-1.785-2.274-2.518-3.214l-1.381-1.757c-0.668-0.842-1.215-1.558-1.665-2.153v0zM7.669 15.262c-0.215-0.032-0.388-0.182-0.454-0.381l-1.124-0.004c-0.374 0-0.676 0.303-0.676 0.677s0.303 0.676 0.676 0.676h2.554c-0.281-0.357-0.533-0.685-0.766-0.991-0.037 0.009-0.079 0.014-0.123 0.014-0.027 0-0.053-0.002-0.079-0.006zM11.492 19.837h-2.394c-0.374 0-0.677 0.303-0.677 0.677s0.303 0.677 0.677 0.677h3.155c-0-0.007-0-0.014-0-0.022 0-0.1 0.026-0.194 0.072-0.275zM17.364 25.311c-0.097 0.083-0.225 0.134-0.364 0.134-0.101 0-0.196-0.027-0.279-0.074-0.161-0.094-0.271-0.267-0.278-0.466l-7.377-0.001c-0.374 0-0.677 0.303-0.677 0.677s0.303 0.677 0.677 0.677h9.968c-0.033-0.064-0.054-0.138-0.059-0.217-0.547-0.215-1.089-0.462-1.611-0.729z"></path>
</svg>
