<!-- Generated by IcoMoon.io -->
<svg version="1.1" xmlns="http://www.w3.org/2000/svg" width="32" height="32" viewBox="0 0 32 32">
<title>icn-sport-basketball</title>
<path d="M12.377 19.436c-1.913-1.704-4.268-2.524-6.482-2.451 0.107 2.433 1.072 4.642 2.602 6.331l3.88-3.88zM13.358 20.439l-3.85 3.85c1.666 1.394 3.787 2.259 6.109 2.343 0.074-2.117-0.694-4.355-2.259-6.193zM23.741 10.056l-4.008 4.008c1.861 1.723 4.167 2.588 6.358 2.588 0.001-0.039 0.003-0.077 0.003-0.116 0-2.466-0.885-4.725-2.353-6.48zM17.775 14.037c-1.873-2.233-2.734-4.993-2.508-7.579-2.325 0.164-4.433 1.112-6.059 2.585l6.781 6.78 1.786-1.786zM14.354 19.444c1.818 2.093 2.73 4.673 2.669 7.145 2.062-0.21 3.94-1.040 5.446-2.3l-6.48-6.48-1.635 1.635zM18.77 13.042l3.999-3.999c-1.634-1.479-3.754-2.429-6.091-2.587-0.232 2.215 0.481 4.618 2.092 6.586zM14.996 16.816l-6.76-6.76c-1.276 1.524-2.109 3.43-2.306 5.522 2.57-0.061 5.27 0.904 7.441 2.865l1.626-1.626zM18.74 15.057l-1.759 1.759 6.5 6.5c1.302-1.438 2.196-3.253 2.499-5.261-2.519-0.031-5.135-1.033-7.231-2.988-0.003-0.003-0.006-0.006-0.010-0.010z"></path>
</svg>
