<!-- Generated by IcoMoon.io -->
<svg version="1.1" xmlns="http://www.w3.org/2000/svg" width="32" height="32" viewBox="0 0 32 32">
<title>icn-sport-boxing</title>
<path d="M6.818 21.384l3.711 3.708c-0.306 0.303-0.5 0.505-0.822 0.817-0.109 0.135-0.276 0.221-0.462 0.221s-0.352-0.086-0.461-0.22q-1.427-1.405-2.836-2.847c-0.107-0.102-0.173-0.246-0.173-0.406 0-0.152 0.061-0.291 0.159-0.392 0.331-0.342 0.558-0.556 0.884-0.881zM13.109 21.44l-0.427-0.424-0.379-0.373c-0.027 0.010-0.063 0.021-0.099 0.029l-0.094 0.002h-0.216c-0.010 0-0.021 0-0.033 0-0.692 0-1.321-0.267-1.79-0.703-0.203-0.187-0.4-0.383-0.588-0.577-0.065-0.098-0.104-0.219-0.104-0.349 0-0.352 0.285-0.637 0.637-0.637 0.139 0 0.268 0.045 0.373 0.12 0.181 0.187 0.355 0.364 0.531 0.524 0.246 0.232 0.578 0.374 0.943 0.374 0.037 0 0.073-0.001 0.108-0.004 0.176-0.052 0.33-0.15 0.449-0.28 0.405-0.416 0.366-0.989-0.103-1.463q-0.876-0.884-1.763-1.763c-0.078-0.021-0.167-0.033-0.258-0.033-0.128 0-0.25 0.024-0.363 0.066-0.162 0.087-0.307 0.199-0.43 0.331l-2.227 2.227c-0.242 0.21-0.394 0.518-0.394 0.862s0.152 0.652 0.392 0.861l4.198 4.192c0.207 0.235 0.509 0.383 0.845 0.383 0.32 0 0.609-0.134 0.814-0.349 0.736-0.722 1.168-1.16 1.845-1.839-0.684-0.193-1.268-0.552-1.728-1.032zM26.136 22.282c-0.328-0.348-0.561-0.561-0.884-0.887l-3.711 3.697c0.306 0.303 0.5 0.505 0.822 0.817 0.109 0.135 0.276 0.221 0.462 0.221s0.352-0.086 0.461-0.22q1.427-1.405 2.836-2.847c0.105-0.102 0.17-0.245 0.17-0.403 0-0.151-0.060-0.288-0.157-0.389zM24.794 18.495l-2.226-2.215c-0.127-0.129-0.276-0.237-0.44-0.319-0.115-0.045-0.238-0.068-0.366-0.068-0.092 0-0.181 0.012-0.266 0.035q-0.88 0.863-1.756 1.756c-0.469 0.474-0.511 1.047-0.104 1.462 0.12 0.13 0.274 0.228 0.448 0.279 0.038 0.004 0.074 0.006 0.111 0.006 0.365 0 0.698-0.143 0.944-0.375 0.176-0.159 0.35-0.336 0.533-0.524 0.116-0.118 0.277-0.192 0.456-0.192 0.352 0 0.638 0.286 0.638 0.638 0 0.174-0.069 0.331-0.182 0.446-0.188 0.191-0.382 0.39-0.589 0.578-0.468 0.435-1.097 0.702-1.789 0.702-0.012 0-0.023-0-0.035-0l-0.301 0c-0.044-0.010-0.079-0.021-0.114-0.033l-0.371 0.376-0.427 0.424-0.135 0.138c-0.461 0.481-1.045 0.84-1.702 1.026 0.647 0.683 1.082 1.129 1.817 1.845 0.204 0.208 0.488 0.338 0.803 0.338 0.342 0 0.649-0.153 0.855-0.395l4.195-4.212c0.24-0.21 0.39-0.517 0.39-0.859 0-0.341-0.149-0.646-0.386-0.855zM17.468 21.022c0.447-0.32 0.838-0.669 1.187-1.057-0.836-0.922-0.758-2.252 0.177-3.19q0.884-0.893 1.78-1.78c-0.977-0.954-2.406-0.921-3.455 0.065q-0.561 0.533-1.123 1.089-0.561-0.561-1.123-1.089c-1.050-0.985-2.479-1.019-3.455-0.065q0.895 0.884 1.78 1.78c0.938 0.946 1.002 2.268 0.171 3.183 0.354 0.397 0.744 0.748 1.169 1.055l0.021 0.015c0.249 0.172 0.542 0.3 0.858 0.365 0.139 0.028 0.257 0.053 0.363 0.064 0.029 0.003 0.064 0.004 0.098 0.004s0.069-0.002 0.103-0.005l0.024 0c0.029 0.003 0.064 0.004 0.098 0.004s0.069-0.002 0.103-0.005c0.102 0 0.22-0.036 0.347-0.061 0.331-0.068 0.624-0.196 0.881-0.373zM14.296 9.825c0.171-0.129 0.281-0.333 0.281-0.561 0-0.159-0.053-0.305-0.142-0.423l-1.585-2.104c-0.129-0.171-0.333-0.281-0.561-0.281-0.388 0-0.702 0.314-0.702 0.702 0 0.159 0.053 0.305 0.142 0.423l1.585 2.115c0.129 0.171 0.333 0.281 0.561 0.281 0.159 0 0.305-0.053 0.423-0.142zM19.222 9.684l1.586-2.105c0.088-0.116 0.14-0.262 0.14-0.421 0-0.388-0.314-0.702-0.702-0.702-0.229 0-0.432 0.109-0.56 0.279l-1.587 2.118c-0.088 0.116-0.14 0.262-0.14 0.421 0 0.388 0.314 0.702 0.702 0.702 0.229 0 0.432-0.11 0.56-0.279z"></path>
</svg>
