<!-- Generated by IcoMoon.io -->
<svg version="1.1" xmlns="http://www.w3.org/2000/svg" width="32" height="32" viewBox="0 0 32 32">
<title>icn-sport-martial-arts</title>
<path d="M16.095 8.845l-2.462-2.462h4.573zM10.7 11.413c0-0.31 0.251-0.561 0.561-0.561s0.561 0.251 0.561 0.561v1.94h0.281l3.248-3.809-3.119-3.006-1.246 0.623c-0.34 0.172-0.619 0.42-0.823 0.722l-3.592 5.389c-0.098 0.145-0.157 0.323-0.157 0.515 0 0.263 0.11 0.5 0.285 0.669 1.098 1.015 2.443 1.78 3.933 2.196zM25.148 13.272l-3.587-5.381c-0.209-0.31-0.488-0.558-0.816-0.724l-1.323-0.66-2.782 3.276c-0.036 0.074-0.089 0.136-0.153 0.181l-2.881 3.392h6.302v-1.869c0-0.31 0.251-0.561 0.561-0.561s0.561 0.251 0.561 0.561v5.176c1.553-0.432 2.893-1.195 3.995-2.212 0.17-0.163 0.279-0.4 0.279-0.663 0-0.192-0.059-0.371-0.159-0.519zM17.707 19.065v1.404c0 0.31-0.251 0.561-0.561 0.561s-0.561-0.251-0.561-0.561v-1.404h-0.887v3.248c0 0.31-0.251 0.561-0.561 0.561s-0.561-0.251-0.561-0.561v-3.248h-2.655v6.456c0.005 0.391 0.322 0.706 0.713 0.707h6.737c0.395 0 0.716-0.32 0.716-0.716v-6.456zM20.034 18.246v-3.475h-8.067v3.475z"></path>
</svg>
