<svg width="24" height="24" viewBox="0 0 24 24" xmlns="http://www.w3.org/2000/svg">
<path d="M13.9714 3.05405C13.5493 3.05405 13.1444 3.22113 12.8459 3.51854C12.5474 3.81595 12.3797 4.21933 12.3797 4.63993C12.3797 5.06053 12.5474 5.46391 12.8459 5.76132C13.1444 6.05873 13.5493 6.22582 13.9714 6.22582C14.8548 6.22582 15.5632 5.5201 15.5632 4.63993C15.5632 4.21933 15.3955 3.81595 15.097 3.51854C14.7984 3.22113 14.3936 3.05405 13.9714 3.05405ZM9.14831 0.874826C9.00009 0.504291 8.49709 0.451915 8.27572 0.783965C8.19826 0.900157 8.1734 1.04364 8.20727 1.17911L8.60853 2.78416C8.94612 4.13451 9.56189 5.39951 10.4164 6.49821L11.3754 7.7312V9.664L8.73567 8.49077C8.56896 8.41668 8.43663 8.28202 8.36545 8.11405L6.86308 4.56859C6.634 4.02801 5.86092 4.04856 5.66089 4.60055C5.60688 4.74962 5.60957 4.91335 5.66845 5.06056L7.12124 8.69254C7.37287 9.3216 7.83001 9.84696 8.41826 10.1831L11.4452 11.9128C11.7935 12.1118 11.9892 12.4997 11.9422 12.8981L11.6976 14.973L10.4659 19.6998C10.3451 20.1636 10.6951 20.6165 11.1744 20.6165C11.4873 20.6165 11.7657 20.4176 11.8671 20.1216L13.6304 14.973L14.3315 11.6079L14.5968 7.96038L19.8811 6.8067C20.004 6.77987 20.1112 6.70533 20.1792 6.59947C20.3949 6.26338 20.1243 5.82733 19.7274 5.87152L14.5968 6.44266H14.0841C13.37 6.44266 12.6737 6.21954 12.0926 5.80448C11.2037 5.1695 10.5155 4.29286 10.1098 3.27855L9.14831 0.874826Z" />
<path d="M3.2862 3.52364L3.40182 3.58471C3.34884 3.73198 3.3104 3.97821 3.61681 4.02902C3.87016 4.07103 4.11335 4.07819 4.36085 4.14171C4.51222 4.18056 4.65239 4.24278 4.77678 4.32435L4.87758 4.15824C4.8922 4.13415 4.91568 4.11739 4.94182 4.10977C4.96796 4.10216 4.99677 4.10369 5.02204 4.11616C5.07258 4.14111 5.08985 4.2004 5.06061 4.24859L4.9464 4.43681C4.94382 4.44106 4.94088 4.44499 4.93779 4.44877C4.97684 4.48413 5.01358 4.52174 5.0478 4.56143L5.13194 4.42277C5.14656 4.39867 5.17004 4.38191 5.19618 4.3743C5.22232 4.36668 5.25113 4.36821 5.2764 4.38069C5.32694 4.40563 5.34421 4.46493 5.31497 4.51312L5.20076 4.70134C5.19419 4.71216 5.18578 4.7214 5.17621 4.72909C5.20851 4.77415 5.24161 4.82231 5.274 4.87237L5.38131 4.69552C5.39593 4.67143 5.41941 4.65467 5.44555 4.64705C5.4717 4.63944 5.50051 4.64097 5.52577 4.65344C5.57632 4.67839 5.59359 4.73768 5.56435 4.78587L5.45013 4.97409C5.43322 5.00197 5.40442 5.01994 5.37337 5.02538C5.45779 5.12104 5.60149 5.15772 5.73432 5.10998C5.95707 5.02991 6.25784 4.87011 6.44278 4.56105C6.47903 4.50048 6.4923 4.43118 6.48137 4.3645C6.4644 4.26094 6.44603 4.07926 6.47912 3.88462C6.51791 3.65642 6.4767 3.42625 6.35202 3.23431C6.35185 3.23403 6.35167 3.23376 6.35149 3.23349C6.32068 3.18616 6.26325 3.15996 6.20246 3.16438C5.95846 3.18212 5.30513 3.22682 5.15214 3.20865C5.01631 3.19252 4.59997 3.19176 4.32474 3.23026C4.32415 3.22661 4.3234 3.22295 4.32234 3.21932L4.20116 2.80331L5.62572 2.38836L5.72871 2.74193L5.60821 2.77703C5.58421 2.78402 5.56643 2.80363 5.5634 2.82666C5.55794 2.86826 5.54562 2.93873 5.51945 3.00956C5.68588 3.00233 5.91165 2.98913 6.19579 2.96847C6.20169 2.96804 6.20756 2.96778 6.21342 2.96761C6.1689 2.88183 6.12513 2.78202 6.10814 2.69507C6.10181 2.66266 6.06691 2.64341 6.03235 2.65348L5.93301 2.68241L5.83002 2.32884L6.44452 2.14984C6.50094 2.13341 6.53446 2.07816 6.5194 2.02644C6.50433 1.97473 6.44638 1.94613 6.38997 1.96256L3.38833 2.8369C3.38322 2.83839 3.37815 2.83995 3.37313 2.84159C3.2209 2.89109 3.11396 3.01402 3.09404 3.16241C3.0738 3.31334 3.14742 3.45175 3.2862 3.52364ZM3.30387 3.17772C3.3134 3.10671 3.36226 3.05027 3.43457 3.02675C3.43732 3.02586 3.44009 3.025 3.44289 3.02419L3.99686 2.86282L4.11804 3.27882L3.55166 3.4438L3.39564 3.35092C3.31636 3.30985 3.29624 3.23452 3.30387 3.17772Z" />
<path d="M12.2039 22.9338L12.1637 22.8093C12.3045 22.7409 12.504 22.5915 12.3202 22.3412C12.1682 22.1342 11.9991 21.9592 11.8663 21.7409C11.7851 21.6074 11.7282 21.465 11.6962 21.3197L11.508 21.3682C11.4807 21.3752 11.4522 21.3708 11.4282 21.358C11.4041 21.3452 11.3846 21.324 11.3752 21.2974C11.3565 21.2443 11.3855 21.1898 11.4401 21.1757L11.6533 21.1208C11.6581 21.1195 11.6629 21.1188 11.6678 21.1182C11.6645 21.0656 11.6645 21.0131 11.6677 20.9607L11.5107 21.0012C11.4834 21.0083 11.4549 21.0039 11.4308 20.9911C11.4068 20.9783 11.3873 20.957 11.3779 20.9305C11.3591 20.8773 11.3882 20.8228 11.4428 20.8087L11.656 20.7538C11.6682 20.7506 11.6807 20.7499 11.6929 20.7511C11.7013 20.6963 11.7112 20.6387 11.723 20.5802L11.5227 20.6319C11.4954 20.6389 11.4669 20.6345 11.4428 20.6217C11.4188 20.6089 11.3993 20.5877 11.3899 20.5611C11.3711 20.5079 11.4002 20.4534 11.4548 20.4394L11.6679 20.3844C11.6995 20.3763 11.7327 20.3835 11.7587 20.4013C11.7651 20.2739 11.6879 20.1473 11.5594 20.0887C11.3441 19.9904 11.0172 19.8948 10.669 19.9868C10.6008 20.0049 10.5429 20.0452 10.5041 20.1006C10.444 20.1865 10.3302 20.3294 10.1706 20.4456C9.98348 20.5819 9.85223 20.7754 9.80743 20.9998C9.80737 21.0001 9.8073 21.0005 9.80724 21.0008C9.79625 21.0562 9.81905 21.115 9.86565 21.1543C10.0527 21.312 10.5515 21.7363 10.6483 21.8561C10.7343 21.9625 11.0318 22.2538 11.2556 22.4185C11.2535 22.4215 11.2515 22.4247 11.2497 22.428L11.0459 22.8104L9.73651 22.1125L9.90972 21.7875L10.0205 21.8466C10.0425 21.8583 10.069 21.8567 10.0872 21.8423C10.1202 21.8164 10.1782 21.7745 10.2464 21.7421C10.1222 21.6311 9.95141 21.4829 9.7336 21.2992C9.72908 21.2954 9.7247 21.2915 9.72038 21.2875C9.69235 21.38 9.65397 21.482 9.60541 21.5561C9.58731 21.5837 9.59885 21.6219 9.63061 21.6388L9.72192 21.6875L9.54872 22.0125L8.98388 21.7114C8.93203 21.6838 8.86945 21.6999 8.84412 21.7475C8.81878 21.795 8.84028 21.8559 8.89214 21.8836L11.6512 23.354C11.6559 23.3565 11.6606 23.3589 11.6653 23.3612C11.8089 23.4321 11.9712 23.4188 12.0891 23.3265C12.209 23.2326 12.253 23.0821 12.2039 22.9338ZM11.9496 23.169C11.8932 23.2132 11.8188 23.2195 11.7507 23.1858C11.7481 23.1845 11.7455 23.1832 11.7429 23.1818L11.2337 22.9105L11.4375 22.5281L11.9581 22.8055L12.0049 22.981C12.033 23.0657 11.9948 23.1337 11.9496 23.169Z" />
</svg>
