<!-- Generated by IcoMoon.io -->
<svg version="1.1" xmlns="http://www.w3.org/2000/svg" width="32" height="32" viewBox="0 0 32 32">
<title>icn-sport-cricket</title>
<path d="M16.677 23.537c-0.142 0.003-0.279 0.019-0.411 0.045l0.083 0.2-0.312 0.104-0.073-0.225c-0.214 0.073-0.4 0.168-0.569 0.286l0.125 0.158-0.261 0.185-0.112-0.157c-0.125 0.109-0.238 0.227-0.338 0.354l0.136 0.087-0.149 0.281-0.171-0.095c-0.086 0.144-0.165 0.311-0.227 0.486l0.174 0.034-0.037 0.32-0.244-0.022c-0.035 0.127-0.067 0.284-0.088 0.445 0.001 0.018 0.003 0.018 0.006 0.018 0.68 0 1.296-0.277 1.74-0.724 0.449-0.439 0.728-1.051 0.728-1.729 0-0.017-0-0.034-0.001-0.051zM13.973 25.558l-0.219-0.014 0.037-0.32 0.281 0.031c0.081-0.241 0.176-0.448 0.29-0.642l-0.239-0.11 0.149-0.281 0.253 0.135c0.127-0.179 0.272-0.334 0.436-0.465l-0.144-0.211 0.261-0.185 0.14 0.202c0.187-0.121 0.401-0.225 0.629-0.3l-0.048-0.191 0.306-0.098 0.073 0.208c0.133-0.030 0.293-0.054 0.457-0.067-0.066-0.555-0.32-1.039-0.692-1.404-0.369-0.367-0.851-0.619-1.39-0.698-0.025 0.172-0.049 0.332-0.085 0.488l0.243 0.052-0.112 0.314-0.222-0.073c-0.083 0.242-0.187 0.452-0.313 0.646l0.254 0.163-0.185 0.261-0.239-0.163c-0.135 0.159-0.281 0.301-0.44 0.427l0.151 0.286-0.281 0.149-0.149-0.281c-0.173 0.103-0.374 0.197-0.584 0.273l0.003 0.305-0.32 0.037-0.022-0.247c-0.157 0.037-0.32 0.067-0.5 0.098 0.078 0.56 0.333 1.050 0.705 1.423 0.372 0.375 0.866 0.629 1.417 0.698 0.032-0.168 0.064-0.319 0.107-0.465zM11.728 23.571c0.183-0.023 0.346-0.057 0.505-0.104l-0.036-0.202 0.32-0.037v0.14c0.19-0.068 0.352-0.144 0.506-0.232l-0.074-0.119 0.281-0.149 0.067 0.112c0.127-0.1 0.239-0.208 0.34-0.325l-0.132-0.093 0.185-0.261 0.14 0.095c0.105-0.161 0.199-0.346 0.274-0.541l-0.187-0.079 0.104-0.314 0.18 0.059c0.022-0.171 0.037-0.32 0.045-0.418-0.011-0-0.024-0-0.037-0-1.366 0-2.473 1.107-2.473 2.473 0 0.001 0 0.002 0 0.003zM25.847 7.183v0l-0.393 0.396zM26.102 6.928l-0.255 0.255-6.22 6.035c-0.033 0.033-0.053 0.078-0.053 0.128s0.020 0.095 0.053 0.128l0.435 0.435c0.114 0.114 0.184 0.271 0.184 0.445s-0.070 0.331-0.184 0.445l-4.977 4.997c-0.268-0.067-0.576-0.105-0.894-0.105-2.132 0-3.86 1.728-3.86 3.86 0 0.321 0.039 0.633 0.113 0.931l-1.325 1.298c-0.114 0.114-0.271 0.184-0.445 0.184s-0.331-0.070-0.445-0.184l-2.161-2.161c-0.114-0.114-0.184-0.271-0.184-0.445s0.071-0.331 0.184-0.445l10.947-10.984c0.114-0.114 0.271-0.184 0.445-0.184s0.331 0.070 0.445 0.184l0.435 0.435c0.033 0.033 0.078 0.053 0.128 0.053s0.095-0.020 0.128-0.053l6.456-6.271c0.133-0.138 0.32-0.223 0.526-0.223 0.404 0 0.732 0.328 0.732 0.732 0 0.197-0.078 0.377-0.205 0.508z"></path>
</svg>
