<!-- Generated by IcoMoon.io -->
<svg version="1.1" xmlns="http://www.w3.org/2000/svg" width="32" height="32" viewBox="0 0 32 32">
<title>icn-sport-bowling</title>
<path d="M16 26.105c5.581 0 10.105-4.524 10.105-10.105s-4.524-10.105-10.105-10.105c-5.581 0-10.105 4.524-10.105 10.105s4.524 10.105 10.105 10.105zM18.246 11.649c-0.698 0-1.263-0.566-1.263-1.263s0.566-1.263 1.263-1.263c0.698 0 1.263 0.566 1.263 1.263s-0.566 1.263-1.263 1.263zM21.754 14.175c-0.698 0-1.263-0.566-1.263-1.263s0.566-1.263 1.263-1.263c0.698 0 1.263 0.566 1.263 1.263s-0.566 1.263-1.263 1.263zM17.965 15.719c-0.698 0-1.263-0.566-1.263-1.263s0.566-1.263 1.263-1.263c0.698 0 1.263 0.566 1.263 1.263s-0.566 1.263-1.263 1.263z"></path>
</svg>
