<!-- Generated by IcoMoon.io -->
<svg version="1.1" xmlns="http://www.w3.org/2000/svg" width="32" height="32" viewBox="0 0 32 32">
<title>icn-sport-skiing</title>
<path d="M15.096 12.789l-8.255 8.264c-0.209 0.209-0.338 0.498-0.338 0.817s0.129 0.608 0.338 0.817l0.025 0.025c0.209 0.209 0.498 0.338 0.817 0.338s0.608-0.129 0.817-0.338l9.328-9.336zM11.672 18.807c-0.121 0.129-0.292 0.209-0.482 0.209-0.169 0-0.323-0.063-0.439-0.168l-0.025-0.025c-0.117-0.125-0.19-0.293-0.19-0.479s0.072-0.354 0.19-0.479l0.404-0.404 0.94 0.943zM14.633 15.851l-0.94-0.94 0.458-0.458c0.113-0.104 0.265-0.168 0.431-0.168 0.187 0 0.356 0.081 0.472 0.21l0.026 0.026c0.117 0.109 0.189 0.264 0.189 0.435s-0.073 0.326-0.189 0.435zM7.579 15.121c0.101 0.117 0.249 0.19 0.415 0.19 0.302 0 0.547-0.245 0.547-0.547 0-0.166-0.073-0.314-0.19-0.414l-0.211-0.211 5.21-5.215c0.029 0.004 0.063 0.007 0.097 0.007 0.207 0 0.393-0.091 0.52-0.236l1.354-1.354c0.149-0.149 0.242-0.355 0.242-0.582 0-0.454-0.368-0.823-0.823-0.823-0.227 0-0.432 0.092-0.581 0.24l-1.353 1.353c-0.15 0.167-0.242 0.388-0.244 0.631l-5.201 5.205-0.177-0.171c-0.095-0.082-0.22-0.132-0.357-0.132-0.302 0-0.547 0.245-0.547 0.547 0 0.137 0.050 0.262 0.133 0.358l0.176 0.176-0.87 0.87c-0.082 0.095-0.132 0.22-0.132 0.357 0 0.302 0.245 0.547 0.547 0.547 0.137 0 0.262-0.050 0.358-0.133l0.869-0.87zM21.412 9.791c0.209-0.209 0.338-0.498 0.338-0.817s-0.129-0.608-0.338-0.817l-0.025-0.017c-0.209-0.209-0.498-0.338-0.817-0.338s-0.608 0.129-0.817 0.338l-1.471 1.471 2.731 0.587zM20.048 13.336l0.587 2.731 0.926-0.926-0.587-2.731-0.926 0.926zM18.916 14.467l-9.325 9.325c-0.209 0.209-0.338 0.498-0.338 0.817s0.129 0.608 0.338 0.817l0.025 0.025c0.209 0.209 0.498 0.338 0.817 0.338s0.608-0.129 0.817-0.338l8.253-8.253zM14.425 21.561c-0.125 0.117-0.293 0.19-0.479 0.19s-0.354-0.072-0.479-0.19l-0.025-0.025c-0.105-0.116-0.17-0.271-0.17-0.442 0-0.186 0.077-0.354 0.2-0.473l0.413-0.41 0.94 0.94zM17.839 18.145l-0.458 0.458-0.94-0.94 0.458-0.458c0.109-0.116 0.264-0.189 0.435-0.189s0.326 0.073 0.435 0.189l0.026 0.026c0.134 0.117 0.217 0.289 0.217 0.479 0 0.169-0.066 0.322-0.173 0.436zM26.088 16.949c-0.148-0.148-0.353-0.24-0.58-0.24s-0.431 0.092-0.58 0.24l-1.35 1.353c-0.15 0.167-0.242 0.388-0.244 0.631l-5.204 5.207-0.166-0.185c-0.1-0.102-0.239-0.164-0.393-0.164-0.305 0-0.552 0.247-0.552 0.552 0 0.151 0.061 0.288 0.159 0.387l0.177 0.177-0.87 0.87c-0.082 0.095-0.132 0.22-0.132 0.357 0 0.302 0.245 0.547 0.547 0.547 0.137 0 0.262-0.050 0.358-0.133l0.869-0.87 0.211 0.211c0.095 0.082 0.22 0.132 0.357 0.132 0.302 0 0.547-0.245 0.547-0.547 0-0.137-0.050-0.262-0.133-0.358l-0.21-0.21 5.218-5.215c0.029 0.004 0.063 0.007 0.097 0.007 0.207 0 0.393-0.091 0.52-0.236l1.354-1.354c0.148-0.148 0.24-0.353 0.24-0.58s-0.092-0.431-0.24-0.58zM19.882 11.321l-2.731-0.587-0.924 0.926 2.731 0.587 0.924-0.926zM24.163 12.539c0.209-0.209 0.338-0.498 0.338-0.817s-0.129-0.608-0.338-0.817l-0.022-0.025c-0.209-0.209-0.498-0.338-0.817-0.338s-0.608 0.129-0.817 0.338l-0.399 0.399 0.587 2.731z"></path>
</svg>
