<!-- Generated by IcoMoon.io -->
<svg version="1.1" xmlns="http://www.w3.org/2000/svg" width="32" height="32" viewBox="0 0 32 32">
<title>icn-sport-tennis</title>
<path d="M11.623 13.589c2.041-2.041 2.765-4.884 2.164-7.449-4.503 1.006-7.871 5.014-7.892 9.815 2.056 0.015 4.136-0.774 5.729-2.366zM18.463 25.801c4.381-1.098 7.628-5.055 7.64-9.774-1.97 0.052-3.942 0.84-5.467 2.364-2.030 2.030-2.757 4.855-2.173 7.409zM19.644 17.399c1.773-1.773 4.066-2.698 6.365-2.773-0.67-4.931-4.895-8.732-10.010-8.732-0.277 0-0.55 0.014-0.821 0.036 0.662 2.994-0.197 6.286-2.562 8.651-1.841 1.841-4.242 2.769-6.628 2.778 0.665 4.937 4.892 8.745 10.012 8.745 0.366 0 0.727-0.020 1.082-0.058-0.66-2.993 0.199-6.283 2.563-8.647z"></path>
</svg>
