<!-- Generated by IcoMoon.io -->
<svg version="1.1" xmlns="http://www.w3.org/2000/svg" width="32" height="32" viewBox="0 0 32 32">
<title>icn-sport-kickball</title>
<path d="M28.592 24.51h-12.714c-0.31 0-0.561-0.251-0.561-0.561s0.251-0.561 0.561-0.561h12.714c0.31 0 0.561 0.251 0.561 0.561s-0.251 0.561-0.561 0.561zM29.402 18.541c-0.47 0.264-1.080 0.544-1.618 0.653-0.538 0.102-0.948 0.052-1.219-0.22l-1.298-1.298c-0.145-0.145-0.4-0.174-0.575-0.060l-1.451 0.93 0.763 1.079c0.186 0.264 0.1 0.66-0.193 0.887s-0.682 0.196-0.868-0.068l-0.901-1.275-0.635 0.186 0.776 1.169c0.153 0.23 0.044 0.604-0.245 0.835s-0.646 0.232-0.799 0.002l-0.82-1.235c-0.081-0.121-0.176-0.247-0.231-0.385l-4.309 0.942c-0.744 0.218-1.237 1.3-1.275 2.071l-0.056 1.139c-0.038 0.773 0.559 1.412 1.332 1.427l6.613 0.132c0.178 0.004 7.155 0.063 7.155 0.063 0.124 0.006 0.244-0.053 0.334-0.142 0.086-0.086 0.141-0.203 0.146-0.322l0.056-6.112c0.001-0.101-0.029-0.224-0.136-0.331-0.165-0.165-0.373-0.163-0.544-0.068zM15.068 12.567h2.105c0.373 0 0.678-0.305 0.678-0.678s-0.305-0.678-0.678-0.678h-2.105c-0.373 0-0.678 0.305-0.678 0.678s0.305 0.678 0.678 0.678zM15.068 14.69h2.105c0.373 0 0.678-0.305 0.678-0.678s-0.305-0.678-0.678-0.678h-2.105c-0.373 0-0.678 0.305-0.678 0.678s0.305 0.678 0.678 0.678zM12.779 11.219c-0.373 0-0.678 0.305-0.678 0.678v2.105c0 0.373 0.305 0.678 0.678 0.678s0.678-0.305 0.678-0.678v-2.105c0-0.373-0.305-0.678-0.678-0.678zM10.656 14.681c0.373 0 0.678-0.305 0.678-0.678v-2.105c0-0.373-0.305-0.678-0.678-0.678s-0.678 0.305-0.678 0.678v2.105c0 0.373 0.305 0.678 0.678 0.678zM23.875 12.567h0.379c-0.152-0.461-0.34-0.905-0.564-1.327-0.283 0.082-0.493 0.341-0.493 0.649 0 0.373 0.305 0.678 0.678 0.678zM23.875 14.69h0.787c-0.029-0.463-0.096-0.916-0.197-1.357h-0.591c-0.373 0-0.678 0.305-0.678 0.678s0.305 0.678 0.678 0.678zM22.264 11.898c0-0.373-0.305-0.678-0.678-0.678s-0.678 0.305-0.678 0.678v2.105c0 0.373 0.305 0.678 0.678 0.678s0.678-0.305 0.678-0.678v-2.105zM19.463 14.681c0.373 0 0.678-0.305 0.678-0.678v-2.105c0-0.373-0.305-0.678-0.678-0.678s-0.678 0.305-0.678 0.678v2.105c0 0.373 0.305 0.678 0.678 0.678zM9.045 11.889c0-0.309-0.21-0.568-0.493-0.649-0.224 0.423-0.413 0.867-0.564 1.328h0.379c0.373 0 0.678-0.305 0.678-0.678zM9.045 14.012c0-0.373-0.305-0.678-0.678-0.678h-0.591c-0.1 0.44-0.167 0.893-0.197 1.357h0.787c0.373 0 0.678-0.305 0.678-0.678zM21.586 15.684h-2.105c-0.373 0-0.678 0.305-0.678 0.678s0.305 0.678 0.678 0.678h2.105c0.373 0 0.678-0.305 0.678-0.678s-0.305-0.678-0.678-0.678zM21.586 17.807h-2.105c-0.373 0-0.678 0.305-0.678 0.678 0 0.32 0.225 0.588 0.524 0.659l2.907-0.851c-0.084-0.28-0.341-0.486-0.647-0.486zM17.191 15.693c-0.373 0-0.678 0.305-0.678 0.678v2.105c0 0.373 0.305 0.678 0.678 0.678s0.678-0.305 0.678-0.678v-2.105c0-0.373-0.305-0.678-0.678-0.678zM15.068 19.155c0.373 0 0.678-0.305 0.678-0.678v-2.105c0-0.373-0.305-0.678-0.678-0.678s-0.678 0.305-0.678 0.678v2.105c0 0.373 0.305 0.678 0.678 0.678zM24.528 16.831c0.008-0.040 0.018-0.078 0.025-0.118v-0.342c0-0.373-0.305-0.678-0.678-0.678s-0.678 0.305-0.678 0.678v1.28l1.116-0.715c0.068-0.044 0.141-0.077 0.216-0.105zM12.779 15.684h-2.105c-0.373 0-0.678 0.305-0.678 0.678s0.305 0.678 0.678 0.678h2.105c0.373 0 0.678-0.305 0.678-0.678s-0.305-0.678-0.678-0.678zM12.779 17.807h-2.105c-0.373 0-0.678 0.305-0.678 0.678s0.305 0.678 0.678 0.678h2.105c0.373 0 0.678-0.305 0.678-0.678s-0.305-0.678-0.678-0.678zM8.384 15.693c-0.373 0-0.678 0.305-0.678 0.678v0.44c0.153 0.825 0.424 1.608 0.796 2.332 0.318-0.056 0.561-0.333 0.561-0.666v-2.105c0-0.373-0.305-0.678-0.678-0.678zM19.48 8.085h1.338c-0.603-0.397-1.259-0.719-1.956-0.954-0.038 0.085-0.060 0.177-0.060 0.276 0 0.373 0.305 0.678 0.678 0.678zM19.48 10.208h2.105c0.373 0 0.678-0.305 0.678-0.678 0-0.131-0.039-0.252-0.104-0.356-0.060-0.097-0.144-0.176-0.244-0.232-0.098-0.056-0.21-0.090-0.331-0.090h-2.105c-0.373 0-0.678 0.305-0.678 0.678s0.305 0.678 0.678 0.678zM17.191 10.199c0.373 0 0.678-0.305 0.678-0.678v-2.105c0-0.296-0.194-0.547-0.46-0.639-0.069-0.024-0.142-0.040-0.219-0.040-0.018 0-0.034 0.004-0.051 0.005-0.349 0.027-0.627 0.318-0.627 0.673v2.105c0 0.373 0.305 0.678 0.678 0.678zM15.068 10.199c0.373 0 0.678-0.305 0.678-0.678v-2.105c0-0.359-0.283-0.652-0.637-0.674-0.014-0.001-0.027-0.004-0.042-0.004-0.072 0-0.141 0.014-0.207 0.036-0.272 0.088-0.472 0.342-0.472 0.643v2.105c0 0.373 0.305 0.678 0.678 0.678zM11.423 8.085h1.356c0.373 0 0.678-0.305 0.678-0.678 0-0.1-0.024-0.195-0.063-0.281-0.702 0.236-1.364 0.559-1.971 0.959zM12.779 8.851h-2.105c-0.137 0-0.265 0.042-0.372 0.113-0.065 0.043-0.121 0.098-0.168 0.16-0.086 0.114-0.139 0.253-0.139 0.406 0 0.373 0.305 0.678 0.678 0.678h2.105c0.373 0 0.678-0.305 0.678-0.678s-0.305-0.678-0.678-0.678zM12.779 20.325c-0.373 0-0.678 0.305-0.678 0.678v1.797c0.416 0.222 0.853 0.409 1.307 0.561 0.032-0.078 0.050-0.163 0.050-0.252v-2.105c0-0.373-0.305-0.678-0.678-0.678zM9.977 21.003v0.198c0.412 0.424 0.865 0.807 1.357 1.139v-1.338c0-0.373-0.305-0.678-0.678-0.678s-0.678 0.305-0.678 0.678z"></path>
</svg>
