<svg width="24" height="24" viewBox="0 0 24 24" xmlns="http://www.w3.org/2000/svg">
<path fill-rule="evenodd" clip-rule="evenodd" d="M7.68231 18.9299C5.86411 18.7126 4.28379 17.9317 2.92557 16.6691C1.74299 15.5697 0.808719 14.1786 0.380675 12.5917C-0.03818 11.0388 -0.150792 9.2806 0.243225 7.71118C0.350621 7.28339 0.500713 6.85443 0.690196 6.45709C1.42038 4.92586 2.56814 3.44523 3.97248 2.51293C4.76903 1.98412 5.71421 1.56914 6.6318 1.31768C10.9141 0.144113 15.5784 2.28882 17.3083 6.64812C18.5535 9.78584 18.0938 12.7618 16.121 15.4941C15.9142 15.7806 15.6943 16.0472 15.4623 16.2951L16.3846 17.5987C16.583 17.8798 16.9978 17.9129 17.3103 17.6711C17.6228 17.4293 17.7145 17.0076 17.5161 16.7264L16.7024 15.5772L18.2498 14.5867C18.4364 14.4653 18.7084 14.4962 18.863 14.6506L20.2472 16.033C20.5362 16.3227 20.9735 16.376 21.5472 16.2674C22.1209 16.1513 22.7715 15.8531 23.2727 15.5719L23.2748 15.5708C23.4572 15.4696 23.679 15.4675 23.855 15.6432C23.9691 15.7572 24.0011 15.8882 24 15.9958L23.9403 22.5054C23.9349 22.6321 23.8763 22.7567 23.7846 22.8483C23.6886 22.9431 23.5606 23.0059 23.4284 22.9996C23.4284 22.9996 15.9879 22.9367 15.7981 22.9325L8.7458 22.7919C7.92145 22.7759 7.28479 22.0953 7.32532 21.272L7.38504 20.0589C7.40224 19.7104 7.50688 19.3021 7.68231 18.9299ZM11.9798 10.2366C12.1003 9.92593 12.2219 9.61228 12.3405 9.29265L14.8861 8.35268C15.2699 8.74794 15.5899 9.18775 15.8988 9.61231C16.1912 10.0141 16.4736 10.4022 16.7907 10.726C16.9211 10.8322 17.008 10.7992 17.0926 10.767C17.16 10.7413 17.2261 10.7163 17.3115 10.7626C17.2843 11.8892 16.9219 12.9246 16.4088 13.9263C16.2868 13.8661 16.2625 13.773 16.237 13.6757C16.2133 13.5852 16.1887 13.491 16.0834 13.4168C15.5836 13.5702 15.0934 13.7907 14.5906 14.0168C14.1341 14.2221 13.6673 14.432 13.1735 14.6007C12.6904 14.1828 12.2502 13.7128 11.7961 13.2279C11.5896 13.0074 11.3802 12.7838 11.1625 12.5607C11.3835 11.7744 11.678 11.015 11.9798 10.2366ZM14.855 7.68504L12.0815 8.75317L9.48735 6.70462V3.74622C10.0391 3.5025 10.611 3.32084 11.166 3.14457C11.5187 3.03253 11.8646 2.92267 12.1941 2.80042C12.2964 2.70617 12.2842 2.62138 12.2733 2.54548C12.266 2.49442 12.2593 2.44738 12.2883 2.40418C12.6015 2.18183 14.7285 3.72359 15.2537 4.55347C15.2354 4.64233 15.1753 4.66601 15.1028 4.69454C15.0219 4.72643 14.9255 4.76438 14.855 4.90623V7.68504ZM8.03068 18.3675C8.23123 18.1213 8.47219 17.933 8.74474 17.8532L11.2251 17.3117L12.6767 15.0395C12.5142 14.8721 12.3539 14.7068 12.1953 14.5433C11.7281 14.0615 11.2751 13.5943 10.8198 13.1294C10.7145 13.0218 10.5735 12.9711 10.4261 12.9711C10.1721 12.9713 9.91809 12.9666 9.66451 12.962C9.00998 12.9499 8.35857 12.938 7.72079 13.009C7.25147 13.469 6.84292 13.9581 6.43643 14.4448C6.21579 14.709 5.99576 14.9724 5.76694 15.23C6.03087 15.6644 6.34635 16.0466 6.65978 16.4263C7.00167 16.8406 7.34112 17.2518 7.6085 17.7245C7.56592 17.7539 7.52928 17.7803 7.49627 17.804C7.43121 17.8507 7.3803 17.8873 7.32597 17.9174C7.22938 17.971 7.10974 18.0921 7.11434 18.1455C7.35938 18.2464 7.67758 18.3196 8.03068 18.3675ZM13.8332 17.6314L14.4608 18.5753C14.624 18.8203 15.0047 18.8192 15.3129 18.5732C15.6211 18.3272 15.7373 17.9288 15.5741 17.6839L14.9711 16.7766C14.6149 17.0969 14.2348 17.3805 13.8332 17.6314ZM2.55959 4.60862C3.49211 3.51619 4.59865 2.71878 5.96174 2.19447C6.00057 2.34478 5.9514 2.43935 5.90224 2.53387C5.85829 2.61837 5.81437 2.70284 5.83336 2.82707L8.7868 3.72987V6.58155C7.94827 7.41603 7.03605 8.09544 6.0482 8.82075L3.26616 7.74657C3.19549 7.22538 3.20603 6.70564 3.21636 6.19673C3.22564 5.73901 3.23475 5.29005 3.18442 4.85667C3.09253 4.71241 2.97816 4.70542 2.85678 4.698C2.75957 4.69206 2.65786 4.68585 2.55959 4.60862ZM7.09429 12.5367C7.10617 12.5918 7.11885 12.6505 7.13431 12.7142L5.21686 14.9195L2.36403 14.1828C2.23553 14.2064 2.20759 14.3006 2.17805 14.4002C2.14906 14.498 2.11854 14.6009 1.98988 14.6472C1.18809 13.3838 0.605633 12.0467 0.620113 10.4603C0.77208 10.444 0.854601 10.5302 0.936347 10.6157C1.01251 10.6953 1.08799 10.7741 1.21834 10.7687C1.63325 10.3872 1.94987 9.91092 2.26871 9.43131C2.51139 9.06629 2.75535 8.69933 3.04492 8.37071C3.36092 8.3675 3.6348 8.45924 3.89572 8.57989C4.40014 8.81317 4.91131 9.02367 5.45144 9.15289C5.75036 9.22439 5.96667 9.37112 6.07923 9.69083C6.26591 10.221 6.4623 10.7476 6.65869 11.2742C6.77905 11.5969 6.89942 11.9197 7.01755 12.2432C7.05037 12.3331 7.07078 12.4277 7.09429 12.5367ZM8.85031 21.9292H22.4089C22.7395 21.9292 23.0071 21.6618 23.0071 21.3317C23.0071 21.0015 22.7395 20.7342 22.4089 20.7342H8.85031C8.51972 20.7342 8.25205 21.0015 8.25205 21.3317C8.25205 21.6618 8.51972 21.9292 8.85031 21.9292Z"/>
</svg>
