<!-- Generated by IcoMoon.io -->
<svg version="1.1" xmlns="http://www.w3.org/2000/svg" width="32" height="32" viewBox="0 0 32 32">
<title>icn-sport-sailing</title>
<path d="M25.502 15.851h-1.766c-0.117-1.776-0.81-3.37-1.892-4.619l1.255-1.236c0.099-0.099 0.16-0.235 0.16-0.386 0-0.301-0.244-0.546-0.546-0.546-0.151 0-0.287 0.061-0.386 0.16l-1.252 1.241c-1.246-1.102-2.857-1.818-4.632-1.944l-0.025-1.733c0-0.301-0.244-0.545-0.545-0.545s-0.545 0.244-0.545 0.545v1.735c-1.792 0.128-3.396 0.843-4.642 1.952l-1.227-1.248c-0.101-0.124-0.253-0.203-0.424-0.203-0.301 0-0.545 0.244-0.545 0.545 0 0.174 0.082 0.33 0.209 0.429l1.248 1.247c-1.073 1.239-1.766 2.833-1.882 4.586l-1.848 0.024c-0.301 0-0.545 0.244-0.545 0.545s0.244 0.545 0.545 0.545h1.839c0.134 1.783 0.847 3.378 1.95 4.62l-1.304 1.3c-0.099 0.099-0.16 0.235-0.16 0.386 0 0.301 0.244 0.546 0.546 0.546 0.151 0 0.287-0.061 0.386-0.16l1.302-1.314c1.229 1.059 2.804 1.748 4.535 1.879l0.026 1.871c0 0.301 0.244 0.545 0.545 0.545s0.545-0.244 0.545-0.545v-1.869c1.767-0.118 3.353-0.81 4.593-1.889l1.31 1.322c0.097 0.089 0.227 0.144 0.37 0.144 0.302 0 0.547-0.245 0.547-0.547 0-0.142-0.054-0.272-0.143-0.369l-1.308-1.308c1.095-1.234 1.808-2.829 1.941-4.586l1.773-0.026c0.301 0 0.545-0.244 0.545-0.545s-0.244-0.545-0.545-0.545zM21.549 15.851h-4.306l3.060-3.060c0.684 0.836 1.135 1.887 1.242 3.037zM19.517 12.014l-3.088 3.088v-4.39c1.191 0.109 2.254 0.584 3.095 1.308zM15.326 10.712v4.401l-3.088-3.088c0.839-0.711 1.898-1.187 3.063-1.312zM11.483 12.792l3.060 3.060h-4.303c0.108-1.173 0.559-2.223 1.252-3.070zM10.246 16.94h4.365l-3.065 3.068c-0.705-0.834-1.176-1.887-1.298-3.044zM12.3 20.772l3.026-3.026v4.267c-1.159-0.124-2.194-0.572-3.037-1.249zM16.415 22.013v-4.267l3.026 3.026c-0.826 0.68-1.865 1.13-3.003 1.239zM20.241 20.008l-3.065-3.068h4.368c-0.125 1.182-0.596 2.235-1.309 3.076z"></path>
</svg>
