<!-- Generated by IcoMoon.io -->
<svg version="1.1" xmlns="http://www.w3.org/2000/svg" width="32" height="32" viewBox="0 0 32 32">
<title>icn-sport-fitness</title>
<path d="M7.096 14.142v5.684c0 0.381-0.309 0.689-0.689 0.689s-0.689-0.309-0.689-0.689v-5.684c0-0.381 0.309-0.689 0.689-0.689s0.689 0.309 0.689 0.689zM25.406 13.255c-0.38 0-0.688 0.308-0.688 0.688v5.684c0 0.381 0.309 0.689 0.689 0.689s0.689-0.309 0.689-0.689v-5.684c0 0 0 0 0 0 0-0.38-0.308-0.688-0.688-0.688-0.001 0-0.002 0-0.003 0zM22.771 11.228c-0.38 0-0.688 0.308-0.688 0.688v4.051h-12.351v-4.053c0-0.381-0.309-0.689-0.689-0.689s-0.689 0.309-0.689 0.689v9.945c0 0.381 0.309 0.689 0.689 0.689s0.689-0.309 0.689-0.689v-4.514h12.351v4.514c0 0.381 0.309 0.689 0.689 0.689s0.689-0.309 0.689-0.689v-9.945c-0.002-0.379-0.309-0.685-0.688-0.685-0.001 0-0.002 0-0.003 0z"></path>
</svg>
