<!-- Generated by IcoMoon.io -->
<svg version="1.1" xmlns="http://www.w3.org/2000/svg" width="32" height="32" viewBox="0 0 32 32">
<title>icn-sport-blitzball</title>
<path d="M6.344 12.996l1.095-0.14 0.589 1.74-0.786 2.526-0.674 0.168-0.589-0.197c-0.056-0.365-0.084-0.73-0.084-1.095 0-1.039 0.168-2.049 0.449-3.004zM13.782 8.814l-2.077 1.6v0.028l0.309 1.628 1.993 0.758 0.197 0.084 1.825-1.347v-1.853l-1.46-0.589-0.786-0.309zM16.646 11.565l2.302 1.207 1.628-0.926v-1.825l-1.965-1.375-1.993 1.067v1.853h0.028zM14.568 13.446v2.133l1.796 1.151 0.618-0.281 1.656-0.786v-2.358l-2.274-1.179-1.796 1.319zM6.568 12.323l0.898-0.14 1.628-2.021v-1.572c-0.028 0.028-0.056 0.028-0.056 0.056-1.067 1.039-1.909 2.302-2.47 3.677zM9.572 10.611l-1.572 1.965 0.561 1.712 1.403-0.028 0.253-0.337 1.179-1.656-0.309-1.656c0 0-1.516 0-1.516 0zM9.993 14.877l-1.403 0.028-0.73 2.414 1.488 1.937 1.796-0.14 0.421-2.133-1.235-1.628-0.337-0.477zM18.975 6.344v1.768l2.021 1.432 1.684-0.056 0.449-0.646c-0.898-0.898-1.993-1.628-3.2-2.161-0.309-0.14-0.646-0.253-0.954-0.337zM22.849 13.726l-0.056-0.028-1.909-1.319-0.028 0.028-1.6 0.898v2.414l1.375 1.039 0.421 0.309 1.74-1.067v-2.274h0.056zM23.972 20.8l-1.628 0.674-1.404 2.021 0.056 1.263c1.572-0.898 2.891-2.189 3.789-3.789l-0.814-0.168zM22.203 20.856l1.46-0.618 0.73-2.639-1.263-1.039-1.768 1.067-0.14 2.218 0.702 0.73 0.281 0.281zM22.681 10.105l-1.46 0.056v1.712l1.881 1.291 0.842-0.898-1.263-2.161zM25.572 12.772c-0.056-0.197-0.14-0.393-0.197-0.561-0.449-1.067-1.039-2.049-1.796-2.891l-0.337 0.477 1.319 2.302 1.011 0.674zM10.526 14.54l1.432 1.909 0.814-0.365 1.151-0.533v-2.049l-0.168-0.084-1.909-0.73-1.039 1.46-0.281 0.393zM14.063 8.253l0.814 0.337 1.46 0.589 1.909-1.039 0.112-0.056v-1.825l-2.133-0.365c-0.028 0-0.028 0-0.028 0l-2.161 1.432 0.028 0.926zM25.768 13.446l-1.235-0.702-1.067 0.982v2.358l1.544 1.067 1.095-0.589c0.028-1.095-0.084-2.133-0.337-3.116zM15.411 5.923c-0.954 0.056-1.881 0.253-2.751 0.561l1.067 0.337 1.684-0.898zM16.477 26.105c1.123-0.056 2.246-0.309 3.312-0.73 0.197-0.084 0.393-0.168 0.589-0.253l-0.056-1.375-2.021-0.168-2.105 1.123v1.404c0.056 0 0.112 0 0.168 0 0.028 0 0.084 0 0.112 0zM26.049 17.039l-1.011 0.646-0.702 2.554 0.758 0.168c0.084-0.168 0.168-0.337 0.225-0.505 0.393-0.898 0.618-1.881 0.73-2.863zM9.74 9.965h1.544l2.161-1.656v-0.954l-1.628-0.561c-0.449 0.197-0.898 0.449-1.319 0.73 0 0 0 0-0.028 0-0.168 0.112-0.337 0.225-0.505 0.365-0.056 0.028-0.112 0.084-0.168 0.14-0.056 0.028-0.112 0.084-0.168 0.14zM8.814 21.109l0.028-1.46-1.488-1.937-0.842 0.225-0.477-0.168c0.225 1.319 0.73 2.554 1.404 3.649l1.375-0.309zM12.435 25.46c0.056 0.028 0.112 0.028 0.168 0.056 0.112 0.028 0.225 0.084 0.337 0.112 0.028 0 0.084 0.028 0.112 0.028 0.14 0.028 0.253 0.084 0.393 0.112 0.028 0 0.056 0.028 0.084 0.028 0.14 0.028 0.253 0.056 0.393 0.084 0.028 0 0.056 0 0.084 0.028 0.14 0.028 0.253 0.056 0.393 0.056 0.028 0 0.056 0 0.112 0.028 0.112 0.028 0.253 0.028 0.365 0.056 0.028 0 0.084 0 0.112 0 0.14 0 0.253 0.028 0.393 0.028 0.028 0 0.056 0 0.112 0 0.028 0 0.084 0 0.112 0v-1.404l-2.133-1.319-1.6 0.337-0.056 1.516c0.028 0 0.056 0.028 0.084 0.028 0.084 0.028 0.168 0.084 0.253 0.112s0.168 0.084 0.281 0.112zM21.726 21.277l-0.225-0.253-0.646-0.674-2.302 1.123v1.46l1.909 0.168 1.263-1.825zM11.2 24.898l0.028-1.319-2.274-1.853-1.095 0.253c0.87 1.207 2.021 2.189 3.34 2.919zM15.888 19.649l0.112-2.386-1.796-1.151-1.179 0.533-0.898 0.421-0.449 2.161 0.477 0.365 1.375 1.039 2.358-0.982zM13.221 21.165l-1.544-1.179-0.393-0.309-1.796 0.14-0.028 1.46 2.189 1.797 0.084-0.028 1.488-0.309c0 0 0-1.572 0-1.572zM20.604 19.761l0.14-2.161-0.618-0.477-1.207-0.898-1.712 0.814-0.561 0.253-0.112 2.386 1.768 1.179 2.302-1.095zM15.888 24.168l2.021-1.123v-1.628l-1.74-1.207-2.33 1.011v1.656l0.618 0.393 1.432 0.898z"></path>
</svg>
