<!-- Generated by IcoMoon.io -->
<svg version="1.1" xmlns="http://www.w3.org/2000/svg" width="32" height="32" viewBox="0 0 32 32">
<title>icn-sport-multi</title>
<path d="M17.299 28.5c2.837-0.294 5.39-1.546 7.341-3.424h-4.487c-0.936 1.553-1.975 2.755-2.854 3.424v0 0zM11.846 25.076h-4.487c1.951 1.879 4.504 3.129 7.341 3.424-0.88-0.67-1.919-1.871-2.854-3.424v0 0zM27.519 11.108h-5.54c0.487 1.593 0.792 3.313 0.792 5.063 0 0.058-0.003 0.116-0.004 0.174h5.724c0.003-0.117 0.008-0.232 0.008-0.349 0-1.734-0.349-3.386-0.981-4.889v0 0zM21.354 9.362h5.262c-1.981-3.2-5.352-5.439-9.264-5.862 1.308 0.992 2.887 3.146 4.002 5.862v0 0zM9.357 18.092h-5.68c0.322 1.931 1.082 3.712 2.174 5.238h5.065c-0.733-1.567-1.314-3.355-1.559-5.238v0 0zM14.648 3.5c-3.912 0.423-7.283 2.662-9.264 5.862h5.262c1.116-2.716 2.694-4.87 4.002-5.862v0 0zM9.229 16.171c0-1.75 0.304-3.47 0.792-5.063h-5.54c-0.631 1.503-0.981 3.155-0.981 4.889 0 0.117 0.006 0.233 0.009 0.349h5.724c-0.001-0.058-0.004-0.117-0.004-0.174v0 0zM19.454 9.362c-1.232-2.664-2.834-4.472-3.454-4.702-0.62 0.231-2.222 2.038-3.454 4.702h6.908zM21.035 16.171c0-1.811-0.355-3.53-0.88-5.063h-8.309c-0.525 1.533-0.88 3.252-0.88 5.063 0 0.058 0.003 0.117 0.004 0.174h10.062c0.001-0.058 0.004-0.116 0.004-0.174v0 0zM13.966 25.076c0.843 1.197 1.638 1.987 2.034 2.226 0.396-0.238 1.19-1.029 2.033-2.226h-4.067zM20.891 18.092h-9.783c0.289 1.981 0.985 3.771 1.778 5.238h6.227c0.793-1.467 1.489-3.257 1.778-5.238v0zM21.084 23.33h5.066c1.092-1.526 1.852-3.307 2.174-5.238h-5.68c-0.245 1.883-0.825 3.671-1.559 5.238v0 0z"></path>
</svg>
