<!-- Generated by IcoMoon.io -->
<svg version="1.1" xmlns="http://www.w3.org/2000/svg" width="32" height="32" viewBox="0 0 32 32">
<title>icn-sport-snowboard</title>
<path d="M17.617 10.305c-1.148 1.575-2.554 3.186-3.702 4.772s-2.316 3.138-3.568 4.64l-0.154 0.185 6.232 2.072 6.625-8.665c0.326-0.427 0.651-0.842 0.963-1.291l-6.327-1.811zM17.030 18.588c-0.057 0.2-0.226 0.35-0.432 0.379-0.024 0.003-0.049 0.005-0.074 0.005-0.049 0-0.097-0.007-0.143-0.020l-2.346-0.662c-0.201-0.076-0.342-0.268-0.342-0.492 0-0.29 0.235-0.525 0.525-0.525 0.035 0 0.068 0.003 0.101 0.010l2.355 0.662c0.219 0.065 0.376 0.265 0.376 0.501 0 0.050-0.007 0.099-0.020 0.145zM20.272 14.316c-0.063 0.222-0.264 0.382-0.503 0.382-0.051 0-0.1-0.007-0.146-0.021l-2.354-0.662c-0.245-0.048-0.427-0.26-0.427-0.516 0-0.29 0.235-0.525 0.525-0.525 0.066 0 0.129 0.012 0.187 0.034l2.354 0.661c0.223 0.062 0.385 0.264 0.385 0.504 0 0.051-0.007 0.099-0.021 0.146zM7.265 22.619l-0.138 0.098c-0.384 0.236-0.69 0.567-0.889 0.96-0.405 1.178 1.678 1.936 2.486 2.181 1.342 0.399 3.088 0.508 4.396-0.177 0.78-0.41 1.339-1.123 1.875-1.833l0.539-0.705-6.361-2.091c-0.577 0.542-1.2 1.056-1.854 1.529zM25.67 7.663c-0.48-0.581-1.594-0.772-2.434-1.036-0.147-0.049-0.335-0.098-0.527-0.137l-0.64-0.152c-2.153-0.502-2.655 0.421-2.655 0.421-0.348 0.39-0.418 0.907-0.561 1.403-0.104 0.316-0.225 0.587-0.371 0.842l6.353 1.794c0.28-0.443 0.553-0.959 0.787-1.496l0.058-0.126c0.334-0.702 0.272-1.173-0.008-1.513z"></path>
</svg>
