<!-- Generated by IcoMoon.io -->
<svg version="1.1" xmlns="http://www.w3.org/2000/svg" width="32" height="32" viewBox="0 0 32 32">
<title>icn-sport-sup</title>
<path d="M26.021 22.973c-0.219-0.211-0.328-0.483-1.917-1.387-0.682-0.387-1.025-0.581-1.575-0.862-0.438-0.233-0.999-0.491-1.67-0.794v0l-0.668-0.281c-1.1-1.058-4.121-3.952-7.018-6.737s-5.825-5.575-6.911-6.619c-0.104-0.135-0.265-0.221-0.446-0.221-0.31 0-0.561 0.251-0.561 0.561 0 0.189 0.093 0.356 0.237 0.458 1.088 1.048 4.002 3.833 6.913 6.62 2.613 2.501 5.561 5.302 6.908 6.605l0.149 0.149c1.592 3.354 2.759 4.929 3.52 5.667 0.216 0.21 0.511 0.34 0.836 0.34 0.35 0 0.665-0.15 0.884-0.389l0.666-0.711 0.685-0.693c0.211-0.216 0.342-0.512 0.342-0.838 0-0.342-0.143-0.65-0.372-0.868zM24.472 24.517c-0.051 0.050-0.12 0.080-0.197 0.080s-0.146-0.031-0.197-0.080l-3.048-2.829c-0.036-0.047-0.058-0.106-0.058-0.171 0-0.155 0.126-0.281 0.281-0.281 0.058 0 0.113 0.018 0.157 0.048l3.050 2.84c0.053 0.051 0.086 0.123 0.086 0.202 0 0.074-0.028 0.141-0.075 0.191zM9.46 17.538c-1.425 2.032-2.666 4.358-3.611 6.83l0.206 0.502 1.864-1.864c0.112-0.112 0.268-0.182 0.439-0.182 0.343 0 0.621 0.278 0.621 0.621 0 0.172-0.070 0.327-0.182 0.439l-1.864 1.864 0.281 0.281c0.418-0.149 1.196-0.444 2.223-0.924 0.222-0.376 0.778-1.572 0.295-3.475-0.227-0.823-0.357-1.769-0.357-2.745 0-0.475 0.031-0.943 0.091-1.402zM10.928 21.317c0.145 0.513 0.228 1.102 0.228 1.71 0 0.448-0.045 0.885-0.131 1.308 0.695-0.41 1.388-0.811 2.073-1.241 0.118-0.247 0.735-1.746-0.081-4.747-0.253-0.871-0.408-1.875-0.427-2.912l-0.842-0.811c-0.612 1.005-1.665 3.36-0.82 6.692zM16.441 14.484l8.093-8.104c-1.098 0.028-4.46 0.466-8.982 4.309l-0.163 0.149c-0.418 0.478-0.761 1.036-1 1.646l2.044 2.003zM14.218 18.013c0.284 0.917 0.447 1.971 0.447 3.063 0 0.358-0.018 0.711-0.052 1.059 0.952-0.704 1.862-1.414 2.738-2.158l-3.402-3.253c0.075 0.504 0.169 0.94 0.288 1.365zM25.412 7.259l-8.084 8.095 2.453 2.352c4.359-4.497 5.578-8.497 5.631-10.448z"></path>
</svg>
