<!-- Generated by IcoMoon.io -->
<svg version="1.1" xmlns="http://www.w3.org/2000/svg" width="32" height="32" viewBox="0 0 32 32">
<title>icn-sport-volleyball</title>
<path d="M12.431 11.18c1.731-0.783 6.511-2.514 11.209-0.577-1.731-2.184-4.451-3.585-7.5-3.585-1.566 0-3.008 0.371-4.327 1.030 0.041 0.742 0.206 1.896 0.618 3.132zM25.083 12.869c-4.739-3.256-10.302-1.236-12.074-0.453 0.618 1.236 1.607 2.473 3.132 3.462 1.277-0.577 5.728-2.225 9.684-0.206-0.124-0.989-0.371-1.896-0.742-2.802zM21.374 16.084c-2.060 0.041-3.832 0.701-4.615 1.030 0.165 3.709-2.72 7.006-4.327 8.572 0.948 0.371 1.937 0.618 3.008 0.701 5.728-3.956 6.017-8.736 5.934-10.302zM13.997 21.606c0.824-1.36 1.484-2.926 1.401-4.574-3.668-2.39-4.615-6.058-4.863-8.201-0.948 0.659-1.772 1.484-2.431 2.473 0 2.143 0.618 7.212 5.893 10.302zM13.256 22.718c-4.327-2.555-5.811-6.387-6.264-9.19-0.33 0.989-0.536 2.060-0.536 3.173 0 3.503 1.896 6.593 4.698 8.283 0.536-0.453 1.319-1.236 2.102-2.267zM22.734 16.125c0.082 1.813-0.33 6.181-4.945 10.137 4.409-0.742 7.789-4.451 8.036-9.025-0.989-0.618-2.060-0.948-3.091-1.113z"></path>
</svg>
