<!-- Generated by IcoMoon.io -->
<svg version="1.1" xmlns="http://www.w3.org/2000/svg" width="32" height="32" viewBox="0 0 32 32">
<title>icn-sport-dodgeball</title>
<path d="M28.139 18.090c-0.152-0.255-0.38-0.385-0.683-0.353-0.206 0.022-0.346 0.154-0.474 0.304-0.668 0.787-1.337 1.571-2.006 2.357-0.019 0.022-0.032 0.051-0.055 0.064-0.044 0.025-0.092 0.041-0.139 0.061-0.004-0.047-0.023-0.099-0.008-0.14 0.079-0.218 0.166-0.434 0.252-0.65 0.432-1.084 0.866-2.168 1.298-3.253 0.139-0.349-0.012-0.716-0.351-0.867-0.354-0.157-0.719-0.022-0.883 0.335-0.589 1.282-1.176 2.565-1.764 3.847-0.029 0.063-0.063 0.125-0.095 0.187l-0.059-0.020c0.015-0.195 0.028-0.389 0.046-0.584 0.111-1.197 0.222-2.394 0.334-3.591 0.043-0.457-0.15-0.746-0.549-0.817-0.395-0.071-0.723 0.167-0.781 0.568-0.202 1.392-0.404 2.784-0.608 4.175-0.008 0.055-0.029 0.109-0.044 0.163-0.017 0-0.033-0-0.050-0-0.016-0.055-0.036-0.11-0.047-0.166-0.208-1.102-0.415-2.204-0.622-3.307-0.077-0.412-0.381-0.632-0.782-0.568-0.375 0.061-0.593 0.365-0.541 0.771 0.154 1.202 0.31 2.404 0.468 3.606 0.055 0.422 0.028 0.838-0.078 1.248-0.107 0.414-0.467 0.577-0.862 0.396-0.397-0.181-0.79-0.368-1.187-0.549-0.272-0.124-0.536-0.088-0.723 0.104-0.194 0.198-0.273 0.439-0.162 0.7 0.053 0.124 0.157 0.234 0.26 0.327 0.482 0.438 0.98 0.859 1.456 1.304 0.467 0.436 0.833 0.954 1.152 1.509 0.626 1.087 1.586 1.621 2.825 1.517 1.249-0.104 2.11-0.809 2.546-1.981 0.167-0.448 0.235-0.934 0.339-1.404 0.128-0.581 0.208-1.181 0.505-1.707 0.228-0.403 0.49-0.787 0.76-1.163 0.409-0.571 0.839-1.127 1.257-1.692 0.17-0.23 0.204-0.48 0.054-0.732zM10.656 13.839c0.373 0 0.678-0.305 0.678-0.678v-2.105c0-0.373-0.305-0.678-0.678-0.678s-0.678 0.305-0.678 0.678v2.105c0 0.373 0.305 0.678 0.678 0.678zM17.191 9.357c0.373 0 0.678-0.305 0.678-0.678v-2.105c0-0.296-0.194-0.547-0.46-0.639-0.069-0.024-0.142-0.040-0.219-0.040-0.018 0-0.034 0.004-0.051 0.005-0.349 0.027-0.627 0.317-0.627 0.673v2.105c0 0.373 0.305 0.678 0.678 0.678zM19.463 13.839c0.373 0 0.678-0.305 0.678-0.678v-2.105c0-0.373-0.305-0.678-0.678-0.678s-0.678 0.305-0.678 0.678v2.105c0 0.373 0.305 0.678 0.678 0.678zM17.191 14.851c-0.373 0-0.678 0.305-0.678 0.678v2.105c0 0.373 0.305 0.678 0.678 0.678s0.678-0.305 0.678-0.678v-2.105c0-0.373-0.305-0.678-0.678-0.678zM15.068 11.725h2.105c0.373 0 0.678-0.305 0.678-0.678s-0.305-0.678-0.678-0.678h-2.105c-0.373 0-0.678 0.305-0.678 0.678s0.305 0.678 0.678 0.678zM15.068 18.313c0.373 0 0.678-0.305 0.678-0.678v-2.105c0-0.373-0.305-0.678-0.678-0.678s-0.678 0.305-0.678 0.678v2.105c0 0.373 0.305 0.678 0.678 0.678zM15.068 13.848h2.105c0.373 0 0.678-0.305 0.678-0.678s-0.305-0.678-0.678-0.678h-2.105c-0.373 0-0.678 0.305-0.678 0.678s0.305 0.678 0.678 0.678zM15.068 9.357c0.373 0 0.678-0.305 0.678-0.678v-2.105c0-0.359-0.283-0.652-0.637-0.674-0.014-0.001-0.027-0.004-0.042-0.004-0.072 0-0.141 0.014-0.207 0.036-0.272 0.088-0.472 0.342-0.472 0.643v2.105c0 0.373 0.305 0.678 0.678 0.678zM17.173 19.474h-2.105c-0.373 0-0.678 0.305-0.678 0.678s0.305 0.678 0.678 0.678h1.072c0.057-0.074 0.116-0.147 0.184-0.216 0.405-0.415 0.944-0.629 1.503-0.634-0.077-0.29-0.34-0.507-0.654-0.507zM15.756 21.596h-0.688c-0.373 0-0.678 0.305-0.678 0.678 0 0.235 0.122 0.443 0.305 0.565 0.107 0.071 0.235 0.113 0.373 0.113h0.762c-0.178-0.444-0.197-0.914-0.074-1.357zM21.586 10.377c-0.373 0-0.678 0.305-0.678 0.678v2.105c0 0.373 0.305 0.678 0.678 0.678s0.678-0.305 0.678-0.678v-2.105c0-0.373-0.305-0.678-0.678-0.678zM19.48 7.243h1.338c-0.603-0.397-1.259-0.719-1.956-0.954-0.038 0.085-0.060 0.177-0.060 0.276 0 0.373 0.305 0.678 0.678 0.678zM23.875 11.725h0.379c-0.152-0.461-0.34-0.905-0.564-1.327-0.283 0.082-0.493 0.341-0.493 0.649 0 0.373 0.305 0.678 0.678 0.678zM23.486 13.723c0.111 0.078 0.244 0.125 0.389 0.125h0.787c-0.029-0.463-0.096-0.916-0.197-1.357h-0.591c-0.373 0-0.678 0.305-0.678 0.678 0 0.228 0.115 0.43 0.289 0.554zM18.802 8.687c0 0.373 0.305 0.678 0.678 0.678h2.105c0.373 0 0.678-0.305 0.678-0.678 0-0.131-0.039-0.252-0.104-0.356-0.060-0.097-0.145-0.176-0.244-0.232-0.098-0.056-0.21-0.090-0.331-0.090h-2.105c-0.373 0-0.678 0.305-0.678 0.678zM12.779 10.377c-0.373 0-0.678 0.305-0.678 0.678v2.105c0 0.373 0.305 0.678 0.678 0.678s0.678-0.305 0.678-0.678v-2.105c0-0.373-0.305-0.678-0.678-0.678zM12.779 16.965h-2.105c-0.373 0-0.678 0.305-0.678 0.678s0.305 0.678 0.678 0.678h2.105c0.373 0 0.678-0.305 0.678-0.678s-0.305-0.678-0.678-0.678zM12.779 14.842h-2.105c-0.373 0-0.678 0.305-0.678 0.678s0.305 0.678 0.678 0.678h2.105c0.373 0 0.678-0.305 0.678-0.678s-0.305-0.678-0.678-0.678zM11.423 7.243h1.356c0.373 0 0.678-0.305 0.678-0.678 0-0.1-0.024-0.195-0.063-0.281-0.702 0.236-1.364 0.559-1.971 0.959zM12.779 8.009h-2.105c-0.137 0-0.265 0.042-0.372 0.113-0.065 0.043-0.121 0.098-0.168 0.16-0.086 0.114-0.139 0.253-0.139 0.406 0 0.373 0.305 0.678 0.678 0.678h2.105c0.373 0 0.678-0.305 0.678-0.678s-0.305-0.678-0.678-0.678zM9.045 11.047c0-0.309-0.21-0.568-0.493-0.649-0.224 0.423-0.413 0.867-0.564 1.328h0.379c0.373 0 0.678-0.305 0.678-0.678zM9.045 13.17c0-0.373-0.305-0.678-0.678-0.678h-0.591c-0.1 0.44-0.167 0.893-0.197 1.357h0.787c0.373 0 0.678-0.305 0.678-0.678zM8.384 14.851c-0.373 0-0.678 0.305-0.678 0.678v0.44c0.153 0.825 0.424 1.608 0.796 2.332 0.318-0.056 0.561-0.333 0.561-0.666v-2.105c0-0.373-0.305-0.678-0.678-0.678zM10.656 19.482c-0.373 0-0.678 0.305-0.678 0.678v0.198c0.412 0.424 0.865 0.807 1.357 1.139v-1.338c0-0.373-0.305-0.678-0.678-0.678zM12.779 19.482c-0.373 0-0.678 0.305-0.678 0.678v1.797c0.416 0.222 0.853 0.409 1.307 0.561 0.032-0.078 0.050-0.163 0.050-0.252v-2.105c0-0.373-0.305-0.678-0.678-0.678z"></path>
</svg>
