<!-- Generated by IcoMoon.io -->
<svg version="1.1" xmlns="http://www.w3.org/2000/svg" width="32" height="32" viewBox="0 0 32 32">
<title>icn-sport-wiffle-ball</title>
<path d="M9.266 21.162l-2.309 2.338c-0.306-0.306-0.855-0.306-1.162 0s-0.306 0.815 0 1.121l1.123 1.12c0.306 0.306 0.816 0.306 1.122 0s0.306-0.815 0-1.12l2.393-2.218c-0.429-0.373-0.821-0.789-1.167-1.241zM25.696 6.49c-0.816-1.121-2.347-1.222-3.266-0.306l-2.368 2.363c1.288 0.703 2.372 1.731 3.145 2.973l2.182-2.178c0.714-0.713 0.919-1.936 0.306-2.852zM21.454 16.93c-0.46 0.029-0.856-0.321-0.885-0.781-0.035-0.564-0.195-1.086-0.436-1.56-0.015-0.030-0.027-0.062-0.043-0.091-0.107-0.198-0.22-0.372-0.333-0.519-0.038-0.049-0.071-0.091-0.1-0.124-0.014-0.016-0.021-0.024-0.021-0.024-0.32-0.332-0.309-0.861 0.023-1.18s0.861-0.31 1.18 0.023c0.058 0.060 0.143 0.159 0.246 0.293 0.093 0.121 0.184 0.256 0.274 0.399 0.068 0.108 0.136 0.22 0.201 0.34 0.377 0.698 0.623 1.483 0.676 2.34 0.029 0.46-0.321 0.856-0.781 0.885zM17.852 17.429c-0.319 0.045-0.619-0.1-0.794-0.346-0.075-0.105-0.129-0.228-0.149-0.365l-0.342-2.434c-0.064-0.457 0.254-0.879 0.711-0.943s0.878 0.254 0.943 0.71l0.271 1.931 0.071 0.503c0.064 0.457-0.254 0.879-0.71 0.943zM15.228 14.285l-0.342 2.434c-0.064 0.457-0.486 0.775-0.943 0.711s-0.775-0.486-0.711-0.943l0.010-0.072 0.332-2.362c0.064-0.457 0.486-0.775 0.943-0.71 0.31 0.043 0.553 0.254 0.659 0.526 0.050 0.129 0.072 0.27 0.052 0.417zM12.159 13.83c0.001-0.001-0.006 0.007-0.021 0.024-0.029 0.034-0.063 0.075-0.101 0.124-0.112 0.147-0.226 0.321-0.333 0.519-0.268 0.498-0.442 1.052-0.479 1.651-0.029 0.46-0.425 0.81-0.885 0.781s-0.81-0.425-0.782-0.885c0.053-0.857 0.3-1.642 0.676-2.34 0.15-0.278 0.311-0.525 0.475-0.739 0.103-0.135 0.188-0.233 0.245-0.293 0.32-0.332 0.848-0.342 1.18-0.023s0.343 0.848 0.023 1.18zM19.235 9.373c-0.977-0.478-2.074-0.747-3.235-0.747-4.073 0-7.374 3.302-7.374 7.374 0 1.63 0.53 3.135 1.425 4.356 0.347 0.473 0.749 0.903 1.197 1.281 1.283 1.083 2.941 1.737 4.752 1.737 4.072 0 7.374-3.301 7.374-7.374 0-1.336-0.357-2.588-0.979-3.669-0.733-1.274-1.834-2.309-3.16-2.958z"></path>
</svg>
