<!-- Generated by IcoMoon.io -->
<svg version="1.1" xmlns="http://www.w3.org/2000/svg" width="32" height="32" viewBox="0 0 32 32">
<title>icn-sport-handball</title>
<path d="M7.91 10.947l-0.421-2.582c0.346-0.394 0.724-0.744 1.135-1.053 0.418-0.297 0.873-0.553 1.355-0.759l2.372 1.175 0.053 1.404-3.172 2.305zM6.737 9.367c-0.252 0.409-0.478 0.882-0.654 1.379-0.157 0.505-0.261 1.033-0.306 1.578l1.225-1.224zM10.201 15.851l-1.218-3.728-1.353-0.385-1.858 1.841c0.049 0.572 0.155 1.1 0.315 1.605 0.181 0.496 0.411 0.967 0.686 1.408l2.567 0.364zM19.486 10.799c-0.193-0.549-0.419-1.022-0.69-1.465l-0.237 1.765 1.232 1.252c-0.051-0.573-0.157-1.101-0.315-1.606zM13.165 9.134l3.172 2.305 1.319-0.491 0.421-2.582c-0.346-0.394-0.723-0.745-1.135-1.053-0.418-0.296-0.873-0.552-1.354-0.759l-2.373 1.18zM9.844 11.992l0.98 3.503h3.93l0.966-3.503-2.936-2.145zM14.352 6.147c-0.468-0.113-1.007-0.183-1.562-0.194-0.565 0.012-1.099 0.082-1.614 0.204l1.621 0.767zM7.484 17.555c0.347 0.399 0.724 0.754 1.135 1.067 0.417 0.295 0.872 0.551 1.353 0.758l-0.762-1.533zM16.415 18.959l-0.135-0.974-0.618 1.182c0.106 0.011 0.202 0.028 0.295 0.051 0.129-0.070 0.289-0.152 0.454-0.25zM14.554 19.368l0.974-1.937-0.783-1.151h-3.93l-0.783 1.168 1.196 2.333c0.468 0.115 1.008 0.185 1.563 0.194 0.425-0.006 0.829-0.047 1.223-0.122-0.013-0.027 0.013-0.063 0.046-0.097 0.141-0.152 0.304-0.28 0.484-0.382zM17.754 13.754c0.107-0.018 0.231-0.028 0.356-0.028 0.001 0 0.002 0 0.003 0 0.003-0 0.007-0 0.010-0 0.313 0 0.609 0.069 0.875 0.193 0.125-0.25 0.303-0.457 0.513-0.622l-1.584-1.575-1.367 0.401-1.201 3.728 0.778 0.991c-0.031-0.244-0.065-0.491-0.095-0.735-0.015-0.093-0.023-0.199-0.023-0.308 0-1.020 0.745-1.866 1.721-2.023zM26.046 17.404c-0.113-0.215-0.335-0.36-0.591-0.36-0.032 0-0.064 0.002-0.095 0.007-0.194 0.035-0.361 0.146-0.469 0.3l-2.009 2.36c-0.020 0.022-0.031 0.051-0.056 0.065-0.038 0.020-0.084 0.041-0.132 0.059-0.013-0.018-0.015-0.043-0.015-0.067s0.002-0.049 0.007-0.073c0.078-0.217 0.165-0.433 0.252-0.649l1.291-3.242c0.034-0.076 0.053-0.166 0.053-0.259 0-0.272-0.165-0.506-0.4-0.606-0.087-0.043-0.185-0.068-0.289-0.068-0.268 0-0.498 0.163-0.596 0.396q-0.886 1.927-1.764 3.85c-0.028 0.065-0.062 0.123-0.095 0.188l-0.059-0.020c0.017-0.194 0.028-0.39 0.048-0.584q0.166-1.797 0.334-3.59c0.042-0.458-0.149-0.747-0.561-0.817-0.042-0.010-0.089-0.015-0.138-0.015-0.332 0-0.606 0.251-0.642 0.573q-0.303 2.091-0.609 4.177c-0.014 0.065-0.029 0.12-0.048 0.173l-0.048-0.010c-0.017-0.056-0.037-0.109-0.048-0.166q-0.3-1.645-0.609-3.307c-0.036-0.327-0.311-0.579-0.645-0.579-0.053 0-0.105 0.006-0.154 0.018-0.311 0.043-0.552 0.312-0.552 0.636 0 0.048 0.005 0.094 0.015 0.139q0.229 1.798 0.468 3.603c0.019 0.133 0.030 0.287 0.030 0.444 0 0.281-0.036 0.554-0.103 0.814-0.046 0.25-0.281 0.453-0.564 0.453-0.108 0-0.209-0.030-0.295-0.081l-1.185-0.56c-0.090-0.051-0.198-0.082-0.313-0.082-0.355 0-0.643 0.288-0.643 0.643 0 0.097 0.021 0.189 0.060 0.271 0.069 0.127 0.164 0.236 0.277 0.323 0.485 0.44 0.982 0.861 1.459 1.307 0.448 0.434 0.832 0.931 1.137 1.478 0.53 0.943 1.491 1.549 2.593 1.549 1.282 0 2.373-0.819 2.778-1.962 0.134-0.405 0.252-0.877 0.337-1.361 0.1-0.699 0.277-1.274 0.53-1.806 0.249-0.419 0.5-0.799 0.77-1.165 0.385-0.526 0.817-1.087 1.232-1.648 0.096-0.109 0.155-0.252 0.155-0.41 0-0.126-0.038-0.244-0.103-0.342z"></path>
</svg>
