<svg width="32" height="32" viewBox="0 0 32 32" fill="none" xmlns="http://www.w3.org/2000/svg">
<path d="M15.9342 6.63043C16.6342 6.63043 17.2017 6.06294 17.2017 5.3629C17.2017 4.66286 16.6342 2.97223 15.9342 2.97223C15.2342 2.97223 14.6667 4.66286 14.6667 5.3629C14.6667 6.06294 15.2342 6.63043 15.9342 6.63043Z" fill="white"/>
<path d="M13.4485 6.36575C13.4485 7.06578 12.881 7.63328 12.1809 7.63328C11.4809 7.63328 10.9134 7.06578 10.9134 6.36575C10.9134 5.6657 11.4809 3.97508 12.1809 3.97508C12.881 3.97508 13.4485 5.6657 13.4485 6.36575Z" fill="white"/>
<path fill-rule="evenodd" clip-rule="evenodd" d="M16 7.38512C15.2636 7.38512 14.6667 7.98208 14.6667 8.71846V12.0513H13.5801V9.49889C13.5801 8.76251 12.9831 8.16556 12.2467 8.16556C11.5104 8.16556 10.9134 8.76251 10.9134 9.49889V12.0513H10.8099C8.60076 12.0513 6.8099 13.8422 6.8099 16.0513V19.2019H6.75684C4.5477 19.2019 2.75684 20.9927 2.75684 23.2019V29.0226H2.99121V29.0255H26.5766V29.0278H29.2432V23.2019C29.2432 20.9927 27.4524 19.2019 25.2432 19.2019H24.9784V16.0513C24.9784 13.8783 23.2457 12.1101 21.0866 12.0527V9.47318C21.0866 8.7368 20.4896 8.13984 19.7533 8.13984C19.0169 8.13984 18.4199 8.7368 18.4199 9.47318V12.0513H17.3333V8.71846C17.3333 7.98208 16.7364 7.38512 16 7.38512ZM26.5766 26.3588V23.2019C26.5766 22.4655 25.9796 21.8685 25.2432 21.8685H6.75684C6.02046 21.8685 5.4235 22.4655 5.4235 23.2019V26.3588H26.5766ZM22.3117 19.2019V16.0513C22.3117 15.3149 21.7148 14.718 20.9784 14.718H10.8099C10.0735 14.718 9.47656 15.3149 9.47656 16.0513V19.2019H22.3117Z" fill="white"/>
<path d="M21.317 6.34003C21.317 7.04007 20.7495 7.60756 20.0494 7.60756C19.3494 7.60756 18.7819 7.04007 18.7819 6.34003C18.7819 5.63999 19.3494 3.94936 20.0494 3.94936C20.7495 3.94936 21.317 5.63999 21.317 6.34003Z" fill="white"/>
</svg>
