<!-- Generated by IcoMoon.io -->
<svg version="1.1" xmlns="http://www.w3.org/2000/svg" width="32" height="32" viewBox="0 0 32 32">
<title>icn-sport-swimming</title>
<path d="M8.306 23.054c1.104 0.041 2.113 0.417 2.936 1.029 0.275 0.198 0.607 0.406 0.952 0.594 0.4 0.226 0.819 0.344 1.266 0.344s0.866-0.118 1.228-0.326c0.462-0.243 0.925-0.516 1.391-0.791 1.853-1.106 3.697-1.089 5.538 0.028 0.41 0.25 0.82 0.5 1.238 0.735 0.408 0.255 0.903 0.406 1.434 0.406 0.496 0 0.96-0.132 1.361-0.362 0.36-0.189 0.711-0.428 1.065-0.658s0.696-0.216 0.907 0.079c0.070 0.096 0.112 0.217 0.112 0.347 0 0.233-0.134 0.435-0.33 0.533-0.421 0.29-0.903 0.576-1.405 0.83-0.556 0.277-1.126 0.42-1.729 0.42-0.699 0-1.354-0.192-1.914-0.525-0.544-0.296-1.080-0.647-1.642-0.953-0.537-0.326-1.187-0.519-1.881-0.519-0.669 0-1.296 0.179-1.836 0.492-0.395 0.212-0.802 0.442-1.198 0.695-1.754 1.123-3.439 0.952-5.053-0.264-0.488-0.387-1.071-0.679-1.707-0.836-0.236-0.058-0.471-0.088-0.714-0.088-0.625 0-1.205 0.198-1.679 0.534-0.067 0.044-0.137 0.106-0.213 0.154-0.098 0.072-0.221 0.116-0.355 0.116-0.192 0-0.362-0.090-0.472-0.23-0.080-0.097-0.128-0.222-0.128-0.357 0-0.192 0.096-0.361 0.243-0.463 0.696-0.587 1.597-0.949 2.581-0.964zM27.394 22.041c-0.418 0.288-0.9 0.575-1.402 0.829-0.556 0.277-1.126 0.42-1.729 0.42-0.699 0-1.354-0.192-1.914-0.525-0.544-0.296-1.080-0.647-1.642-0.953-0.537-0.326-1.187-0.519-1.881-0.519-0.669 0-1.296 0.179-1.836 0.492-0.395 0.212-0.802 0.442-1.198 0.695-1.754 1.123-3.439 0.952-5.053-0.264-0.488-0.387-1.071-0.679-1.707-0.836-0.236-0.058-0.471-0.088-0.714-0.088-0.625 0-1.205 0.198-1.679 0.534-0.067 0.044-0.137 0.106-0.213 0.154-0.098 0.072-0.221 0.116-0.355 0.116-0.192 0-0.362-0.090-0.472-0.23-0.080-0.097-0.128-0.222-0.128-0.357 0-0.192 0.096-0.361 0.243-0.463 0.701-0.584 1.608-0.94 2.597-0.947 1.101 0.038 2.107 0.409 2.93 1.015 0.274 0.2 0.605 0.41 0.949 0.599 0.399 0.226 0.818 0.344 1.265 0.344s0.866-0.118 1.228-0.326c0.462-0.243 0.925-0.516 1.391-0.791 0.773-0.505 1.721-0.806 2.738-0.806 0.309 0 0.612 0.028 0.905 0.081l-0.031-2.073h-6.105v2.069c0 0.388-0.314 0.702-0.702 0.702s-0.702-0.314-0.702-0.702v-13.58c0-0.388 0.314-0.702 0.702-0.702s0.702 0.314 0.702 0.702v2.877h6.105v-2.877c0-0.388 0.314-0.702 0.702-0.702s0.702 0.314 0.702 0.702v13.58c0 0 0 0 0 0 0 0.151-0.048 0.292-0.131 0.406 0.263 0.119 0.476 0.234 0.682 0.36 0.38 0.233 0.79 0.483 1.208 0.719 0.408 0.255 0.903 0.406 1.434 0.406 0.496 0 0.96-0.132 1.361-0.362 0.36-0.189 0.711-0.428 1.065-0.658s0.696-0.216 0.907 0.079c0.069 0.096 0.111 0.216 0.111 0.346 0 0.234-0.135 0.437-0.332 0.534zM13.583 13.227h6.105v-2.316h-6.105zM19.688 16.738v-2.108h-6.105v2.108z"></path>
</svg>
