<svg xmlns="http://www.w3.org/2000/svg" width="24" height="24" viewBox="0 0 24 24" fill="none">
<g clipPath="url(#clip_icn_sport_ninja_parkour)">
<path d="M12 2.66406C12.1842 2.85325 12.25 3.05208 12.2468 3.31555C12.2218 3.49834 12.1316 3.65603 12.0488 3.81885C12.0295 3.85797 12.0102 3.8971 11.9903 3.93741C11.7977 4.32511 11.597 4.70876 11.3948 5.09151C11.2981 5.27488 11.2023 5.45874 11.1064 5.64258C11.0874 5.67907 11.0684 5.71555 11.0487 5.75315C10.894 6.04964 10.7402 6.34658 10.5864 6.64355C10.3827 7.03697 10.1772 7.42937 9.96875 7.82031C10.0813 7.82031 10.1568 7.80428 10.264 7.77367C10.319 7.75811 10.319 7.75811 10.375 7.74223C10.4354 7.72489 10.4354 7.72489 10.4969 7.70721C10.5394 7.69511 10.582 7.68302 10.6258 7.67056C10.768 7.63009 10.9101 7.5894 11.0523 7.54871C11.1525 7.52014 11.2527 7.49158 11.3529 7.46303C11.5661 7.40227 11.7794 7.34139 11.9926 7.28044C12.2962 7.19364 12.6 7.10709 12.9037 7.02059C13.8376 6.75462 14.7715 6.48837 15.7041 6.21783C15.8035 6.18903 15.9029 6.16028 16.0022 6.13155C16.0335 6.12253 16.0647 6.1135 16.0969 6.1042C16.1574 6.0867 16.218 6.0692 16.2785 6.05171C16.4477 6.00279 16.6167 5.95344 16.7857 5.90375C16.8632 5.88101 16.9408 5.85847 17.0185 5.83603C17.1094 5.80975 17.2003 5.78313 17.291 5.75608C17.582 5.67273 17.8527 5.6113 18.1401 5.73291C18.3373 5.8433 18.4908 6.00362 18.5625 6.21875C18.5909 6.48045 18.5711 6.70894 18.4062 6.92187C18.2407 7.07693 18.0951 7.15844 17.8762 7.22095C17.8448 7.23037 17.8135 7.2398 17.7812 7.2495C17.6642 7.2843 17.547 7.31798 17.4297 7.35156C17.3809 7.36563 17.3322 7.3797 17.282 7.39419C16.8856 7.50851 16.4886 7.62079 16.0916 7.73284C15.8114 7.81192 15.5314 7.89122 15.2513 7.9705C15.179 7.99097 15.1067 8.01143 15.0344 8.03189C14.523 8.17662 14.0119 8.32245 13.5011 8.46934C13.3953 8.49978 13.2894 8.53019 13.1836 8.56058C13.1146 8.5804 13.0456 8.60021 12.9766 8.62003C12.943 8.62969 12.9093 8.63935 12.8747 8.6493C12.6753 8.70659 12.476 8.76405 12.2767 8.82164C12.1533 8.85724 12.0299 8.89267 11.9065 8.92805C11.8493 8.94448 11.7922 8.96099 11.7351 8.97757C11.6572 9.00015 11.5794 9.02248 11.5014 9.04474C11.4579 9.0573 11.4144 9.06986 11.3695 9.0828C11.2578 9.10937 11.2578 9.10938 11.1016 9.10938C11.2071 9.24962 11.3151 9.35777 11.4531 9.46582C11.6152 9.59559 11.7702 9.72959 11.9219 9.87109C12.0677 10.0068 12.2158 10.1367 12.3711 10.2617C12.5476 10.4037 12.714 10.5534 12.8797 10.7076C13.0059 10.8244 13.1354 10.9351 13.2695 11.043C13.4461 11.185 13.6126 11.3348 13.7784 11.4891C13.9021 11.6036 14.0289 11.7117 14.1606 11.8169C14.3427 11.9642 14.5177 12.1178 14.6904 12.2759C14.7151 12.298 14.7397 12.3201 14.7651 12.3428C15.0181 12.5773 15.2254 12.8548 15.2469 13.2112C15.2487 13.4239 15.2249 13.62 15.1818 13.8278C15.1722 13.8763 15.1722 13.8763 15.1624 13.9258C15.1414 14.0313 15.1198 14.1368 15.0983 14.2423C15.0835 14.316 15.0687 14.3898 15.0539 14.4635C15.023 14.6175 14.9919 14.7713 14.9606 14.9252C14.9205 15.1226 14.8807 15.3202 14.8411 15.5177C14.8106 15.6697 14.78 15.8217 14.7493 15.9736C14.7346 16.0465 14.7199 16.1194 14.7052 16.1923C14.6848 16.2937 14.6642 16.3952 14.6435 16.4966C14.6374 16.5268 14.6314 16.557 14.6251 16.5882C14.5826 16.7957 14.5826 16.7957 14.5391 16.8828C14.5675 16.8739 14.596 16.8649 14.6253 16.8557C15.1212 16.6997 15.6172 16.5438 16.1132 16.388C16.1443 16.3782 16.1754 16.3684 16.2075 16.3584C16.3354 16.3182 16.4633 16.278 16.5912 16.2378C16.9735 16.1177 17.3558 15.9975 17.7381 15.8772C17.9747 15.8027 18.2114 15.7283 18.448 15.6539C18.5874 15.6102 18.7267 15.5663 18.8661 15.5224C19.2072 15.4149 19.5487 15.3082 19.8906 15.2031C19.932 15.1904 19.9735 15.1776 20.0161 15.1645C20.1291 15.13 20.2423 15.0962 20.3556 15.0627C20.3875 15.053 20.4195 15.0432 20.4524 15.0332C20.7892 14.9356 21.0887 14.9484 21.4141 15.0859C21.7159 15.2598 21.9076 15.4922 22 15.8281C22.0403 16.2541 21.9984 16.5702 21.7412 16.9121C21.5083 17.1603 21.1586 17.2641 20.8412 17.3627C20.8053 17.3742 20.7694 17.3856 20.7324 17.3974C20.613 17.4353 20.4935 17.4728 20.374 17.5103C20.2876 17.5376 20.2013 17.5649 20.1149 17.5923C19.832 17.6819 19.5488 17.7707 19.2656 17.8594C19.1935 17.882 19.1935 17.882 19.1199 17.9051C18.6639 18.048 18.2079 18.1907 17.7517 18.3329C17.1762 18.5123 16.6009 18.6922 16.0259 18.8732C15.9951 18.8829 15.9642 18.8926 15.9325 18.9026C15.6603 18.9882 15.388 19.0739 15.1158 19.1597C14.7545 19.2737 14.393 19.3873 14.0312 19.5C13.9897 19.513 13.9481 19.5259 13.9052 19.5393C13.7958 19.5733 13.6863 19.6069 13.5767 19.6404C13.531 19.6546 13.531 19.6546 13.4844 19.6691C13.0824 19.7905 12.7679 19.7613 12.3906 19.5781C12.1612 19.431 11.9805 19.1847 11.9003 18.9212C11.7994 18.428 11.9549 17.9171 12.0586 17.437C12.0756 17.3565 12.0925 17.276 12.1094 17.1955C12.1505 17 12.1923 16.8047 12.2344 16.6094C11.3214 16.7601 10.4092 16.9145 9.49776 17.0741C9.33565 17.1025 9.17351 17.1306 9.01135 17.1587C8.88429 17.1807 8.75726 17.2029 8.63024 17.2252C8.57034 17.2357 8.51042 17.2461 8.4505 17.2564C8.36787 17.2707 8.28528 17.2852 8.20271 17.2998C8.13269 17.312 8.13269 17.312 8.06126 17.3245C7.85123 17.3704 7.73194 17.4237 7.59326 17.5884C7.42847 17.7784 7.25842 17.9624 7.08545 18.145C6.89805 18.3435 6.71117 18.5423 6.52637 18.7432C6.24589 19.048 5.96289 19.3504 5.68004 19.653C5.35217 20.0037 5.35217 20.0037 5.02595 20.3559C4.98801 20.3971 4.95003 20.4382 4.91201 20.4793C4.8054 20.5944 4.69964 20.7103 4.5946 20.8269C4.5468 20.8794 4.49899 20.9319 4.45117 20.9844C4.42952 21.0087 4.40787 21.0331 4.38556 21.0582C4.11309 21.3555 3.83414 21.5061 3.43066 21.5435C3.04229 21.51 2.77103 21.3648 2.49805 21.0918C2.28937 20.7639 2.22327 20.4563 2.28915 20.0725C2.38971 19.6992 2.69073 19.4235 2.96207 19.164C3.06469 19.0602 3.15939 18.9512 3.25501 18.8409C3.3745 18.7051 3.49906 18.5741 3.62353 18.4429C3.67873 18.3844 3.73392 18.326 3.78909 18.2675C3.81657 18.2385 3.84404 18.2094 3.87235 18.1794C4.18092 17.8522 4.48687 17.5225 4.79165 17.1917C5.07887 16.8803 5.36862 16.5711 5.65814 16.2618C5.68147 16.2368 5.70479 16.2119 5.72883 16.1861C5.77521 16.1366 5.82167 16.0871 5.86822 16.0377C5.97063 15.9286 6.07137 15.8191 6.16717 15.7041C6.1987 15.6669 6.23022 15.6296 6.26269 15.5913C6.28858 15.5594 6.31446 15.5276 6.34112 15.4947C6.68767 15.1968 7.1047 15.1108 7.54321 15.04C7.60173 15.03 7.66024 15.0199 7.71874 15.0098C7.87115 14.9835 8.0237 14.9581 8.17629 14.933C8.33197 14.9071 8.48751 14.8805 8.64307 14.8539C8.81782 14.8241 8.99258 14.7943 9.16746 14.7652C9.19394 14.7608 9.22041 14.7563 9.24769 14.7518C9.319 14.7399 9.39032 14.7281 9.46165 14.7162C9.55405 14.6996 9.64381 14.6807 9.73437 14.6563C9.70879 14.6359 9.68321 14.6155 9.65686 14.5945C9.45529 14.4319 9.2598 14.2662 9.07031 14.0898C8.92448 13.9541 8.77642 13.8242 8.62109 13.6992C8.44462 13.5572 8.27819 13.4075 8.11252 13.2534C7.98624 13.1365 7.85675 13.0259 7.72266 12.918C7.54639 12.7761 7.37985 12.6269 7.21477 12.4725C7.08309 12.3501 6.94638 12.2377 6.80469 12.127C6.60347 11.9623 6.48567 11.8515 6.43344 11.5883C6.41206 11.3365 6.47393 11.1498 6.59076 10.9301C6.60471 10.903 6.61865 10.876 6.63302 10.8481C6.66232 10.7914 6.69178 10.7348 6.72141 10.6783C6.76383 10.5972 6.80566 10.5158 6.84726 10.4343C6.92864 10.2748 7.01066 10.1156 7.09277 9.95654C7.10728 9.9284 7.12179 9.90026 7.13673 9.87127C7.31435 9.52677 7.49286 9.18279 7.67413 8.8402C7.82062 8.56298 7.96452 8.28444 8.1084 8.00586C8.30459 7.62601 8.50147 7.24653 8.69949 6.86763C8.85141 6.5768 9.00244 6.28551 9.15332 5.99414C9.32114 5.67011 9.48983 5.34658 9.66041 5.024C9.77061 4.81514 9.87914 4.60546 9.98719 4.39548C10.1117 4.15346 10.2369 3.91178 10.3626 3.67036C10.3974 3.60359 10.432 3.53678 10.4667 3.46997C10.5288 3.35076 10.5917 3.23196 10.6548 3.11328C10.682 3.06084 10.682 3.06084 10.7097 3.00734C10.8417 2.76193 10.9665 2.60295 11.231 2.49316C11.5297 2.44254 11.753 2.48972 12 2.66406Z" fill="currentColor"/>
<path d="M5.42057 8.12686C5.8752 8.50149 6.10906 9.04255 6.17969 9.61719C6.22147 10.1268 6.05537 10.647 5.7471 11.0517C5.39131 11.4633 4.94122 11.8033 4.37892 11.8507C3.96453 11.862 3.59386 11.8677 3.21094 11.6875C3.1558 11.6626 3.1558 11.6626 3.09955 11.6373C2.6008 11.3907 2.25288 10.9615 2.06104 10.4424C1.89399 9.8371 1.96054 9.21057 2.26856 8.66748C2.604 8.14512 3.07473 7.82856 3.68457 7.69092C4.32013 7.586 4.90052 7.75246 5.42057 8.12686Z" fill="currentColor"/>
</g>
<defs>
<clipPath id="clip_icn_sport_ninja_parkour">
<rect width="20" height="20" fill="white" transform="translate(2 2)"/>
</clipPath>
</defs>
</svg>
