<!-- Generated by IcoMoon.io -->
<svg version="1.1" xmlns="http://www.w3.org/2000/svg" width="32" height="32" viewBox="0 0 32 32">
<title>icn-sport-roller-derby</title>
<path d="M6.55 20.4c1.681 0 3.044 1.363 3.044 3.044s-1.363 3.044-3.044 3.044-3.038-1.363-3.038-3.044c0-1.681 1.356-3.044 3.038-3.044zM22.3 20.4c1.681 0 3.044 1.363 3.044 3.044s-1.363 3.044-3.044 3.044-3.044-1.363-3.044-3.044c0.006-1.681 1.363-3.044 3.044-3.044zM2.269 18.269l1.406 2.156c0.775-0.663 1.781-1.063 2.875-1.063 1.275 0 2.419 0.538 3.231 1.4l0.706-0.6h7.863l0.706 0.6c0.813-0.863 1.962-1.4 3.231-1.4 1.094 0 2.1 0.4 2.875 1.063l1.719-2.156h-24.613zM20.994 10.713c-0.837 0-1.606-0.088-2.306-0.244l-0.438 2.144-1.613-0.325 0.469-2.325c-0.319-0.137-0.613-0.287-0.894-0.45l-1.081 1.863-1.419-0.831 1.162-1.994c-0.294-0.262-0.563-0.537-0.813-0.819l-1.5 1.525-1.175-1.156 1.688-1.713c-0.213-0.35-0.238-0.356-0.4-0.694l-0.088-0.175c-1.9 2.3-4.231 4.212-7.394 4.212-0.856 0-1.688-0.131-2.462-0.369-0.356 1.944-0.738 3.588-0.738 6.338v1.119h4.225c3.25-0.606 6.575-4.662 6.956-5.356l1.375 0.75c-0.244 0.45-1.325 1.856-2.825 3.206-0.5 0.45-1.1 0.944-1.769 1.4h1.794c2.15-1.5 3.781-3.619 3.988-3.988l1.375 0.75c-0.212 0.394-1.294 1.838-2.856 3.244h12.613v-1.119c-0.019-3.244-2.637-4.994-5.875-4.994zM26.288 21.731l0.956 1.169c0.256 0.219 0.644 0.194 0.869-0.063l1.756-2.019c0.219-0.256 0.194-0.644-0.063-0.869l-1.294-0.788c-0.538-0.462-1.356-0.406-1.819 0.125l-0.538 0.613c-0.462 0.544-0.406 1.363 0.131 1.831z"></path>
</svg>
