<!-- Generated by IcoMoon.io -->
<svg version="1.1" xmlns="http://www.w3.org/2000/svg" width="32" height="32" viewBox="0 0 32 32">
<title>icn-sport-catchball</title>
<path d="M9.346 7.718c0.657 1.286 1.612 2.336 2.779 3.087 1.176-0.499 5.169-1.978 8.727-0.166-0.124-0.936-0.362-1.784-0.702-2.578-4.226-2.845-9.214-1.046-10.804-0.344zM17.997 12.602c0.087-0.027 0.195-0.053 0.305-0.071 0.148-0.024 0.301-0.037 0.457-0.037 0.001 0 0.003 0 0.004 0 0.004-0 0.008-0 0.013-0 0.388 0 0.755 0.086 1.085 0.24 0.178-0.338 0.433-0.613 0.738-0.822-0.724-0.419-1.578-0.72-2.485-0.859-0.037 0.102-0.035 0.227-0.035 0.353 0 0.422-0.029 0.837-0.086 1.243zM14.365 19.478c0.323-0.17 0.706-0.271 1.113-0.271 0.241 0.002 0.473 0.036 0.694 0.098q0.239-0.137 0.489-0.29-0.132-1.019-0.264-2.038c-0.6 0.946-1.271 1.766-2.027 2.497zM18.883 6.090c-1.595-1.968-4.013-3.216-6.722-3.216-1.417 0-2.755 0.342-3.935 0.947 0.118 1.005 0.316 1.962 0.625 2.867 1.528-0.775 5.817-2.333 10.032-0.597zM10.233 15.962c0.741-1.221 1.332-2.626 1.256-4.104-3.29-2.143-4.139-5.433-4.362-7.357-0.865 0.604-1.59 1.341-2.162 2.19-0.019 0.063-0.019 0.104-0.019 0.144 0 3.885 2.105 7.278 5.237 9.101zM16.191 14.703c0.048-0.35 0.161-0.666 0.326-0.947 0.218-0.719 0.347-1.56 0.347-2.43 0-0.111-0.002-0.222-0.006-0.332-1.507 0.072-2.921 0.407-4.214 0.97 0.225 3.296-2.36 6.256-3.807 7.661 0.791 0.325 1.708 0.549 2.666 0.627 2.652-1.817 4.002-3.831 4.687-5.549zM3.948 8.717c-0.295 0.848-0.466 1.826-0.47 2.844 0.006 3.138 1.671 5.884 4.164 7.409 0.733-0.589 1.352-1.256 1.899-1.98-2.952-1.769-5.051-4.732-5.585-8.21zM28.588 17.061c-0.14-0.267-0.415-0.446-0.732-0.446-0.040 0-0.079 0.003-0.117 0.008-0.24 0.044-0.447 0.181-0.581 0.372l-2.489 2.925c-0.024 0.028-0.038 0.063-0.070 0.080-0.047 0.025-0.104 0.051-0.163 0.073-0.016-0.023-0.019-0.053-0.019-0.083s0.003-0.061 0.009-0.090c0.097-0.268 0.205-0.536 0.313-0.804l1.6-4.017c0.041-0.094 0.065-0.204 0.065-0.32 0-0.335-0.202-0.624-0.491-0.75l-0.005-0.002c-0.103-0.052-0.225-0.082-0.353-0.082-0.313 0-0.585 0.18-0.716 0.443l-0.023 0.053q-1.096 2.383-2.184 4.765c-0.035 0.080-0.077 0.153-0.118 0.233l-0.073-0.024c0.021-0.24 0.035-0.483 0.059-0.723q0.205-2.226 0.414-4.449c0.052-0.567-0.184-0.925-0.696-1.012-0.052-0.012-0.111-0.019-0.172-0.019-0.412 0-0.751 0.311-0.795 0.711q-0.379 2.588-0.759 5.172c-0.017 0.081-0.036 0.148-0.059 0.214l-0.059-0.012c-0.021-0.070-0.045-0.136-0.059-0.205q-0.372-2.028-0.755-4.097c-0.053-0.397-0.389-0.7-0.797-0.7-0.031 0-0.061 0.002-0.090 0.005l-0.097-0c-0.398 0.049-0.703 0.384-0.703 0.791 0 0.038 0.003 0.074 0.008 0.111q-0 0.027-0 0.055 0.285 2.233 0.581 4.47c0.024 0.165 0.038 0.356 0.038 0.55 0 0.348-0.044 0.686-0.127 1.009-0.056 0.309-0.348 0.561-0.699 0.561-0.134 0-0.259-0.037-0.366-0.1l-1.468-0.694c-0.112-0.064-0.246-0.101-0.388-0.101-0.44 0-0.797 0.357-0.797 0.797 0 0.12 0.027 0.234 0.074 0.336 0.086 0.157 0.203 0.293 0.343 0.4 0.601 0.545 1.217 1.067 1.808 1.62 0.555 0.538 1.030 1.154 1.409 1.831 0.651 1.188 1.852 1.953 3.232 1.953 1.595 0 2.951-1.022 3.449-2.447 0.165-0.502 0.31-1.088 0.414-1.687 0.123-0.866 0.343-1.578 0.656-2.237 0.309-0.519 0.62-0.99 0.955-1.443 0.477-0.651 1.012-1.347 1.527-2.043 0.124-0.136 0.2-0.318 0.2-0.517 0-0.16-0.049-0.308-0.132-0.431z"></path>
</svg>
