<!-- Generated by IcoMoon.io -->
<svg version="1.1" xmlns="http://www.w3.org/2000/svg" width="32" height="32" viewBox="0 0 32 32">
<title>icn-sport-soccer</title>
<path d="M16 11.509l4.211 3.088-1.404 5.053h-5.614l-1.403-5.053zM16 7.298l-2.246-1.123c0 0 1.137-0.281 2.246-0.281s2.246 0.281 2.246 0.281l-2.246 1.123zM24.276 13.311l0.374-2.483c0 0 0.618 0.995 0.961 2.049s0.427 2.222 0.427 2.222l-1.762-1.789zM21.115 23.040l2.477-0.412c0 0-0.755 0.895-1.652 1.547s-1.982 1.093-1.982 1.093l1.157-2.228zM10.885 23.040l1.157 2.228c0 0-1.085-0.441-1.982-1.093s-1.652-1.547-1.652-1.547l2.477 0.412zM7.724 13.311l-1.762 1.789c0 0 0.084-1.168 0.427-2.222s0.961-2.049 0.961-2.049l0.374 2.483zM18.246 25.825c0.003-0.001-1.122 0.281-2.246 0.281-1.129 0-2.255-0.281-2.246-0.281l-1.684-3.368 1.123-1.684h5.614l1.123 1.684-1.684 3.368zM7.35 21.172c0.002 0.003-0.614-0.981-0.961-2.049-0.349-1.073-0.429-2.231-0.427-2.222l2.683-2.643 1.949 0.547 1.735 5.339-1.255 1.588-3.724-0.561zM8.409 9.372c-0.002 0.003 0.743-0.887 1.652-1.547 0.913-0.663 1.989-1.097 1.982-1.093l3.342 1.735 0.082 2.023-4.542 3.3-1.898-0.703-0.617-3.715zM19.958 6.732c-0.003-0.001 1.073 0.433 1.982 1.093 0.913 0.663 1.659 1.553 1.652 1.547l-0.617 3.715-1.898 0.703-4.542-3.3 0.082-2.023 3.342-1.735zM26.038 16.9c0-0.004-0.080 1.154-0.427 2.222-0.349 1.073-0.964 2.057-0.961 2.049l-3.724 0.561-1.255-1.588 1.735-5.339 1.949-0.547 2.683 2.643z"></path>
</svg>
