<!-- Generated by IcoMoon.io -->
<svg version="1.1" xmlns="http://www.w3.org/2000/svg" width="32" height="32" viewBox="0 0 32 32">
<title>icn-sport-surfing</title>
<path d="M18.526 12.222l-1.443-4.755c0.236-0.126 0.469-0.247 0.707-0.356 0.474-0.225 0.935-0.413 1.381-0.561l1.162 3.865zM16.087 8.045c-0.227 0.143-0.452 0.281-0.674 0.441-1.022 0.716-1.918 1.473-2.742 2.301-0.765 0.763-1.49 1.563-2.173 2.397-1.926 2.404-3.555 5.079-4.819 7.95-0.096 0.244-0.1 0.261-0.1 0.279 0 0.064 0.048 0.117 0.11 0.125l0.037 0c0.909 0.161 1.706 0.559 2.349 1.127l9.539-9.548zM8.865 23.458c0.565 0.638 0.963 1.436 1.119 2.318l0.004 0.062c0.005 0.041 0.028 0.075 0.061 0.095 0.017 0.009 0.036 0.014 0.057 0.014s0.040-0.005 0.057-0.014c3.103-1.351 5.78-2.978 8.2-4.911 0.386-0.315 0.84-0.711 1.29-1.121l-1.684-5.558zM24.966 5.774c-0.379-0.041-0.818-0.064-1.263-0.064-1.233 0-2.424 0.178-3.55 0.51l1.082 3.281zM21.614 10.723l1.566 5.21c0.425-0.62 0.838-1.334 1.197-2.079 1.59-3.373 1.52-6.087 1.38-7.274zM18.894 13.443l1.684 5.592 0.18-0.174c0.553-0.554 1.075-1.14 1.562-1.754l-1.618-5.482z"></path>
</svg>
