<!-- Generated by IcoMoon.io -->
<svg version="1.1" xmlns="http://www.w3.org/2000/svg" width="32" height="32" viewBox="0 0 32 32">
<title>icn-sport-crossfit</title>
<path d="M21.844 13.561c0.744-1.302 1.76-3.618 0.797-5.333-0.677-1.204-2.097-1.816-4.211-1.816h-5.277c-2.125 0-3.548 0.612-4.211 1.816-0.988 1.757 0.107 4.149 0.842 5.429-1.099 1.242-1.772 2.885-1.777 4.684 0 4.085 3.514 7.397 7.86 7.397s7.86-3.312 7.86-7.396c-0.012-1.848-0.726-3.527-1.888-4.785zM16 20.629h-1.373l-1.027-1.274-0.216 0.227v1.075h-1.123v-3.795h1.098v1.215l1.204-1.215h1.488l-1.665 1.684zM19.826 20.031l-0.073 0.073c-0.383 0.362-0.901 0.585-1.472 0.585-0.043 0-0.086-0.001-0.129-0.004-0.007 0.001-0.023 0.001-0.038 0.001-0.553 0-1.056-0.214-1.431-0.563-0.373-0.338-0.608-0.826-0.608-1.368 0-0.007 0-0.014 0-0.021-0.001-0.020-0.001-0.045-0.001-0.070 0-0.533 0.239-1.010 0.616-1.33 0.389-0.35 0.903-0.564 1.468-0.564 0 0 0 0 0 0 0.025-0.001 0.054-0.002 0.083-0.002 0.518 0 0.992 0.185 1.361 0.493l0.176 0.152-0.66 0.834-0.216-0.16c-0.102-0.078-0.219-0.145-0.344-0.196-0.097-0.027-0.197-0.040-0.301-0.040-0.029 0-0.058 0.001-0.086 0.003-0.007-0.001-0.020-0.001-0.033-0.001-0.259 0-0.496 0.095-0.678 0.252-0.172 0.146-0.281 0.363-0.281 0.606 0 0.016 0 0.031 0.001 0.046-0.001 0.011-0.001 0.027-0.001 0.043 0 0.241 0.098 0.459 0.257 0.617 0.16 0.15 0.376 0.242 0.613 0.242 0.011 0 0.023-0 0.034-0.001 0.004 0 0.012 0 0.019 0 0.195 0 0.381-0.039 0.55-0.11l-0.009-0.999h1.154zM20.205 12.171c-1.232-0.771-2.728-1.228-4.331-1.228-1.65 0-3.186 0.484-4.476 1.318-0.509-1.067-0.97-2.38-0.566-3.107 0.331-0.595 1.448-0.733 2.321-0.733h5.266c0.876 0 1.99 0.129 2.335 0.744 0.393 0.707-0.037 1.979-0.564 3.015z"></path>
</svg>
