<svg width="32" height="32" viewBox="0 0 32 32" fill="none" xmlns="http://www.w3.org/2000/svg">
<path d="M5.4373 2.91901C3.96454 2.91901 2.77063 4.11291 2.77063 5.58567V21.6803C2.77063 23.1531 3.96454 24.347 5.4373 24.347H6.69644C7.43282 24.347 8.02978 23.75 8.02978 23.0137C8.02978 22.2773 7.43282 21.6803 6.69644 21.6803H5.4373V5.58567L25.5095 5.58567V11.9551C25.5095 12.6915 26.1064 13.2884 26.8428 13.2884C27.5792 13.2884 28.1761 12.6915 28.1761 11.9551V5.58567C28.1761 4.11292 26.9822 2.91901 25.5095 2.91901H5.4373Z" fill="white"/>
<path fill-rule="evenodd" clip-rule="evenodd" d="M15.2806 18.3511C17.6476 18.3511 19.5725 16.4262 19.5725 14.0592C19.5725 11.6922 17.6476 9.76723 15.2806 9.76723C12.9136 9.76723 10.9886 11.6922 10.9886 14.0592C10.9886 16.4262 12.9136 18.3511 15.2806 18.3511ZM17.4266 14.0592C17.4266 12.8757 16.4641 11.9132 15.2806 11.9132C14.0971 11.9132 13.1346 12.8757 13.1346 14.0592C13.1346 15.2427 14.0971 16.2052 15.2806 16.2052C16.4641 16.2052 17.4266 15.2427 17.4266 14.0592Z" fill="white"/>
<path fill-rule="evenodd" clip-rule="evenodd" d="M23.8645 20.4971C25.6392 20.4971 27.0834 19.0529 27.0834 17.2782C27.0834 15.5034 25.6392 14.0592 23.8645 14.0592C22.0898 14.0592 20.6455 15.5034 20.6455 17.2782C20.6455 19.0529 22.0898 20.4971 23.8645 20.4971ZM24.9375 17.2782C24.9375 16.6869 24.4568 16.2052 23.8645 16.2052C23.2722 16.2052 22.7915 16.6869 22.7915 17.2782C22.7915 17.8694 23.2722 18.3511 23.8645 18.3511C24.4568 18.3511 24.9375 17.8694 24.9375 17.2782Z" fill="white"/>
<path d="M28.1564 28.008C28.7498 28.008 29.2294 27.5273 29.2294 26.9351C29.2294 23.9768 26.8227 21.5701 23.8645 21.5701C22.6617 21.5701 21.5136 21.9714 20.5811 22.6925C19.2217 21.3373 17.3482 20.4971 15.2806 20.4971C11.1399 20.4971 7.76965 23.8663 7.76965 28.008C7.76965 28.6003 8.24928 29.081 8.84264 29.081C9.436 29.081 9.91563 28.6003 9.91563 28.008C9.91563 25.0498 12.3223 22.6431 15.2806 22.6431C18.2388 22.6431 20.6455 25.0498 20.6455 28.008C20.6455 28.6003 21.1251 29.081 21.7185 29.081C22.3119 29.081 22.7915 28.6003 22.7915 28.008C22.7915 26.7065 22.4567 25.4812 21.873 24.4125C22.4353 23.9672 23.1316 23.7161 23.8645 23.7161C25.6392 23.7161 27.0834 25.1603 27.0834 26.9351C27.0834 27.5273 27.5631 28.008 28.1564 28.008Z" fill="white"/>
</svg>
