<!-- Generated by IcoMoon.io -->
<svg version="1.1" xmlns="http://www.w3.org/2000/svg" width="32" height="32" viewBox="0 0 32 32">
<title>icn-sport-adventure</title>
<path d="M19.048 12.491c-0.099 0.026-0.185 0.060-0.265 0.102q-1.862 0.881-3.726 1.768c-0.372 0.178-0.664 0.471-0.838 0.832q-0.908 1.9-1.801 3.794c-0.049 0.101-0.081 0.218-0.090 0.342-0.014 0.284 0.194 0.491 0.561 0.489 0.142-0.045 0.257-0.089 0.368-0.138l3.584-1.715c0.418-0.194 0.747-0.521 0.938-0.926q0.872-1.842 1.742-3.661c0.042-0.080 0.080-0.173 0.107-0.27 0.016-0.053 0.024-0.102 0.024-0.153 0-0.265-0.215-0.48-0.48-0.48-0.045 0-0.088 0.006-0.129 0.018zM16 16.968c-0.451-0-0.817-0.366-0.817-0.817s0.366-0.817 0.817-0.817c0.451 0 0.817 0.366 0.817 0.817 0 0.004-0 0.008-0 0.012-0.005 0.445-0.367 0.805-0.814 0.805-0.001 0-0.002 0-0.003 0zM16.090 5.839c-0.003 0-0.005 0-0.008 0-5.617 0-10.172 4.546-10.187 10.16 0 0.083 0 0.164 0 0.246-0.001 0.009-0.001 0.020-0.001 0.031s0 0.022 0.001 0.032c-0.002 0.014-0.002 0.031-0.002 0.049s0.001 0.035 0.002 0.053c0.224 5.44 4.691 9.766 10.167 9.766 5.62 0 10.175-4.556 10.175-10.175s-4.556-10.175-10.175-10.175c-0.001 0-0.002 0-0.003 0zM25.123 15.756h-2.175c-0.059-1.59-0.652-3.030-1.603-4.159l0.393-0.369c0.112-0.103 0.182-0.25 0.182-0.414 0-0.31-0.251-0.561-0.561-0.561-0.166 0-0.315 0.072-0.417 0.186l-0.377 0.368c-1.067-0.927-2.436-1.532-3.943-1.649l-0.023-2.183c4.678 0.284 8.383 4.077 8.525 8.767zM16.076 21.766c-3.178 0-5.754-2.576-5.754-5.754s2.576-5.754 5.754-5.754c3.174 0 5.748 2.57 5.754 5.743 0 0.002 0 0.004 0 0.006 0 3.179-2.576 5.757-5.754 5.76zM15.475 6.981v2.181c-1.501 0.134-2.84 0.734-3.896 1.652l-0.368-0.386c-0.102-0.102-0.243-0.165-0.399-0.165-0.312 0-0.565 0.253-0.565 0.565 0 0.156 0.063 0.298 0.166 0.4l0.385 0.387c-0.94 1.117-1.531 2.554-1.591 4.128l-2.19 0.013c0.142-4.679 3.81-8.457 8.43-8.773zM7.054 16.879h2.209c0.185 1.419 0.779 2.674 1.66 3.671l-0.509 0.504c-0.101 0.102-0.163 0.241-0.163 0.396 0 0.31 0.252 0.562 0.562 0.562 0.156 0 0.297-0.063 0.399-0.166l0.502-0.511c1.024 0.85 2.318 1.409 3.735 1.536l0.026 2.183c-4.435-0.309-7.973-3.766-8.407-8.136zM16.598 25.050v-2.184c1.473-0.11 2.797-0.67 3.855-1.542l0.491 0.515c0.097 0.081 0.222 0.13 0.359 0.13 0.31 0 0.561-0.251 0.561-0.561 0-0.135-0.047-0.258-0.127-0.355l-0.493-0.496c0.874-0.989 1.469-2.244 1.65-3.629l2.193-0.035c-0.453 4.424-4.027 7.883-8.463 8.153z"></path>
</svg>
