<!-- Generated by IcoMoon.io -->
<svg version="1.1" xmlns="http://www.w3.org/2000/svg" width="32" height="32" viewBox="0 0 32 32">
<title>icn-sport-football</title>
<path d="M13.106 26.199c-2.762 0.364-5.075-0.024-5.757-0.706-0.665-0.665-1.050-2.882-0.731-5.554 0.627 1.253 1.476 2.445 2.541 3.51 1.188 1.188 2.534 2.108 3.947 2.749zM25.996 12.68c0.217-2.444-0.161-4.428-0.783-5.050-0.607-0.607-2.507-0.981-4.865-0.799 1.104 0.602 2.154 1.379 3.102 2.328 1.068 1.068 1.919 2.264 2.546 3.521zM15.77 25.629c2.131-0.637 4.306-1.748 6.069-3.51 1.947-1.947 3.099-4.397 3.695-6.735-0.501-1.862-1.534-3.691-3.076-5.233-1.393-1.393-3.021-2.371-4.696-2.916-2.429 0.572-5.008 1.738-7.038 3.769-1.85 1.85-2.982 4.155-3.602 6.387 0.517 1.804 1.534 3.571 3.030 5.067 1.648 1.648 3.625 2.715 5.619 3.172zM14.184 17.931l1.389-1.389-1.94-1.94c-0.274-0.274-0.274-0.718 0-0.992s0.718-0.274 0.992 0l1.94 1.94 1.273-1.273-1.94-1.94c-0.274-0.274-0.274-0.718 0-0.992s0.718-0.274 0.992 0l1.94 1.94 1.296-1.296c0.274-0.274 0.718-0.274 0.992 0s0.274 0.718 0 0.992l-1.296 1.296 1.832 1.832c0.274 0.274 0.274 0.718 0 0.992s-0.718 0.274-0.992 0l-1.832-1.832-1.273 1.273 1.832 1.832c0.274 0.274 0.274 0.718 0 0.992s-0.718 0.274-0.992 0l-1.832-1.832-1.389 1.389 1.832 1.832c0.274 0.274 0.274 0.718 0 0.992s-0.718 0.274-0.992 0l-1.832-1.832-1.204 1.204c-0.274 0.274-0.718 0.274-0.992 0s-0.274-0.718 0-0.992l1.204-1.204-1.94-1.94c-0.274-0.274-0.274-0.718 0-0.992s0.718-0.274 0.992 0l1.94 1.94z"></path>
</svg>
