<!-- Generated by IcoMoon.io -->
<svg version="1.1" xmlns="http://www.w3.org/2000/svg" width="32" height="32" viewBox="0 0 32 32">
<title>icn-sport-baseball-2</title>
<path d="M12.94 20.323l-1.179-1.207c0.281-0.281 0.561-0.589 0.842-0.898l1.263 1.291c-0.309 0.281-0.618 0.533-0.926 0.814zM5.951 24.646l1.291 1.319c0.112 0.112 0.253 0.168 0.393 0.168s0.281-0.056 0.393-0.168c0.225-0.225 0.225-0.561 0-0.786l-0.197-0.197 0.112-0.084c0.926-0.842 2.498-2.246 3.958-3.593l-1.123-1.151c-1.319 1.375-2.779 2.863-3.705 3.874l-0.112 0.112-0.197-0.281c-0.112-0.112-0.253-0.168-0.393-0.168s-0.281 0.056-0.393 0.168c-0.253 0.225-0.253 0.561-0.028 0.786zM15.888 6.961c0.477-0.477 1.123-0.73 1.74-0.73-0.028 0.168-0.056 0.309-0.084 0.449l-0.253-0.028-0.028 0.309 0.168 0.028c-0.056 0.197-0.14 0.337-0.225 0.505l-0.168-0.084-0.14 0.281 0.14 0.084c-0.112 0.14-0.225 0.253-0.337 0.365l-0.112-0.168-0.253 0.197 0.112 0.168c-0.197 0.14-0.393 0.197-0.561 0.281l-0.084-0.225-0.309 0.112 0.056 0.197c-0.168 0.028-0.309 0.056-0.393 0.056 0-0.674 0.225-1.319 0.73-1.796zM17.965 6.232c0.533 0.056 1.039 0.309 1.432 0.702s0.618 0.898 0.702 1.432c-0.168 0.028-0.337 0.056-0.505 0.084l-0.028-0.253-0.309 0.028 0.028 0.309c-0.225 0.084-0.421 0.168-0.618 0.281l-0.14-0.281-0.281 0.14 0.168 0.281c-0.168 0.14-0.309 0.281-0.449 0.421l-0.225-0.168-0.225 0.337 0.225 0.168c-0.14 0.197-0.225 0.421-0.309 0.646l-0.225-0.084-0.084 0.281 0.225 0.084c-0.056 0.197-0.056 0.365-0.084 0.505-0.505-0.084-1.011-0.309-1.403-0.702s-0.646-0.898-0.702-1.403c0.14 0 0.281-0.028 0.477-0.056l0.084 0.197 0.309-0.084-0.056-0.197c0.196-0.056 0.421-0.168 0.646-0.309l0.14 0.197 0.253-0.197-0.14-0.197c0.168-0.14 0.309-0.281 0.449-0.477l0.253 0.14 0.14-0.281-0.225-0.14c0.112-0.197 0.197-0.393 0.281-0.618l0.281 0.028 0.028-0.309-0.197-0.028c0.028-0.14 0.056-0.309 0.084-0.477zM19.368 10.442c-0.505 0.505-1.123 0.73-1.768 0.73 0-0.084 0.028-0.253 0.056-0.421l0.168 0.056 0.112-0.309-0.197-0.056c0.056-0.197 0.14-0.365 0.281-0.561l0.14 0.084 0.197-0.253-0.14-0.084c0.084-0.112 0.197-0.225 0.337-0.337l0.056 0.112 0.281-0.14-0.084-0.14c0.14-0.084 0.309-0.168 0.505-0.225v0.14l0.309-0.028-0.028-0.197c0.14-0.056 0.309-0.084 0.477-0.084 0.028 0.589-0.197 1.235-0.702 1.712zM17.937 12.547c-0.842 0.898-1.712 1.796-2.526 2.667l-0.084 0.084c-0.589 0.618-1.179 1.263-1.796 1.881l1.319 1.347c0.449-0.421 0.926-0.842 1.375-1.263l0.056-0.056c3.649-3.368 8.449-7.888 9.207-8.561 0.505-0.449 0.646-1.207 0.337-1.825-0.225-0.449-0.674-0.73-1.179-0.73-0.112 0-0.225 0-0.337 0.028-0.337 0.084-0.702 0.281-0.926 0.533-0.449 0.477-1.123 1.207-1.965 2.105 0.056 2.021-1.516 3.649-3.481 3.789z"></path>
</svg>
