<!-- Generated by IcoMoon.io -->
<svg version="1.1" xmlns="http://www.w3.org/2000/svg" width="32" height="32" viewBox="0 0 32 32">
<title>icn-sport-spining</title>
<path d="M22.091 5.847h-2.566c-0.445 0.003-0.845 0.197-1.122 0.504l-4.93 0.001c-0.278-0.308-0.677-0.502-1.122-0.505h-2.566c-0.845 0-1.53 0.685-1.53 1.53s0.685 1.53 1.53 1.53h2.566c0.445-0.003 0.845-0.197 1.122-0.504l1.483-0.001v5.353c-2.226 0.496-3.865 2.454-3.865 4.795 0 0.002 0 0.004 0 0.005v4.339h3.11v1.527c0 0.988 0.801 1.788 1.788 1.788s1.788-0.801 1.788-1.788v-1.527h3.113v-4.34c0-0.001 0-0.002 0-0.003 0-2.345-1.645-4.306-3.844-4.791l-0.033-5.359h1.378c0.278 0.308 0.677 0.502 1.122 0.505h2.577c0.845 0 1.53-0.685 1.53-1.53s-0.685-1.53-1.53-1.53zM19.003 18.554v2.448h-1.224v-2.42c0-0.988-0.801-1.788-1.788-1.788s-1.788 0.801-1.788 1.788v2.42h-1.224v-2.448c0-1.662 1.347-3.009 3.009-3.009s3.009 1.347 3.009 3.009z"></path>
</svg>
