<!-- Generated by IcoMoon.io -->
<svg version="1.1" xmlns="http://www.w3.org/2000/svg" width="32" height="32" viewBox="0 0 32 32">
<title>icn-sport-golf</title>
<path d="M19.281 22.344h-5.114c-0.388 0-0.702 0.314-0.702 0.702s0.314 0.702 0.702 0.702h1.855v1.884c0 0.388 0.314 0.702 0.702 0.702s0.702-0.314 0.702-0.702v-1.884h1.855c0.388 0 0.702-0.314 0.702-0.702s-0.314-0.702-0.702-0.702zM16.724 5.524c-4.546 0.002-8.23 3.687-8.23 8.233 0 3.263 1.898 6.082 4.65 7.414l7.12 0.021c2.801-1.354 4.699-4.173 4.699-7.436 0-4.547-3.686-8.233-8.233-8.233-0.002 0-0.004 0-0.006 0zM21.614 11.447c0.132-0.132 0.315-0.214 0.517-0.214 0.403 0 0.73 0.327 0.73 0.73s-0.327 0.73-0.73 0.73c-0.403 0-0.729-0.326-0.73-0.729 0.001-0.201 0.082-0.384 0.213-0.517zM15.439 19.672c-0.132 0.132-0.315 0.214-0.517 0.214-0.403 0-0.73-0.327-0.73-0.73s0.327-0.73 0.73-0.73c0.403 0 0.729 0.326 0.73 0.729-0 0.202-0.082 0.384-0.213 0.517zM17.238 17.872c-0.132 0.132-0.315 0.214-0.517 0.214-0.403 0-0.73-0.327-0.73-0.73s0.327-0.73 0.73-0.73c0.403 0 0.729 0.326 0.73 0.729 0 0 0 0.001 0 0.001 0 0.201-0.080 0.383-0.211 0.515zM19.037 19.672c-0.132 0.132-0.315 0.214-0.517 0.214-0.403 0-0.73-0.327-0.73-0.73s0.327-0.73 0.73-0.73c0.403 0 0.729 0.326 0.73 0.729 0 0 0 0.001 0 0.001 0 0.201-0.080 0.383-0.211 0.515zM19.037 16.076c-0.132 0.132-0.315 0.214-0.517 0.214-0.403 0-0.73-0.327-0.73-0.73s0.327-0.73 0.73-0.73c0.403 0 0.729 0.326 0.73 0.729 0 0 0 0.001 0 0.001 0 0.201-0.080 0.383-0.211 0.515zM20.837 17.875c-0.132 0.131-0.313 0.211-0.514 0.211-0.403 0-0.73-0.327-0.73-0.73s0.327-0.73 0.73-0.73c0.403 0 0.729 0.326 0.73 0.729-0.001 0.202-0.084 0.384-0.216 0.517zM20.837 14.279c-0.132 0.131-0.313 0.211-0.514 0.211-0.403 0-0.73-0.327-0.73-0.73s0.327-0.73 0.73-0.73c0.401 0 0.726 0.323 0.73 0.723 0 0.001 0 0.001 0 0.002 0 0.203-0.083 0.388-0.216 0.521zM22.636 16.079c-0.132 0.132-0.315 0.214-0.517 0.214-0.403 0-0.73-0.327-0.73-0.73s0.327-0.73 0.73-0.73c0.403 0 0.729 0.326 0.73 0.729-0.001 0.201-0.082 0.382-0.213 0.514z"></path>
</svg>
