<!-- Generated by IcoMoon.io -->
<svg version="1.1" xmlns="http://www.w3.org/2000/svg" width="32" height="32" viewBox="0 0 32 32">
<title>icn-sport-pilates</title>
<path d="M15.593 22.737c-3.865 0-7.276-1.496-9.277-3.761-0.233-0.808-0.367-1.736-0.368-2.695 0-0.115 0-0.227 0-0.34 2.305 2.164 5.766 3.548 9.636 3.548 4.385 0 8.241-1.774 10.487-4.449 0.052 0.369 0.083 0.799 0.087 1.236 0 0.269 0 0.53-0.034 0.788-1.519 3.295-5.665 5.673-10.532 5.673zM15.593 18.088c4.458 0 8.312-1.99 10.105-4.856-0.351-1.086-0.839-2.030-1.454-2.875-1.507 2.622-4.811 4.416-8.651 4.416-3.483 0-6.54-1.476-8.211-3.677-0.537 0.881-0.955 1.904-1.195 2.993 1.953 2.424 5.447 3.994 9.405 3.994zM15.593 8.632c1.684 0 3.107-0.842 3.517-1.965-0.917-0.303-1.972-0.478-3.068-0.478-1.384 0-2.703 0.279-3.904 0.783 0.594 0.952 1.911 1.654 3.455 1.654zM15.593 24.14c-0.044 0-0.096 0.001-0.147 0.001-2.876 0-5.561-0.823-7.83-2.246 1.903 2.74 4.967 4.492 8.44 4.492 3.988 0 7.436-2.31 9.080-5.665-2.278 2.060-5.711 3.418-9.543 3.418zM15.593 13.375c3.565 0 6.596-1.732 7.7-4.129-0.813-0.837-1.767-1.533-2.823-2.051-0.691 1.63-2.609 2.839-4.877 2.839-2.083 0-3.868-1.022-4.637-2.47-1.059 0.628-1.958 1.401-2.703 2.304 1.291 2.075 4.098 3.501 7.341 3.501z"></path>
</svg>
