<!-- Generated by IcoMoon.io -->
<svg version="1.1" xmlns="http://www.w3.org/2000/svg" width="32" height="32" viewBox="0 0 32 32">
<title>icn-sport-squash</title>
<path d="M24.188 10.060c-0.879-0.592-1.684-0.887-2.436-0.895-0.009-0-0.019-0-0.029-0-0.495 0-0.961 0.12-1.372 0.334-0.955 0.481-1.729 1.435-2.597 2.715-0.713 1.009-1.139 2.264-1.139 3.618 0 0.059 0.001 0.118 0.002 0.177 0.028 0.667 0.212 1.294 0.516 1.846l-0.732 2.137-0.227 0.691-0.090 0.090-0.253 0.351-0.312-0.415-0.081-0.087-0.244-0.691-0.761-2.145c0.276-0.539 0.439-1.175 0.444-1.848 0-0.018 0-0.037 0-0.056 0-1.389-0.448-2.674-1.209-3.716-0.877-1.248-1.672-2.188-2.651-2.657-0.381-0.19-0.831-0.302-1.306-0.302-0.029 0-0.058 0-0.087 0.001-0.759 0.022-1.551 0.331-2.415 0.94-1.404 0.985-2.021 2.088-1.892 3.368 0.109 1.081 0.724 2.145 1.614 3.411 0.755 1.103 1.824 1.941 3.077 2.395 0.463 0.16 0.946 0.245 1.449 0.245 0.033 0 0.066-0 0.099-0.001 0.141-0.004 0.28-0.016 0.416-0.036l2.318 1.917 0.629 0.957-1.606 2.246-0.076 0.115c-0.043 0.016-0.081 0.034-0.116 0.055-0.219 0.128-0.365 0.366-0.365 0.637 0 0.171 0.058 0.329 0.156 0.455 0.065 0.074 0.14 0.138 0.225 0.19l0.271 0.182c0.073 0.054 0.156 0.101 0.245 0.135 0.073 0.025 0.149 0.038 0.229 0.039 0.003 0 0.007 0 0.011 0 0.259 0 0.488-0.131 0.622-0.331 0.054-0.083 0.092-0.177 0.11-0.279 0.002-0.027 0.003-0.052 0.003-0.078s-0.001-0.051-0.003-0.076l0.023-0.030 0.039-0.059c0.121-0.177 0.236-0.354 0.351-0.536l0.792-1.255 0.786 1.171c0.118 0.177 0.236 0.354 0.359 0.528l0.042 0.059 0.022 0.034c0.002 0.053 0.007 0.103 0.015 0.152 0.020 0.1 0.060 0.194 0.116 0.277 0.135 0.194 0.36 0.32 0.615 0.32 0.008 0 0.017-0 0.025-0 0.079-0.003 0.155-0.018 0.226-0.044 0.090-0.037 0.173-0.085 0.247-0.143l0.262-0.183c0.086-0.056 0.16-0.122 0.223-0.198 0.098-0.125 0.157-0.283 0.157-0.455 0-0.277-0.153-0.519-0.379-0.645-0.035-0.020-0.072-0.037-0.111-0.051l-0.084-0.114-1.597-2.139 0.561-0.895 2.302-1.965c0.119 0.015 0.259 0.024 0.4 0.025 0.005 0 0.009 0 0.012 0 0.532 0 1.041-0.095 1.513-0.268 1.253-0.475 2.307-1.325 3.032-2.412 0.882-1.306 1.477-2.381 1.567-3.464 0.107-1.291-0.533-2.383-1.954-3.34zM14.066 15.955l-0.592-0.851 0.491-0.345c0.067 0.297 0.106 0.639 0.106 0.989 0 0.077-0.002 0.153-0.005 0.229zM9.106 13.373l0.78 1.109-1.109 0.778-0.778-1.106zM7.649 13.653l-0.778-1.106 1.109-0.78 0.78 1.109zM9.614 13.022l1.109-0.78 0.778 1.109-1.114 0.783zM10.246 14.987l0.78 1.109-1.109 0.778-0.78-1.109zM10.742 14.639l1.109-0.78 0.78 1.1-1.123 0.778zM12.988 15.464l0.766 1.098-1.123 0.78-0.778-1.109zM13.754 17.294c-0.148 0.314-0.345 0.58-0.585 0.801l-0.184-0.259zM13.774 14.142l-0.66 0.455-0.78-1.095 0.842-0.592c0.23 0.355 0.432 0.763 0.587 1.193zM12.831 12.41l-0.842 0.595-0.778-1.109 0.786-0.561c0.277 0.319 0.551 0.669 0.808 1.033zM10.321 10.119c0.133 0.040 0.245 0.085 0.353 0.138 0.335 0.171 0.633 0.388 0.894 0.643l-0.711 0.499-0.78-1.109zM10.361 11.747l-1.098 0.783-0.778-1.109 1.109-0.78zM9.196 10.105l0.037 0.053-1.092 0.766-0.191-0.281c0.357-0.237 0.773-0.423 1.219-0.533zM7.439 11.004l0.191 0.281-1.109 0.78-0.037-0.053c0.262-0.394 0.579-0.728 0.944-1zM6.139 13.434c-0.004-0.054-0.007-0.117-0.007-0.181s0.003-0.127 0.008-0.189l0.244-0.163 0.778 1.109-0.705 0.494c-0.152-0.312-0.263-0.673-0.315-1.053zM7.436 16.208c-0.228-0.32-0.467-0.695-0.687-1.082l0.754-0.627 0.78 1.109zM7.789 16.699l0.842-0.592 0.78 1.109-0.665 0.469c-0.357-0.294-0.671-0.618-0.947-0.974zM9.263 18.055l0.491-0.345 0.604 0.859c-0.417-0.135-0.78-0.309-1.113-0.525zM11.029 18.47l-0.778-1.109 1.109-0.78 0.78 1.103zM11.714 18.728l0.772-0.542 0.182 0.261c-0.275 0.147-0.597 0.247-0.938 0.28zM12.932 19.265l0.915-0.643 0.696 1.965zM23.975 10.916c0.382 0.271 0.705 0.596 0.966 0.967l-0.028 0.066-1.123-0.758zM17.774 16.592l0.758-1.123 1.123 0.758-0.758 1.123zM18.557 17.853l-0.18 0.264c-0.247-0.219-0.45-0.482-0.597-0.777zM18.872 14.967l0.758-1.123 1.123 0.758-0.758 1.123zM19.969 13.342l0.758-1.123 1.123 0.758-0.758 1.123zM21.255 14.942l1.123 0.758-0.758 1.123-1.123-0.758zM21.594 14.439l0.758-1.123 1.123 0.758-0.758 1.123zM22.692 12.814l0.758-1.123 1.123 0.758-0.758 1.123zM22.201 10.038c0.482 0.113 0.907 0.299 1.287 0.548l-0.2 0.271-1.112-0.752zM21.825 10.599l1.123 0.758-0.758 1.123-1.123-0.758zM20.738 10.229c0.094-0.049 0.205-0.095 0.32-0.133l0.263 0.164-0.758 1.123-0.719-0.488c0.256-0.261 0.55-0.482 0.873-0.656zM19.427 11.352l0.797 0.539-0.758 1.123-0.856-0.587c0.28-0.412 0.549-0.765 0.834-1.104zM18.274 12.932l0.842 0.575-0.758 1.123-0.674-0.455c0.164-0.476 0.363-0.886 0.604-1.268zM17.53 14.796l0.497 0.337-0.587 0.867c-0.004-0.074-0.007-0.16-0.007-0.248 0-0.339 0.036-0.669 0.105-0.987zM17.047 20.632l0.66-1.965 0.926 0.626zM18.88 18.459l0.18-0.264 0.783 0.528c-0.355-0.026-0.683-0.121-0.977-0.271zM19.399 17.684l0.758-1.123 1.123 0.758-0.758 1.123zM21.193 18.526l0.589-0.87 0.497 0.337c-0.313 0.211-0.672 0.391-1.054 0.523zM22.793 17.606l-0.674-0.441 0.758-1.123 0.842 0.575c-0.277 0.374-0.582 0.702-0.919 0.993zM24.076 16.107l-0.856-0.578 0.758-1.123 0.797 0.539c-0.247 0.467-0.479 0.85-0.729 1.22zM25.319 13.3c-0.041 0.398-0.14 0.763-0.29 1.101l-0.709-0.509 0.758-1.123 0.247 0.168c0.003 0.047 0.005 0.102 0.005 0.158 0 0.080-0.004 0.159-0.012 0.236zM16.152 7.806c0.034-0.508 0.182-0.975 0.418-1.385 0.057 0.15 0.095 0.309 0.095 0.476 0 0.382-0.198 0.718-0.497 0.91zM15.688 7.969c-0.047 0.008-0.102 0.013-0.158 0.013-0.202 0-0.39-0.063-0.544-0.17 0.291-0.507 0.46-1.117 0.46-1.765 0-0.082-0.003-0.164-0.008-0.245 0.050 0.002 0.107-0.003 0.165-0.003 0.253 0 0.484 0.096 0.658 0.253-0.352 0.542-0.564 1.204-0.573 1.914zM14.975 5.971c0.001 0.028 0.001 0.061 0.001 0.095 0 0.516-0.122 1.003-0.338 1.434-0.103-0.186-0.169-0.391-0.169-0.612 0-0.384 0.2-0.721 0.501-0.914z"></path>
</svg>
