<!-- Generated by IcoMoon.io -->
<svg version="1.1" xmlns="http://www.w3.org/2000/svg" width="32" height="32" viewBox="0 0 32 32">
<title>icn-sport-skeeball</title>
<path d="M12.195 19.209c-3.283-3.277-4.017-7.858-1.641-10.23 0.909-0.908 2.142-1.359 3.502-1.389l-2.214 2.211c0 0-0 0-0 0-0.755 0.754-1.154 1.756-1.218 2.853-0.005 0.091-0.008 0.184-0.009 0.276-0.001 0.185 0.007 0.373 0.024 0.563 0.026 0.284 0.072 0.572 0.138 0.86 0.044 0.193 0.098 0.386 0.16 0.579 0.374 1.158 1.068 2.309 2.063 3.303s2.148 1.687 3.308 2.059c0.193 0.062 0.387 0.115 0.58 0.16 0.289 0.067 0.577 0.113 0.862 0.138 0.19 0.017 0.378 0.025 0.563 0.023 0.372-0.003 0.734-0.042 1.081-0.12 0.434-0.097 0.845-0.253 1.222-0.469 0.301-0.173 0.58-0.385 0.832-0.636l2.385-2.381c0.043 1.492-0.405 2.854-1.39 3.838-2.377 2.373-6.964 1.64-10.247-1.638v0zM16.053 7.827c0.827-0.422 1.84-0.498 2.871-0.248 1.047 0.254 2.11 0.84 3.009 1.737 0.82 0.819 1.378 1.774 1.664 2.728 0.316 1.056 0.294 2.111-0.093 2.981-0.158 0.356-0.374 0.682-0.655 0.963-1.592 1.59-4.585 1.18-6.683-0.915s-2.509-5.082-0.916-6.672c0.238-0.238 0.51-0.425 0.803-0.574v0zM23.645 21.594l0-0c1.034-1.032 1.561-2.425 1.614-3.963 0.004-0.128 0.006-0.257 0.003-0.387-0.004-0.26-0.021-0.524-0.052-0.79-0.053-0.466-0.147-0.939-0.278-1.415 0.008-0.033 0.019-0.066 0.026-0.099 0.077-0.347 0.117-0.708 0.12-1.079 0.001-0.186-0.007-0.373-0.024-0.563-0.025-0.284-0.072-0.572-0.138-0.86-0.044-0.193-0.098-0.386-0.16-0.579-0.373-1.158-1.068-2.309-2.063-3.303-1.409-1.407-3.137-2.212-4.749-2.357-0.19-0.017-0.378-0.025-0.563-0.024-0.093 0.001-0.185 0.004-0.277 0.009-0.422 0.025-0.828 0.101-1.213 0.225-0.299-0.064-0.596-0.115-0.89-0.148-0.133-0.015-0.266-0.027-0.398-0.035-0.264-0.017-0.525-0.021-0.781-0.013-1.155 0.040-2.228 0.345-3.129 0.931-0.3 0.195-0.581 0.422-0.84 0.68 0 0-0 0-0 0.001l-4.004 3.998 0.009 0.009c-2.449 2.819-1.534 7.918 2.154 11.6s8.796 4.596 11.619 2.151l0.009 0.009 0.26-0.259c0-0 0-0 0.001-0.001s0 0 0-0l3.744-3.738zM21.032 14.295c1.151-1.151 1.151-3.017 0-4.168s-3.017-1.151-4.168 0c-1.151 1.151-1.151 3.017 0 4.168s3.017 1.151 4.168 0z"></path>
</svg>
