<!-- Generated by IcoMoon.io -->
<svg version="1.1" xmlns="http://www.w3.org/2000/svg" width="32" height="32" viewBox="0 0 32 32">
<title>icn-sport-broomball</title>
<path d="M26.341 6.737c-0.122-0.161-0.314-0.264-0.529-0.264-0.174 0-0.333 0.067-0.451 0.177l-8.499 7.859-0.233-0.194c-0.038-0.031-0.087-0.050-0.14-0.050s-0.102 0.019-0.141 0.050l-2.273 1.734-8.421 4.57c-0.070 0.038-0.117 0.111-0.117 0.195 0 0.062 0.025 0.118 0.066 0.158l5.443 5.471c0.040 0.041 0.096 0.066 0.158 0.066 0.080 0 0.151-0.043 0.19-0.107l0.694-1.141c-0.109-0.33-0.172-0.711-0.172-1.106 0-0.242 0.024-0.479 0.069-0.708l-0.391 0.585c-0.073 0.078-0.177 0.127-0.291 0.127-0.22 0-0.399-0.178-0.399-0.399 0-0.067 0.016-0.13 0.045-0.185l0.535-0.773c0.072-0.107 0.193-0.176 0.329-0.176 0.087 0 0.168 0.028 0.233 0.076 0.052 0.038 0.094 0.089 0.121 0.148 0.102-0.266 0.219-0.496 0.358-0.711-0.036 0.005-0.059-0.007-0.081-0.020-0.105-0.071-0.175-0.192-0.175-0.328 0-0.087 0.028-0.168 0.076-0.233l0.423-0.614c0.072-0.104 0.191-0.172 0.326-0.172 0.2 0 0.365 0.148 0.392 0.341 0.418-0.299 0.915-0.518 1.454-0.62l1.674-2.738 1.471-1.923c0.029-0.037 0.046-0.084 0.046-0.135 0-0.067-0.030-0.127-0.077-0.168l-0.18-0.155 8.359-7.739c0.14-0.126 0.228-0.309 0.228-0.511 0-0.146-0.045-0.281-0.123-0.392zM9.011 20.584l-0.814 0.469c-0.057 0.034-0.126 0.054-0.199 0.054-0.219 0-0.396-0.177-0.396-0.396 0-0.145 0.078-0.273 0.195-0.341l0.816-0.475c0.057-0.034 0.126-0.054 0.199-0.054 0.219 0 0.396 0.177 0.396 0.396 0 0.145-0.078 0.273-0.195 0.341zM10.953 19.461l-0.646 0.376c-0.051 0.025-0.11 0.040-0.173 0.040-0.22 0-0.399-0.178-0.399-0.399 0-0.136 0.068-0.256 0.172-0.328l0.647-0.377c0.042-0.017 0.091-0.026 0.142-0.026 0.22 0 0.399 0.178 0.399 0.399 0 0.125-0.057 0.236-0.147 0.309zM12.598 18.504l-0.385 0.225c-0.051 0.025-0.11 0.040-0.173 0.040-0.22 0-0.399-0.178-0.399-0.399 0-0.136 0.068-0.256 0.172-0.328l0.386-0.225c0.051-0.025 0.11-0.040 0.173-0.040 0.22 0 0.399 0.178 0.399 0.399 0 0.136-0.068 0.256-0.172 0.328zM14.49 19.846l-0.253 0.365c-0.073 0.104-0.192 0.172-0.327 0.172-0.22 0-0.398-0.178-0.398-0.398 0-0.084 0.026-0.163 0.071-0.227l0.252-0.364c0.073-0.104 0.192-0.172 0.327-0.172 0.22 0 0.398 0.178 0.398 0.398 0 0.084-0.026 0.163-0.071 0.227zM13.131 24.14c0.001-0.319 0.061-0.624 0.171-0.904l0.452-0.744c0.459-0.519 1.126-0.844 1.869-0.844 1.377 0 2.493 1.116 2.493 2.493s-1.116 2.493-2.493 2.493c-1.377 0-2.493-1.116-2.493-2.493 0-0 0-0.001 0-0.001zM13.294 23.256l0.46-0.764c-0.191 0.216-0.347 0.469-0.455 0.747z"></path>
</svg>
