<!-- Generated by IcoMoon.io -->
<svg version="1.1" xmlns="http://www.w3.org/2000/svg" width="32" height="32" viewBox="0 0 32 32">
<title>icn-sport-baseball</title>
<path d="M23.418 9.454c-0.251 0.293-0.627 0.711-0.962 1.254l0.753 0.376-0.585 1.171-0.836-0.418c-0.334 0.669-0.669 1.463-0.836 2.341l0.794 0.125-0.209 1.254-0.753-0.125c-0.042 0.627-0.042 1.296 0.042 1.965l0.627-0.167 0.376 1.212-0.753 0.209c0.167 0.669 0.418 1.338 0.753 2.049l0.544-0.46 0.794 1.003-0.753 0.627c0.293 0.502 0.627 1.003 1.045 1.547 1.798-1.798 2.885-4.222 2.885-6.94 0.042-2.759-1.087-5.226-2.926-7.024zM21.495 22.707l-0.627 0.544-0.794-1.003 0.836-0.669c-0.418-0.878-0.753-1.714-0.962-2.55l-1.003 0.293-0.376-1.212 1.087-0.334c-0.167-0.92-0.167-1.756-0.084-2.55l-1.003-0.167 0.209-1.254 0.962 0.167c0.209-1.003 0.585-1.923 0.962-2.676l-0.711-0.334 0.585-1.129 0.794 0.376c0.418-0.627 0.794-1.129 1.129-1.505-1.63-1.254-3.679-1.965-5.937-1.965-2.216 0-4.264 0.753-5.895 1.965 0.334 0.376 0.753 0.92 1.171 1.589l0.878-0.46 0.585 1.129-0.836 0.418c0.376 0.753 0.711 1.672 0.92 2.634l1.129-0.209 0.209 1.254-1.129 0.209c0.084 0.794 0.042 1.589-0.042 2.467l1.254 0.376-0.376 1.212-1.171-0.334c-0.209 0.794-0.502 1.63-0.92 2.508l0.92 0.753-0.794 1.003-0.753-0.627c-0.334 0.544-0.711 1.087-1.129 1.672 1.672 1.254 3.721 2.007 5.978 2.007s4.306-0.753 5.978-2.049c-0.418-0.502-0.753-1.045-1.045-1.547zM9.621 23.418c0.418-0.544 0.794-1.087 1.087-1.63l-0.627-0.544 0.794-1.003 0.418 0.376c0.334-0.711 0.585-1.38 0.753-2.007l-0.585-0.167 0.376-1.212 0.502 0.125c0.084-0.669 0.084-1.296 0.042-1.881l-0.627 0.125-0.209-1.254 0.669-0.125c-0.209-0.878-0.502-1.63-0.836-2.341l-0.711 0.376-0.585-1.171 0.669-0.334c-0.418-0.543-0.794-1.003-1.045-1.296-1.84 1.798-2.968 4.264-2.968 7.024 0 2.717 1.087 5.184 2.885 6.94z"></path>
</svg>
