<!-- Generated by IcoMoon.io -->
<svg version="1.1" xmlns="http://www.w3.org/2000/svg" width="32" height="32" viewBox="0 0 32 32">
<title>icn-sport-bocce-ball</title>
<path d="M23.018 26.072c2.171 0 3.93-1.759 3.93-3.93s-1.759-3.93-3.93-3.93c-2.171 0-3.93 1.759-3.93 3.93s1.759 3.93 3.93 3.93zM9.544 16.247c0-1.608 0.564-3.083 1.503-4.241l-2.654-2.654c-1.554 1.777-2.498 4.102-2.498 6.648 0 2.672 1.039 5.101 2.733 6.907l2.42-2.419c-0.94-1.158-1.503-2.634-1.503-4.241zM16.281 9.51c1.608 0 3.083 0.564 4.241 1.503l2.386-2.386c-1.807-1.694-4.235-2.733-6.907-2.733-2.529 0-4.84 0.931-6.612 2.467l2.652 2.652c1.158-0.94 2.634-1.503 4.241-1.503zM25.961 17.696c0.093-0.552 0.144-1.117 0.144-1.696 0-2.403-0.84-4.609-2.241-6.344l-2.349 2.349c0.939 1.158 1.503 2.634 1.503 4.241 0 0.19-0.009 0.377-0.024 0.563 0.008 0 0.016-0.001 0.024-0.001 1.089 0 2.1 0.328 2.943 0.887zM16.281 17.239l-3.238 3.238c0.899 0.689 2.019 1.102 3.238 1.102 0.509 0 1-0.076 1.466-0.21 0.103-0.711 0.345-1.375 0.7-1.965l-2.165-2.165zM19.005 25.647c-0.679-0.777-1.136-1.751-1.273-2.827-0.468 0.103-0.952 0.163-1.451 0.163-1.608 0-3.083-0.564-4.241-1.503l-2.383 2.383c1.734 1.401 3.941 2.241 6.344 2.241 1.047 0 2.056-0.162 3.005-0.458zM10.947 16.247c0 1.22 0.414 2.34 1.102 3.238l3.238-3.238-3.238-3.238c-0.689 0.899-1.103 2.019-1.103 3.238zM21.614 16.247c0-1.22-0.414-2.34-1.103-3.238l-3.238 3.238 2.052 2.052c0.619-0.595 1.381-1.041 2.23-1.283 0.037-0.252 0.059-0.508 0.059-0.769zM16.281 10.914c-1.22 0-2.34 0.414-3.238 1.103l3.238 3.238 3.238-3.238c-0.899-0.689-2.019-1.103-3.238-1.103z"></path>
</svg>
