<!-- Generated by IcoMoon.io -->
<svg version="1.1" xmlns="http://www.w3.org/2000/svg" width="32" height="32" viewBox="0 0 32 32">
<title>icn-sport-racquetball</title>
<path d="M17.089 7.105c-0.126 0.493-0.566 0.851-1.089 0.851-0.62 0-1.123-0.503-1.123-1.123s0.503-1.123 1.123-1.123c0.1 0 0.197 0.013 0.289 0.037 0.48 0.127 0.834 0.565 0.834 1.085 0 0.096-0.012 0.19-0.035 0.279zM26.052 15.753l-0.691 1.089c-0.723 1.117-1.688 2.018-2.825 2.646l-5.262 2.856c-0.093 0.051-0.204 0.081-0.322 0.081-0 0-0.001 0-0.001 0h-0.020l-0.438 0.685 1.752 2.714c0.042 0.064 0.067 0.143 0.067 0.227 0 0.233-0.189 0.422-0.422 0.422-0.148 0-0.279-0.077-0.354-0.193l-1.536-2.39-1.533 2.394c-0.077 0.118-0.208 0.194-0.357 0.194-0.234 0-0.424-0.19-0.424-0.424 0-0.086 0.025-0.165 0.069-0.232l1.739-2.721-0.438-0.685h-0.020c-0.001 0-0.001 0-0.002 0-0.118 0-0.228-0.030-0.325-0.083l-5.215-2.825c-1.179-0.649-2.145-1.55-2.85-2.636l-0.709-1.111c-0.266-0.412-0.423-0.914-0.423-1.454 0-0.943 0.482-1.774 1.213-2.259l2.8-1.839c0.409-0.272 0.911-0.434 1.451-0.434 1.005 0 1.878 0.56 2.326 1.385l1.054 1.954c0.501 0.909 0.834 1.978 0.927 3.116l0.434 5.46c0.004 0.027 0.006 0.059 0.006 0.091s-0.002 0.064-0.007 0.095l0.281 0.451 0.281-0.455c-0.004-0.027-0.006-0.059-0.006-0.091s0.002-0.064 0.006-0.095l-0 0.004 0.441-5.432c0.095-1.165 0.428-2.235 0.95-3.185l1.026-1.899c0.454-0.839 1.328-1.399 2.333-1.399 0.54 0 1.042 0.162 1.461 0.44l2.772 1.827c0.735 0.492 1.212 1.319 1.212 2.257 0 0.539-0.158 1.042-0.429 1.464zM11.868 19.84l0.561-0.354-0.463-0.679-0.887 0.561c-0.014 0.008-0.031 0.016-0.049 0.022zM9.131 18.072l0.472-0.303-0.528-0.8-0.842 0.539c0.242 0.247 0.5 0.475 0.774 0.683 0.040-0.043 0.078-0.088 0.126-0.119zM6.961 15.795l0.943-0.606-0.477-0.724-0.912 0.587c0.043 0.097 0.087 0.179 0.136 0.257zM8.365 14.886l0.707-0.455-0.477-0.724-0.705 0.455zM8.191 12.079l0.561 0.842 0.755-0.486-0.561-0.862zM13.089 14.378l0.528 0.8 0.385-0.247c0.041-0.025 0.091-0.040 0.144-0.040 0.004 0 0.008 0 0.011 0-0.113-0.381-0.236-0.701-0.381-1.009zM14.493 17.185l-0.842 0.531 0.458 0.691 0.452-0.281zM14.619 18.751l-0.194 0.123 0.23 0.351zM10.731 15.905l0.528 0.8 0.755-0.486-0.528-0.8zM11.178 14.95l-0.561-0.842-0.749 0.488 0.561 0.842zM11.568 17.173l0.561 0.842 0.758-0.483-0.561-0.859zM13.364 17.244l0.671-0.429-0.561-0.865-0.671 0.432zM12.441 18.495l0.458 0.691 0.758-0.483-0.463-0.691zM13.193 19.649l0.396 0.598c0.027 0.042 0.043 0.094 0.043 0.149 0 0.008-0 0.015-0.001 0.023 0.237-0.252 0.547-0.432 0.895-0.507-0.060-0.019-0.12-0.061-0.159-0.119l-0.402-0.621zM14.428 16.404v-0.079c-0.029-0.345-0.076-0.657-0.144-0.963l-0.351 0.281zM12.632 14.681l-0.674 0.435 0.528 0.8 0.674-0.432zM12.323 14.212l-0.561-0.842-0.677 0.435 0.561 0.842zM11.461 12.912l-0.477-0.724-0.679 0.438 0.477 0.724zM9.825 12.912l-0.755 0.486 0.474 0.727 0.755-0.486zM8.677 15.352l0.561 0.842 0.707-0.458-0.561-0.842zM10.066 17.462l0.71-0.458-0.528-0.8-0.705 0.46zM10.386 17.934l0.561 0.842 0.716-0.455-0.561-0.842zM12.435 20.146l0.665 0.362-0.365-0.561zM13.429 20.685v0h-0.014zM13.926 20.966l0.825 0.449c0.026-0.032 0.055-0.060 0.088-0.083l-0.069-0.874c-0.35 0.045-0.649 0.23-0.845 0.496zM13.064 12.514c-0.019 0.025-0.041 0.047-0.066 0.064l-0.756 0.486 0.561 0.842 0.755-0.486zM12.559 11.576c-0.064-0.116-0.133-0.216-0.21-0.309-0.019 0.033-0.045 0.058-0.075 0.078l-0.818 0.526 0.477 0.724 0.758-0.488c0.037-0.022 0.081-0.037 0.128-0.039zM10.947 10.616c-0.109 0.001-0.215 0.013-0.317 0.033l0.508 0.753 0.78-0.502c-0.275-0.176-0.611-0.28-0.971-0.281zM9.415 11.276l0.561 0.865 0.691-0.435-0.517-0.786c-0.015-0.025-0.027-0.054-0.033-0.085-0.051 0.023-0.099 0.049-0.146 0.080zM7.169 12.747c-0.051 0.034-0.098 0.067-0.143 0.107l0.561 0.842 0.705-0.455-0.561-0.842zM6.349 14.479l0.755-0.486-0.452-0.707c-0.185 0.286-0.295 0.635-0.295 1.010 0 0.064 0.003 0.128 0.010 0.191zM7.86 17.086l0.912-0.587-0.561-0.842-0.946 0.623 0.073 0.112c0.174 0.262 0.346 0.488 0.53 0.703zM9.903 18.771l0.561 0.306-0.561-0.842-0.435 0.281c0.146 0.090 0.286 0.174 0.429 0.253zM25.342 13.286l-0.472 0.707 0.755 0.486c0.005-0.054 0.009-0.116 0.009-0.179 0-0.377-0.111-0.727-0.302-1.021zM25.342 15.301c0.045-0.071 0.089-0.153 0.127-0.238l-0.908-0.601-0.477 0.724 0.943 0.606zM22.961 18.203c0.291-0.221 0.55-0.449 0.79-0.695l-0.841-0.543-0.525 0.803 0.472 0.303c0.047 0.032 0.083 0.077 0.103 0.13zM20.96 19.382c-0.018-0.004-0.034-0.009-0.050-0.015l-0.885-0.561-0.458 0.691 0.561 0.354zM18.574 20.679h-0.014zM17.404 18.114l0.452 0.281 0.458-0.691-0.842-0.531zM17.822 14.877c0.003-0 0.007-0 0.011-0 0.053 0 0.103 0.015 0.145 0.040l0.383 0.246 0.528-0.8-0.702-0.452c-0.127 0.265-0.251 0.585-0.352 0.915zM23.034 11.585l-0.561 0.862 0.755 0.486 0.561-0.842zM22.159 12.912l-0.477 0.724 0.755 0.486 0.477-0.724zM19.088 19.186l0.458-0.691-0.758-0.483-0.458 0.691zM18.021 19.186l-0.413 0.626c-0.040 0.059-0.099 0.101-0.169 0.118 0.358 0.078 0.668 0.258 0.904 0.508 0-0.006-0-0.013-0-0.021 0-0.055 0.016-0.107 0.044-0.15l0.398-0.616zM18.622 17.255l0.561-0.859-0.657-0.446-0.561 0.865zM19.854 18.038l0.561-0.842-0.755-0.486-0.573 0.834zM20.727 16.716l0.528-0.8-0.764-0.5-0.528 0.8zM21.569 15.447l0.561-0.842-0.755-0.486-0.561 0.842zM21.684 12.623l-0.679-0.438-0.474 0.727 0.677 0.435zM20.211 13.367l-0.561 0.842 0.677 0.435 0.561-0.842zM19.368 14.681l-0.528 0.8 0.674 0.432 0.528-0.8zM17.566 16.328v0.081l0.502-0.764-0.385-0.233c-0.057 0.259-0.103 0.571-0.128 0.89zM17.37 18.748l-0.039 0.472 0.23-0.351zM17.252 21.406l0.825-0.449c-0.196-0.271-0.493-0.459-0.835-0.507l-0.091 0.883c0.034 0.020 0.064 0.043 0.090 0.070zM18.905 20.508l0.662-0.359-0.3-0.191zM21.053 18.782l0.561-0.842-0.71-0.458-0.561 0.842zM21.92 17.462l0.525-0.8-0.71-0.458-0.528 0.8zM23.298 15.352l-0.702-0.455-0.561 0.842 0.702 0.458zM23.613 14.877l0.477-0.724-0.705-0.455-0.48 0.73zM24.806 12.741l-0.561-0.362-0.561 0.842 0.705 0.455 0.561-0.842c-0.045-0.017-0.093-0.053-0.143-0.087zM22.015 10.908c-0.048-0.031-0.098-0.056-0.146-0.081-0.007 0.033-0.019 0.062-0.034 0.088l-0.516 0.785 0.679 0.438 0.561-0.865zM20.051 10.891l0.78 0.502 0.502-0.747c-0.091-0.018-0.197-0.029-0.305-0.031-0.361 0-0.697 0.105-0.98 0.285zM19.169 12.070c0.048 0.003 0.092 0.017 0.13 0.040l0.757 0.488 0.477-0.724-0.817-0.525c-0.031-0.020-0.057-0.046-0.078-0.075-0.076 0.089-0.145 0.189-0.203 0.295zM18.439 13.423l0.755 0.486 0.561-0.842-0.755-0.486c-0.026-0.018-0.048-0.039-0.067-0.064zM22.515 18.526l-0.435-0.281-0.561 0.842 0.561-0.309c0.157-0.090 0.298-0.174 0.435-0.253zM24.651 16.39l0.073-0.112-0.949-0.62-0.561 0.842 0.926 0.587c0.172-0.208 0.34-0.438 0.494-0.679z"></path>
</svg>
