<!-- Generated by IcoMoon.io -->
<svg version="1.1" xmlns="http://www.w3.org/2000/svg" width="32" height="32" viewBox="0 0 32 32">
<title>icn-sport-rowing</title>
<path d="M16.048 8.931l3.344-2.512c0.49-0.368 1.185-0.269 1.552 0.22l0.062 0.083c0.368 0.49 0.269 1.185-0.22 1.552l-3.344 2.512c-0.49 0.368-1.185 0.269-1.552-0.22l-0.062-0.083c-0.368-0.49-0.269-1.185 0.22-1.552zM6.726 15.161h4.182c0.612 0 1.109 0.496 1.109 1.109v0.104c0 0.612-0.496 1.109-1.109 1.109h-4.182c-0.612 0-1.109-0.496-1.109-1.109v-0.104c0-0.612 0.496-1.109 1.109-1.109zM24.733 23.7h-0.474v-3.795c1.497-0.723 2.511-2.23 2.511-3.973 0-2.429-1.969-4.399-4.399-4.399-0.285 0-0.563 0.027-0.832 0.079l-0.975-1.293-1.493 1.162 0.702 0.901c-1.106 0.806-1.817 2.097-1.817 3.554 0 0.601 0.121 1.174 0.34 1.696l-4.858 3.227h-7.823v1.878h8.373l5.381-3.585c0.183 0.17 0.382 0.328 0.595 0.467l2.338 4.078h-1.752c-0.62 0-1.123 0.503-1.123 1.123v0.101c0 0.62 0.503 1.123 1.123 1.123h4.182c0.62 0 1.123-0.503 1.123-1.123v-0.101c-0.002-0.619-0.504-1.12-1.123-1.12 0 0 0 0 0 0zM23.795 15.935c0 0.792-0.642 1.434-1.434 1.434s-1.434-0.642-1.434-1.434c0-0.792 0.642-1.434 1.434-1.434s1.434 0.642 1.434 1.434zM22.361 20.34c0.198-0 0.393-0.013 0.584-0.039l-0.023 1.748-0.988-1.732c0.132 0.014 0.278 0.022 0.427 0.022z"></path>
</svg>
