<!-- Generated by IcoMoon.io -->
<svg version="1.1" xmlns="http://www.w3.org/2000/svg" width="32" height="32" viewBox="0 0 32 32">
<title>icn-sport-yoga</title>
<path d="M10.597 13.715l5.76-3.329c0.19-0.055 0.409-0.087 0.634-0.087 1.895 0 3.436 1.648 3.436 3.672 0.004 0.056 0.006 0.122 0.006 0.188 0 0.959-0.446 1.813-1.142 2.367l-1.786 1.226c-1.069 0.735-2.229 1.533-3.332 2.282 0.213-0.525 0.337-1.134 0.337-1.771 0-0.006 0-0.012-0-0.018 0-2.379-1.726-4.339-3.913-4.53zM17.895 18.386c-1.578 1.086-3.346 2.302-4.853 3.307l-0.143 0.129-0.017-0.022-0.219 0.146c-0.636 0.445-1.424 0.713-2.275 0.719h-0.024c-0.001 0-0.001 0-0.002 0-0.994 0-1.89-0.418-2.523-1.087-0.656-0.705-1.057-1.651-1.057-2.691 0-0.013 0-0.026 0-0.039 0-2.134 1.549-3.816 3.551-3.83h0.020c1.495 0.020 2.726 1.127 2.94 2.566 0.252 1.701-0.613 3.194-2.1 3.666-0.23 0.077-0.494 0.122-0.769 0.122-0.488 0-0.943-0.14-1.327-0.383-0.523-0.333-0.905-0.869-1.034-1.497-0.048-0.203-0.074-0.42-0.074-0.642 0-0.546 0.156-1.056 0.426-1.487 0.361-0.543 0.945-0.928 1.623-1.023 0.108-0.020 0.218-0.031 0.331-0.031 0.406 0 0.779 0.14 1.074 0.375 0.38 0.332 0.635 0.808 0.678 1.343 0.007 0.066 0.011 0.134 0.011 0.203 0 0.432-0.149 0.83-0.398 1.144-0.297 0.397-0.754 0.667-1.276 0.714-0.027 0.002-0.052 0.003-0.076 0.003-0.377 0-0.712-0.178-0.926-0.454-0.159-0.197-0.255-0.446-0.255-0.718 0-0.085 0.009-0.167 0.027-0.246 0.030-0.158 0.174-0.282 0.346-0.282 0.028 0 0.055 0.003 0.081 0.009 0.158 0.047 0.272 0.193 0.272 0.366 0 0.032-0.004 0.064-0.012 0.094-0.003 0.015-0.005 0.036-0.005 0.057 0 0.085 0.031 0.162 0.081 0.222 0.090 0.113 0.229 0.185 0.384 0.185 0.008 0 0.016-0 0.023-0.001 0.32-0.034 0.598-0.199 0.78-0.441 0.146-0.181 0.234-0.41 0.234-0.66 0-0.034-0.002-0.067-0.005-0.1-0.023-0.331-0.175-0.627-0.406-0.837-0.178-0.135-0.402-0.216-0.646-0.216-0.076 0-0.15 0.008-0.221 0.023-0.48 0.058-0.895 0.326-1.151 0.709-0.186 0.302-0.294 0.661-0.294 1.045 0 0.165 0.020 0.326 0.058 0.479 0.088 0.421 0.348 0.783 0.704 1.007 0.277 0.174 0.607 0.275 0.96 0.275 0.203 0 0.399-0.034 0.581-0.095 1.11-0.356 1.778-1.504 1.587-2.803-0.171-1.102-1.11-1.935-2.245-1.94h-0.014c-1.603 0-2.852 1.359-2.844 3.068-0 0.010-0 0.022-0 0.034 0 0.832 0.32 1.589 0.844 2.155 0.507 0.536 1.226 0.871 2.023 0.871 0.009 0 0.017-0 0.026-0h0.016c0.71-0.008 1.365-0.232 1.906-0.611l0.295-0.198c0.746-0.709 1.21-1.709 1.21-2.817 0-0.008-0-0.017-0-0.025 0-2.090-1.592-3.794-3.551-3.794-0.724 0-1.395 0.229-1.944 0.619l0.010-0.007c-1.215 0.853-1.999 2.249-1.999 3.827 0 0.408 0.052 0.803 0.151 1.18 0.487 1.933 2.112 3.28 4.041 3.285 1.777 0 4.634 0 6.352 0l7.98-6.043h-5.378z"></path>
</svg>
