<!-- Generated by IcoMoon.io -->
<svg version="1.1" xmlns="http://www.w3.org/2000/svg" width="32" height="32" viewBox="0 0 32 32">
<title>icn-sport-badmington</title>
<path d="M22.947 15.635l-11.082 6.125-0.258-0.258 8.502-8.309 2.58 0.828zM10.667 20.55l8.491-8.317-0.89-2.633-1.622-0.146-6.24 10.846zM15.52 8.733l-1.204-2.277-5.74 12.014 0.842 0.842zM6.919 20.404c-0.644 0.618-1.044 1.486-1.044 2.447 0 1.873 1.518 3.391 3.391 3.391 0.961 0 1.829-0.4 2.446-1.042l0.001-0.001 0.842-0.842-4.792-4.797zM23.439 16.901l-10.582 5.836 0.783 0.783 11.509-5.819-1.429-0.618c-0.108-0.049-0.2-0.11-0.282-0.183z"></path>
</svg>
