<!-- Generated by IcoMoon.io -->
<svg version="1.1" xmlns="http://www.w3.org/2000/svg" width="32" height="32" viewBox="0 0 32 32">
<title>icn-sport-outdoors</title>
<path d="M5.286 11.259c0.013-0.079 0.072-0.141 0.147-0.16 1.131-0.291 1.952-1.301 1.952-2.502 0-0.917-0.478-1.722-1.199-2.18-0.065-0.042-0.1-0.103-0.1-0.173 0-0.092 0.062-0.17 0.147-0.192 0.216-0.056 0.463-0.088 0.716-0.088 1.643 0 2.975 1.332 2.975 2.975s-1.332 2.975-2.975 2.975c-0.588 0-1.136-0.17-1.597-0.465-0.038-0.030-0.070-0.088-0.070-0.154 0-0.013 0.001-0.027 0.004-0.039zM15.966 17.496l3.071 6.706h5.519l-7.86-13.179 1.249-2.094c0.049-0.080 0.079-0.177 0.079-0.281 0-0.298-0.241-0.539-0.539-0.539-0.194 0-0.364 0.102-0.459 0.256l-0.956 1.599-0.954-1.597c-0.096-0.156-0.266-0.258-0.46-0.258-0.298 0-0.539 0.241-0.539 0.539 0 0.104 0.029 0.201 0.080 0.283l1.242 2.092-7.86 13.179h5.333zM26.119 25.263h-20.348c-0.296 0-0.536 0.24-0.536 0.536s0.24 0.536 0.536 0.536h20.351c0.296 0 0.536-0.24 0.536-0.536s-0.24-0.536-0.536-0.536z"></path>
</svg>
