<!-- Generated by IcoMoon.io -->
<svg version="1.1" xmlns="http://www.w3.org/2000/svg" width="32" height="32" viewBox="0 0 32 32">
<title>icn-sport-field-hockey</title>
<path d="M25.94 8.735l-8.227 8.772-1.086-1.075 8.5-8.511c0.105-0.104 0.25-0.168 0.41-0.168 0.001 0 0.002 0 0.003 0s0.002 0 0.003 0c0.157 0 0.299 0.064 0.401 0.168s0.165 0.248 0.165 0.406c0 0.159-0.064 0.304-0.168 0.409zM16.446 18.807l0.727-0.744-1.095-1.095-0.747 0.733zM13.491 21.799l2.021-2.044-1.123-1.123-5.608 5.507c-0.165 0.156-0.389 0.252-0.635 0.252-0.512 0-0.926-0.415-0.926-0.926 0-0.247 0.097-0.471 0.254-0.637 0.153-0.153 0.248-0.365 0.248-0.599 0-0.468-0.379-0.848-0.848-0.848-0.234 0-0.446 0.095-0.599 0.248-0.476 0.475-0.771 1.132-0.771 1.858 0 1.45 1.175 2.625 2.625 2.625 0.724 0 1.379-0.293 1.854-0.767l0.966-0.98c0.098-1.362 1.168-2.447 2.516-2.565zM14.695 25.544c0.249-0.249 0.403-0.594 0.403-0.974 0-0.761-0.617-1.378-1.378-1.378s-1.378 0.617-1.378 1.378c0 0.761 0.617 1.378 1.378 1.378 0 0 0.001 0 0.001 0 0.38-0 0.725-0.155 0.974-0.404z"></path>
</svg>
