<!-- Generated by IcoMoon.io -->
<svg version="1.1" xmlns="http://www.w3.org/2000/svg" width="32" height="32" viewBox="0 0 32 32">
<title>icn-sport-cornhole</title>
<path d="M21.804 16.648c-0.156 0.586-0.281 1.165-0.382 1.737-0.054-0.584-0.085-1.18-0.085-1.785 0-2.102 0.33-4.090 0.952-5.759 0.759 0.046 1.489 0.042 2.177-0.013-1.103 1.525-2.052 3.533-2.662 5.821zM20.675 22.663c-1.664-0.562-3.659-0.889-5.804-0.889s-4.14 0.327-5.804 0.889c0.557-1.66 0.881-3.647 0.881-5.783 0-2.367-0.398-4.552-1.071-6.31 1.701 0.602 3.766 0.954 5.993 0.954s4.293-0.353 5.993-0.954c-0.672 1.758-1.071 3.943-1.071 6.31 0 2.136 0.325 4.123 0.882 5.783zM17.293 9.861c-0.696 0.078-1.413 0.12-2.141 0.12-0.75 0-1.489-0.043-2.204-0.125 0.028-0.741 0.008-1.453-0.062-2.119 1.219 0.836 2.722 1.57 4.407 2.125zM16 5.053c-6.046 0-10.947 4.901-10.947 10.947s4.901 10.947 10.947 10.947c6.046 0 10.947-4.901 10.947-10.947s-4.901-10.947-10.947-10.947z"></path>
</svg>
