<!-- Generated by IcoMoon.io -->
<svg version="1.1" xmlns="http://www.w3.org/2000/svg" width="32" height="32" viewBox="0 0 32 32">
<title>icn-sport-cycling</title>
<path d="M21.92 24.166c1.282-1.282 2.075-3.052 2.075-5.008 0-3.724-2.874-6.776-6.525-7.061l-0.024-1.265c0.006-0.030 0.010-0.065 0.010-0.101s-0.004-0.071-0.011-0.104l0.001-3.329c-0.001-0.078-0.017-0.152-0.046-0.22-0.192-0.862-0.953-1.499-1.862-1.501h-1.123c-0.258 0.054-0.45 0.28-0.45 0.55s0.191 0.496 0.446 0.55l1.126 0.001c0 0 0 0 0 0 0.445 0 0.807 0.36 0.808 0.805v0c-0.002 0.445-0.363 0.806-0.808 0.806 0 0 0 0 0 0h-1.123c-0.258 0.054-0.45 0.28-0.45 0.55s0.191 0.496 0.446 0.55l1.126 0.001c0 0 0.001 0 0.001 0 0.292 0 0.569-0.066 0.816-0.185l-0.011 1.013c-4.794 0.289-8.612 4.404-8.612 9.432 0.054 0.258 0.28 0.45 0.55 0.45s0.496-0.191 0.55-0.446c0.001-4.413 3.324-8.035 7.515-8.335v0.794c-1.735 0.14-3.273 0.888-4.422 2.027l-0.030 0.025-0.028 0.034c-1.267 1.277-2.050 3.036-2.050 4.978s0.783 3.701 2.050 4.979l0.028 0.033 0.031 0.025c1.272 1.262 3.023 2.044 4.956 2.049h0.021c0.001 0 0.002 0 0.003 0 1.934 0 3.686-0.777 4.961-2.036l0.033-0.027zM10.947 19.719h3.669c0.063 0.255 0.16 0.48 0.286 0.684l-2.602 2.587c-0.744-0.89-1.235-2.013-1.351-3.246zM12.303 15.346l2.594 2.602c-0.121 0.193-0.217 0.417-0.277 0.655l-3.672 0.016c0.117-1.258 0.609-2.383 1.361-3.282zM16.887 19.719v0c0.31 0 0.561-0.251 0.561-0.561v-1.128c0.436 0.204 0.733 0.64 0.733 1.145 0 0.696-0.564 1.26-1.26 1.26s-1.26-0.564-1.26-1.26c0-0.487 0.276-0.909 0.68-1.119l0.007 1.119c0.009 0.295 0.244 0.533 0.538 0.545zM21.499 15.34c0.75 0.891 1.246 2.019 1.362 3.258l-3.647 0.024c-0.061-0.261-0.158-0.492-0.287-0.701zM15.672 21.173c0.191 0.12 0.413 0.217 0.649 0.277l0.016 3.675c-1.253-0.122-2.373-0.615-3.268-1.366zM17.437 21.454c0.26-0.062 0.49-0.158 0.698-0.287l2.578 2.602c-0.891 0.743-2.017 1.233-3.253 1.346zM18.908 20.401c0.123-0.2 0.22-0.433 0.278-0.68l3.652-0.016c-0.107 1.271-0.598 2.411-1.355 3.322zM20.719 14.549l-2.591 2.594c-0.199-0.123-0.429-0.219-0.675-0.278l-0.016-3.666c1.262 0.118 2.39 0.613 3.291 1.369zM16.34 16.87c-0.254 0.063-0.478 0.16-0.681 0.286l-2.581-2.588c0.888-0.745 2.011-1.239 3.243-1.357z"></path>
</svg>
